<svg width="898" height="566" viewBox="0 0 898 566" fill="none" xmlns="http://www.w3.org/2000/svg">
<path d="M908.5 155L915 585L278.5 596L908.5 155Z" fill="#FFEECF" stroke="black"/>
<g clip-path="url(#clip0_582_4439)">
<path d="M936.622 225.55L940.297 228.179L835.69 300.403L831.981 297.809L936.622 225.55Z" fill="#D8A543" stroke="black" stroke-width="0.5" stroke-miterlimit="10"/>
<path d="M863.349 276.467L832.223 297.878L831.045 297.117L862.17 275.706L863.349 276.467Z" fill="#823A45"/>
<path d="M885.151 261.351L863.349 276.467L862.17 275.706L883.972 260.59L885.151 261.351Z" fill="#823A45"/>
<path d="M906.952 246.235L885.151 261.351L883.972 260.59L905.774 245.439L906.952 246.235Z" fill="#823A45"/>
<path d="M832.223 304.035L831.045 303.239V297.117L832.223 297.878V304.035Z" fill="#823A45"/>
<path d="M832.05 286.532L851.946 272.938V285.356C851.946 285.598 852.084 285.771 852.292 285.771C852.5 285.771 852.639 285.598 852.639 285.356V272.454L863.21 265.121V277.539C863.21 277.781 863.384 277.954 863.557 277.954C863.765 277.954 863.904 277.781 863.904 277.539V264.637L874.441 257.338V269.756C874.441 269.998 874.579 270.171 874.787 270.171C874.995 270.171 875.134 269.998 875.134 269.756V256.854L877.213 255.401L885.671 249.521V261.939C885.671 262.181 885.809 262.354 886.017 262.354C886.225 262.354 886.364 262.181 886.364 261.939V249.037L896.936 241.704V254.122C896.936 254.364 897.074 254.537 897.282 254.537C897.49 254.537 897.629 254.364 897.629 254.122V241.219L908.2 233.886V246.304C908.2 246.546 908.374 246.719 908.547 246.719C908.755 246.719 908.894 246.546 908.894 246.304V233.402L919.465 226.069V238.487C919.465 238.729 919.604 238.902 919.812 238.902C919.95 238.902 920.089 238.798 920.124 238.625C920.158 238.591 920.158 238.521 920.158 238.452V225.585L930.73 218.217V230.635C930.73 230.877 930.903 231.05 931.077 231.05C931.285 231.05 931.423 230.877 931.423 230.635V217.733L933.503 216.315C933.33 215.9 933.226 215.45 933.295 215L876.694 254.294L829.035 287.19C829.035 287.674 829.035 288.158 829 288.677L831.357 287.051L832.05 286.532Z" fill="black"/>
</g>
<g clip-path="url(#clip1_582_4439)">
<path d="M838.688 359.639L827.527 367.387V358.774L838.688 351.026V359.639Z" fill="#823A45" stroke="black" stroke-width="0.5" stroke-miterlimit="10"/>
<path d="M821.565 354.624L827.527 358.774L838.688 351.026L832.726 346.875L821.565 354.624Z" fill="#823A45" stroke="black" stroke-width="0.5" stroke-miterlimit="10"/>
<path d="M821.565 363.236L827.527 367.387V358.774L821.565 354.624V363.236Z" fill="#823A45" stroke="black" stroke-width="0.5" stroke-miterlimit="10"/>
<path d="M836.088 300.075L828.116 305.61V357.46L836.088 351.926V300.075Z" fill="#D8A543" stroke="black" stroke-width="0.5" stroke-miterlimit="10"/>
<path d="M823.61 354.348L828.116 357.46V305.61L823.61 302.325V354.348Z" fill="#D8A543" stroke="black" stroke-width="0.5" stroke-miterlimit="10"/>
<path d="M832.622 297.55L836.297 300.179L731.69 372.403L727.981 369.809L832.622 297.55Z" fill="#D8A543" stroke="black" stroke-width="0.5" stroke-miterlimit="10"/>
<path d="M759.349 348.467L728.223 369.878L727.045 369.117L758.17 347.706L759.349 348.467Z" fill="#823A45"/>
<path d="M781.151 333.351L759.349 348.467L758.17 347.706L779.972 332.59L781.151 333.351Z" fill="#823A45"/>
<path d="M802.952 318.235L781.151 333.351L779.972 332.59L801.774 317.439L802.952 318.235Z" fill="#823A45"/>
<path d="M832.761 297.446L802.952 318.235L801.774 317.439L831.582 296.685L832.761 297.446Z" fill="#823A45"/>
<path d="M728.223 376.035L727.045 375.239V369.117L728.223 369.878V376.035Z" fill="#823A45"/>
<path d="M728.05 358.532L747.946 344.938V357.356C747.946 357.598 748.084 357.771 748.292 357.771C748.5 357.771 748.639 357.598 748.639 357.356V344.454L759.21 337.121V349.539C759.21 349.781 759.384 349.954 759.557 349.954C759.765 349.954 759.904 349.781 759.904 349.539V336.637L770.441 329.338V341.756C770.441 341.998 770.579 342.171 770.787 342.171C770.995 342.171 771.134 341.998 771.134 341.756V328.854L773.213 327.401L781.671 321.521V333.939C781.671 334.181 781.809 334.354 782.017 334.354C782.225 334.354 782.364 334.181 782.364 333.939V321.037L792.936 313.704V326.122C792.936 326.364 793.074 326.537 793.282 326.537C793.49 326.537 793.629 326.364 793.629 326.122V313.219L804.2 305.886V318.304C804.2 318.546 804.374 318.719 804.547 318.719C804.755 318.719 804.894 318.546 804.894 318.304V305.402L815.465 298.069V310.487C815.465 310.729 815.604 310.902 815.812 310.902C815.95 310.902 816.089 310.798 816.124 310.625C816.158 310.591 816.158 310.521 816.158 310.452V297.585L826.73 290.217V302.635C826.73 302.877 826.903 303.05 827.077 303.05C827.285 303.05 827.423 302.877 827.423 302.635V289.733L829.503 288.315C829.33 287.9 829.226 287.45 829.295 287L772.694 326.294L725.035 359.19C725.035 359.674 725.035 360.158 725 360.677L727.357 359.051L728.05 358.532Z" fill="black"/>
</g>
<g clip-path="url(#clip2_582_4439)">
<path d="M734.688 431.639L723.527 439.387V430.774L734.688 423.026V431.639Z" fill="#823A45" stroke="black" stroke-width="0.5" stroke-miterlimit="10"/>
<path d="M717.565 426.624L723.527 430.774L734.688 423.026L728.726 418.875L717.565 426.624Z" fill="#823A45" stroke="black" stroke-width="0.5" stroke-miterlimit="10"/>
<path d="M717.565 435.236L723.527 439.387V430.774L717.565 426.624V435.236Z" fill="#823A45" stroke="black" stroke-width="0.5" stroke-miterlimit="10"/>
<path d="M732.088 372.075L724.116 377.61V429.46L732.088 423.926V372.075Z" fill="#D8A543" stroke="black" stroke-width="0.5" stroke-miterlimit="10"/>
<path d="M719.61 426.348L724.116 429.46V377.61L719.61 374.325V426.348Z" fill="#D8A543" stroke="black" stroke-width="0.5" stroke-miterlimit="10"/>
<path d="M728.622 369.55L732.297 372.179L627.69 444.403L623.981 441.809L728.622 369.55Z" fill="#D8A543" stroke="black" stroke-width="0.5" stroke-miterlimit="10"/>
<path d="M655.349 420.467L624.223 441.878L623.045 441.117L654.17 419.706L655.349 420.467Z" fill="#823A45"/>
<path d="M677.151 405.351L655.349 420.467L654.17 419.706L675.972 404.59L677.151 405.351Z" fill="#823A45"/>
<path d="M698.952 390.235L677.151 405.351L675.972 404.59L697.774 389.439L698.952 390.235Z" fill="#823A45"/>
<path d="M728.761 369.446L698.952 390.235L697.774 389.439L727.582 368.685L728.761 369.446Z" fill="#823A45"/>
<path d="M624.223 448.035L623.045 447.239V441.117L624.223 441.878V448.035Z" fill="#823A45"/>
<path d="M624.05 430.532L643.946 416.938V429.356C643.946 429.598 644.084 429.771 644.292 429.771C644.5 429.771 644.639 429.598 644.639 429.356V416.454L655.21 409.121V421.539C655.21 421.781 655.384 421.954 655.557 421.954C655.765 421.954 655.904 421.781 655.904 421.539V408.637L666.441 401.338V413.756C666.441 413.998 666.579 414.171 666.787 414.171C666.995 414.171 667.134 413.998 667.134 413.756V400.854L669.213 399.401L677.671 393.521V405.939C677.671 406.181 677.809 406.354 678.017 406.354C678.225 406.354 678.364 406.181 678.364 405.939V393.037L688.936 385.704V398.122C688.936 398.364 689.074 398.537 689.282 398.537C689.49 398.537 689.629 398.364 689.629 398.122V385.219L700.2 377.886V390.304C700.2 390.546 700.374 390.719 700.547 390.719C700.755 390.719 700.894 390.546 700.894 390.304V377.402L711.465 370.069V382.487C711.465 382.729 711.604 382.902 711.812 382.902C711.95 382.902 712.089 382.798 712.124 382.625C712.158 382.591 712.158 382.521 712.158 382.452V369.585L722.73 362.217V374.635C722.73 374.877 722.903 375.05 723.077 375.05C723.285 375.05 723.423 374.877 723.423 374.635V361.733L725.503 360.315C725.33 359.9 725.226 359.45 725.295 359L668.694 398.294L621.035 431.19C621.035 431.674 621.035 432.158 621 432.677L623.357 431.051L624.05 430.532Z" fill="black"/>
</g>
<g clip-path="url(#clip3_582_4439)">
<path d="M630.688 503.639L619.527 511.387V502.774L630.688 495.026V503.639Z" fill="#823A45" stroke="black" stroke-width="0.5" stroke-miterlimit="10"/>
<path d="M613.565 498.624L619.527 502.774L630.688 495.026L624.726 490.875L613.565 498.624Z" fill="#823A45" stroke="black" stroke-width="0.5" stroke-miterlimit="10"/>
<path d="M613.565 507.236L619.527 511.387V502.774L613.565 498.624V507.236Z" fill="#823A45" stroke="black" stroke-width="0.5" stroke-miterlimit="10"/>
<path d="M628.088 444.075L620.116 449.61V501.46L628.088 495.926V444.075Z" fill="#D8A543" stroke="black" stroke-width="0.5" stroke-miterlimit="10"/>
<path d="M615.61 498.348L620.116 501.46V449.61L615.61 446.325V498.348Z" fill="#D8A543" stroke="black" stroke-width="0.5" stroke-miterlimit="10"/>
<path d="M624.622 441.55L628.297 444.179L523.69 516.403L519.981 513.809L624.622 441.55Z" fill="#D8A543" stroke="black" stroke-width="0.5" stroke-miterlimit="10"/>
<path d="M551.349 492.467L520.223 513.878L519.045 513.117L550.17 491.706L551.349 492.467Z" fill="#823A45"/>
<path d="M573.151 477.351L551.349 492.467L550.17 491.706L571.972 476.59L573.151 477.351Z" fill="#823A45"/>
<path d="M594.952 462.235L573.151 477.351L571.972 476.59L593.774 461.439L594.952 462.235Z" fill="#823A45"/>
<path d="M624.761 441.446L594.952 462.235L593.774 461.439L623.582 440.685L624.761 441.446Z" fill="#823A45"/>
<path d="M520.223 520.035L519.045 519.239V513.117L520.223 513.878V520.035Z" fill="#823A45"/>
<path d="M520.05 502.532L539.946 488.938V501.356C539.946 501.598 540.084 501.771 540.292 501.771C540.5 501.771 540.639 501.598 540.639 501.356V488.454L551.21 481.121V493.539C551.21 493.781 551.384 493.954 551.557 493.954C551.765 493.954 551.904 493.781 551.904 493.539V480.637L562.441 473.338V485.756C562.441 485.998 562.579 486.171 562.787 486.171C562.995 486.171 563.134 485.998 563.134 485.756V472.854L565.213 471.401L573.671 465.521V477.939C573.671 478.181 573.809 478.354 574.017 478.354C574.225 478.354 574.364 478.181 574.364 477.939V465.037L584.936 457.704V470.122C584.936 470.364 585.074 470.537 585.282 470.537C585.49 470.537 585.629 470.364 585.629 470.122V457.219L596.2 449.886V462.304C596.2 462.546 596.374 462.719 596.547 462.719C596.755 462.719 596.894 462.546 596.894 462.304V449.402L607.465 442.069V454.487C607.465 454.729 607.604 454.902 607.812 454.902C607.95 454.902 608.089 454.798 608.124 454.625C608.158 454.591 608.158 454.521 608.158 454.452V441.585L618.73 434.217V446.635C618.73 446.877 618.903 447.05 619.077 447.05C619.285 447.05 619.423 446.877 619.423 446.635V433.733L621.503 432.315C621.33 431.9 621.226 431.45 621.295 431L564.694 470.294L517.035 503.19C517.035 503.674 517.035 504.158 517 504.677L519.357 503.051L520.05 502.532Z" fill="black"/>
</g>
<g clip-path="url(#clip4_582_4439)">
<path d="M509.565 570.624L515.527 574.774L526.688 567.026L520.726 562.875L509.565 570.624Z" fill="#823A45" stroke="black" stroke-width="0.5" stroke-miterlimit="10"/>
<path d="M524.088 516.075L516.116 521.61V573.46L524.088 567.926V516.075Z" fill="#D8A543" stroke="black" stroke-width="0.5" stroke-miterlimit="10"/>
<path d="M511.61 570.348L516.116 573.46V521.61L511.61 518.325V570.348Z" fill="#D8A543" stroke="black" stroke-width="0.5" stroke-miterlimit="10"/>
<path d="M520.622 513.55L524.297 516.179L419.69 588.403L415.981 585.809L520.622 513.55Z" fill="#D8A543" stroke="black" stroke-width="0.5" stroke-miterlimit="10"/>
<path d="M447.349 564.467L416.223 585.878L415.045 585.117L446.17 563.706L447.349 564.467Z" fill="#823A45"/>
<path d="M469.151 549.351L447.349 564.467L446.17 563.706L467.972 548.59L469.151 549.351Z" fill="#823A45"/>
<path d="M490.952 534.235L469.151 549.351L467.972 548.59L489.774 533.439L490.952 534.235Z" fill="#823A45"/>
<path d="M520.761 513.446L490.952 534.235L489.774 533.439L519.582 512.685L520.761 513.446Z" fill="#823A45"/>
<path d="M416.05 574.532L435.946 560.938V573.356C435.946 573.598 436.084 573.771 436.292 573.771C436.5 573.771 436.639 573.598 436.639 573.356V560.454L447.21 553.121V565.539C447.21 565.781 447.384 565.954 447.557 565.954C447.765 565.954 447.904 565.781 447.904 565.539V552.637L458.441 545.338V557.756C458.441 557.998 458.579 558.171 458.787 558.171C458.995 558.171 459.134 557.998 459.134 557.756V544.854L461.213 543.401L469.671 537.521V549.939C469.671 550.181 469.809 550.354 470.017 550.354C470.225 550.354 470.364 550.181 470.364 549.939V537.037L480.936 529.704V542.122C480.936 542.364 481.074 542.537 481.282 542.537C481.49 542.537 481.629 542.364 481.629 542.122V529.219L492.2 521.886V534.304C492.2 534.546 492.374 534.719 492.547 534.719C492.755 534.719 492.894 534.546 492.894 534.304V521.402L503.465 514.069V526.487C503.465 526.729 503.604 526.902 503.812 526.902C503.95 526.902 504.089 526.798 504.124 526.625C504.158 526.591 504.158 526.521 504.158 526.452V513.585L514.73 506.217V518.635C514.73 518.877 514.903 519.05 515.077 519.05C515.285 519.05 515.423 518.877 515.423 518.635V505.733L517.503 504.315C517.33 503.9 517.226 503.45 517.295 503L460.694 542.294L413.035 575.19C413.035 575.674 413.035 576.158 413 576.677L415.357 575.051L416.05 574.532Z" fill="black"/>
</g>
<path d="M1298.04 20.863L14.042 892.137" stroke="#D8A543" stroke-width="50"/>
<path d="M1284.45 27.1711L11.9998 894.999" stroke="#F4BC51" stroke-width="5" stroke-dasharray="25 25"/>
<path d="M1327.04 48.863L43.042 920.137" stroke="#D8A543" stroke-width="50"/>
<path d="M1313.45 55.1711L40.9998 922.999" stroke="#F4BC51" stroke-width="5" stroke-dasharray="25 25"/>
<path d="M449 571.5L449.5 567.75L900.5 255.5L900 260L449 571.5Z" fill="#D8A543" stroke="black" stroke-width="0.5"/>
<g clip-path="url(#clip5_582_4439)">
<path d="M907.72 434.202L895.442 442.563V433.239L907.72 424.844V434.202Z" fill="#823A45" stroke="black" stroke-width="0.5" stroke-miterlimit="10"/>
<path d="M888.901 428.731L895.442 433.239L907.72 424.843L901.179 420.336L888.901 428.731Z" fill="#823A45" stroke="black" stroke-width="0.5" stroke-miterlimit="10"/>
<path d="M888.901 438.09L895.442 442.563V433.239L888.901 428.732V438.09Z" fill="#823A45" stroke="black" stroke-width="0.5" stroke-miterlimit="10"/>
<path d="M904.852 369.689L896.107 375.676V431.794L904.852 425.841V369.689Z" fill="#D8A543" stroke="black" stroke-width="0.5" stroke-miterlimit="10"/>
<path d="M902.893 373.543L898.066 376.846V427.906L902.893 424.603V373.543Z" fill="#823A45" stroke="black" stroke-width="0.5" stroke-miterlimit="10"/>
<path d="M890.755 428.147L896.107 431.794V375.676L890.755 371.822V428.147Z" fill="#D8A543" stroke="black" stroke-width="0.5" stroke-miterlimit="10"/>
<path d="M899.465 365.87L904.852 369.689L896.107 375.676L890.755 371.822L899.465 365.87Z" fill="#D8A543" stroke="black" stroke-width="0.5" stroke-miterlimit="10"/>
<path d="M898.066 428.078C898.031 428.078 898.031 428.078 897.996 428.043C897.961 428.009 897.926 427.975 897.926 427.906V426.805C897.926 426.736 897.961 426.701 897.996 426.667L901.948 423.983V374.093C901.948 374.024 901.983 373.99 902.018 373.955L902.823 373.405C902.858 373.371 902.928 373.371 902.963 373.405C902.998 373.439 903.033 373.474 903.033 373.543V424.637C903.033 424.706 902.998 424.74 902.963 424.775L898.136 428.078C898.101 428.078 898.101 428.078 898.066 428.078ZM898.206 426.908V427.665L902.753 424.534V373.783L902.193 374.162V424.052C902.193 424.121 902.158 424.155 902.123 424.19L898.206 426.908Z" fill="black"/>
<path d="M824.328 431.312L800.401 447.69V441.015L824.328 424.637V431.312Z" fill="#D8A543"/>
<path d="M824.328 431.312L800.401 447.69V441.015L824.328 424.637V431.312Z" stroke="black" stroke-width="0.5" stroke-miterlimit="10"/>
<path d="M848.289 414.934L824.328 431.312V424.637L848.289 408.259V414.934Z" fill="#D8A543"/>
<path d="M848.289 414.934L824.328 431.312V424.637L848.289 408.259V414.934Z" stroke="black" stroke-width="0.5" stroke-miterlimit="10"/>
<path d="M872.215 398.557L848.289 414.934V408.259L872.215 391.882V398.557Z" fill="#D8A543"/>
<path d="M872.215 398.557L848.289 414.934V408.259L872.215 391.882V398.557Z" stroke="black" stroke-width="0.5" stroke-miterlimit="10"/>
<path d="M896.177 382.179L872.215 398.557V391.882L896.177 375.504V382.179Z" fill="#D8A543"/>
<path d="M896.177 382.179L872.215 398.557V391.882L896.177 375.504V382.179Z" stroke="black" stroke-width="0.5" stroke-miterlimit="10"/>
<path d="M890.825 371.822L894.847 374.678L799.107 440.189L795.014 437.333L890.825 371.822Z" fill="#D8A543" stroke="black" stroke-width="0.5" stroke-miterlimit="10"/>
<path d="M797.358 424.637L808.971 416.689V430.142C808.971 430.383 809.146 430.59 809.356 430.59C809.566 430.59 809.741 430.383 809.741 430.142V416.173L821.354 408.225V421.678C821.354 421.919 821.529 422.125 821.739 422.125C821.949 422.125 822.124 421.919 822.124 421.678V407.709L833.702 399.795V413.214C833.702 413.455 833.877 413.661 834.087 413.661C834.297 413.661 834.472 413.455 834.472 413.214V399.245L836.746 397.696L846.05 391.331V404.75C846.05 404.991 846.225 405.197 846.435 405.197C846.645 405.197 846.82 404.991 846.82 404.75V390.781L858.363 382.901V396.355C858.363 396.595 858.538 396.802 858.748 396.802C858.958 396.802 859.133 396.595 859.133 396.355V382.385L870.746 374.437V387.89C870.746 388.131 870.921 388.338 871.131 388.338C871.341 388.338 871.516 388.131 871.516 387.89V373.921L883.129 365.973V379.426C883.129 379.667 883.304 379.874 883.514 379.874C883.689 379.874 883.829 379.736 883.864 379.564C883.899 379.495 883.899 379.461 883.899 379.392V365.457L895.512 357.509V370.962C895.512 371.203 895.687 371.409 895.897 371.409C896.107 371.409 896.282 371.203 896.282 370.962V356.959L898.555 355.41C898.346 354.963 898.276 354.481 898.346 354L836.151 396.561L794.035 425.36C794.035 425.876 794.035 426.426 794 426.977L796.589 425.222L797.358 424.637Z" fill="black"/>
<path d="M824.328 424.637L800.401 441.015L799.107 440.189L823.034 423.812L824.328 424.637Z" fill="#823A45"/>
<path d="M848.289 408.259L824.328 424.637L823.033 423.811L846.96 407.434L848.289 408.259Z" fill="#823A45"/>
<path d="M872.216 391.882L848.289 408.259L846.96 407.434L870.921 391.056L872.216 391.882Z" fill="#823A45"/>
<path d="M896.177 375.504L872.215 391.882L870.921 391.056L894.847 374.678L896.177 375.504Z" fill="#823A45"/>
<path d="M800.401 447.69L799.107 446.83V440.189L800.401 441.015V447.69Z" fill="#823A45"/>
</g>
<g clip-path="url(#clip6_582_4439)">
<path d="M805.72 504.202L793.442 512.563V503.239L805.72 494.844V504.202Z" fill="#823A45" stroke="black" stroke-width="0.5" stroke-miterlimit="10"/>
<path d="M786.901 498.731L793.442 503.239L805.72 494.843L799.179 490.336L786.901 498.731Z" fill="#823A45" stroke="black" stroke-width="0.5" stroke-miterlimit="10"/>
<path d="M786.901 508.09L793.442 512.563V503.239L786.901 498.732V508.09Z" fill="#823A45" stroke="black" stroke-width="0.5" stroke-miterlimit="10"/>
<path d="M802.852 439.689L794.107 445.676V501.794L802.852 495.841V439.689Z" fill="#D8A543" stroke="black" stroke-width="0.5" stroke-miterlimit="10"/>
<path d="M800.893 443.543L796.066 446.846V497.906L800.893 494.603V443.543Z" fill="#823A45" stroke="black" stroke-width="0.5" stroke-miterlimit="10"/>
<path d="M788.755 498.147L794.107 501.794V445.676L788.755 441.822V498.147Z" fill="#D8A543" stroke="black" stroke-width="0.5" stroke-miterlimit="10"/>
<path d="M797.465 435.87L802.852 439.689L794.107 445.676L788.755 441.822L797.465 435.87Z" fill="#D8A543" stroke="black" stroke-width="0.5" stroke-miterlimit="10"/>
<path d="M800.088 444.093V494.052L796.066 496.805V497.906L800.893 494.603V443.542L800.088 444.093Z" fill="black"/>
<path d="M796.066 498.078C796.031 498.078 796.031 498.078 795.996 498.043C795.961 498.009 795.926 497.975 795.926 497.906V496.805C795.926 496.736 795.961 496.701 795.996 496.667L799.948 493.983V444.093C799.948 444.024 799.983 443.99 800.018 443.955L800.823 443.405C800.858 443.371 800.928 443.371 800.963 443.405C800.998 443.439 801.033 443.474 801.033 443.543V494.637C801.033 494.706 800.998 494.74 800.963 494.775L796.136 498.078C796.101 498.078 796.101 498.078 796.066 498.078ZM796.206 496.908V497.665L800.753 494.534V443.783L800.193 444.162V494.052C800.193 494.121 800.158 494.155 800.123 494.19L796.206 496.908Z" fill="black"/>
<path d="M722.328 501.312L698.401 517.69V511.015L722.328 494.637V501.312Z" fill="#D8A543"/>
<path d="M722.328 501.312L698.401 517.69V511.015L722.328 494.637V501.312Z" stroke="black" stroke-width="0.5" stroke-miterlimit="10"/>
<path d="M746.289 484.934L722.328 501.312V494.637L746.289 478.259V484.934Z" fill="#D8A543"/>
<path d="M746.289 484.934L722.328 501.312V494.637L746.289 478.259V484.934Z" stroke="black" stroke-width="0.5" stroke-miterlimit="10"/>
<path d="M770.215 468.557L746.289 484.934V478.259L770.215 461.882V468.557Z" fill="#D8A543"/>
<path d="M770.215 468.557L746.289 484.934V478.259L770.215 461.882V468.557Z" stroke="black" stroke-width="0.5" stroke-miterlimit="10"/>
<path d="M794.177 452.179L770.215 468.557V461.882L794.177 445.504V452.179Z" fill="#D8A543"/>
<path d="M794.177 452.179L770.215 468.557V461.882L794.177 445.504V452.179Z" stroke="black" stroke-width="0.5" stroke-miterlimit="10"/>
<path d="M788.825 441.822L792.847 444.678L697.107 510.189L693.014 507.333L788.825 441.822Z" fill="#D8A543" stroke="black" stroke-width="0.5" stroke-miterlimit="10"/>
<path d="M695.358 494.637L706.971 486.689V500.142C706.971 500.383 707.146 500.59 707.356 500.59C707.566 500.59 707.741 500.383 707.741 500.142V486.173L719.354 478.225V491.678C719.354 491.919 719.529 492.125 719.739 492.125C719.949 492.125 720.124 491.919 720.124 491.678V477.709L731.702 469.795V483.214C731.702 483.455 731.877 483.661 732.087 483.661C732.297 483.661 732.472 483.455 732.472 483.214V469.245L734.746 467.696L744.05 461.331V474.75C744.05 474.991 744.225 475.197 744.435 475.197C744.645 475.197 744.82 474.991 744.82 474.75V460.781L756.363 452.901V466.355C756.363 466.595 756.538 466.802 756.748 466.802C756.958 466.802 757.133 466.595 757.133 466.355V452.385L768.746 444.437V457.89C768.746 458.131 768.921 458.338 769.131 458.338C769.341 458.338 769.516 458.131 769.516 457.89V443.921L781.129 435.973V449.426C781.129 449.667 781.304 449.874 781.514 449.874C781.689 449.874 781.829 449.736 781.864 449.564C781.899 449.495 781.899 449.461 781.899 449.392V435.457L793.512 427.509V440.962C793.512 441.203 793.687 441.409 793.897 441.409C794.107 441.409 794.282 441.203 794.282 440.962V426.959L796.555 425.41C796.346 424.963 796.276 424.481 796.346 424L734.151 466.561L692.035 495.36C692.035 495.876 692.035 496.426 692 496.977L694.589 495.222L695.358 494.637Z" fill="black"/>
<path d="M722.328 494.637L698.401 511.015L697.107 510.189L721.034 493.812L722.328 494.637Z" fill="#823A45"/>
<path d="M746.289 478.259L722.328 494.637L721.033 493.811L744.96 477.434L746.289 478.259Z" fill="#823A45"/>
<path d="M770.216 461.882L746.289 478.259L744.96 477.434L768.921 461.056L770.216 461.882Z" fill="#823A45"/>
<path d="M794.177 445.504L770.215 461.882L768.921 461.056L792.847 444.678L794.177 445.504Z" fill="#823A45"/>
<path d="M698.401 517.69L697.107 516.83V510.189L698.401 511.015V517.69Z" fill="#823A45"/>
</g>
<g clip-path="url(#clip7_582_4439)">
<path d="M701.72 575.202L689.442 583.563V574.239L701.72 565.844V575.202Z" fill="#823A45" stroke="black" stroke-width="0.5" stroke-miterlimit="10"/>
<path d="M682.901 569.731L689.442 574.239L701.72 565.843L695.179 561.336L682.901 569.731Z" fill="#823A45" stroke="black" stroke-width="0.5" stroke-miterlimit="10"/>
<path d="M698.852 510.689L690.107 516.676V572.794L698.852 566.841V510.689Z" fill="#D8A543" stroke="black" stroke-width="0.5" stroke-miterlimit="10"/>
<path d="M696.893 514.543L692.066 517.846V568.906L696.893 565.603V514.543Z" fill="#823A45" stroke="black" stroke-width="0.5" stroke-miterlimit="10"/>
<path d="M684.755 569.147L690.107 572.794V516.676L684.755 512.822V569.147Z" fill="#D8A543" stroke="black" stroke-width="0.5" stroke-miterlimit="10"/>
<path d="M693.465 506.87L698.852 510.689L690.107 516.676L684.755 512.822L693.465 506.87Z" fill="#D8A543" stroke="black" stroke-width="0.5" stroke-miterlimit="10"/>
<path d="M696.088 515.093V565.052L692.066 567.805V568.906L696.893 565.603V514.542L696.088 515.093Z" fill="black"/>
<path d="M692.066 569.078C692.031 569.078 692.031 569.078 691.996 569.043C691.961 569.009 691.926 568.975 691.926 568.906V567.805C691.926 567.736 691.961 567.701 691.996 567.667L695.948 564.983V515.093C695.948 515.024 695.983 514.99 696.018 514.955L696.823 514.405C696.858 514.371 696.928 514.371 696.963 514.405C696.998 514.439 697.033 514.474 697.033 514.543V565.637C697.033 565.706 696.998 565.74 696.963 565.775L692.136 569.078C692.101 569.078 692.101 569.078 692.066 569.078ZM692.206 567.908V568.665L696.753 565.534V514.783L696.193 515.162V565.052C696.193 565.121 696.158 565.155 696.123 565.19L692.206 567.908Z" fill="black"/>
<path d="M618.328 572.312L594.401 588.69V582.015L618.328 565.637V572.312Z" fill="#D8A543"/>
<path d="M618.328 572.312L594.401 588.69V582.015L618.328 565.637V572.312Z" stroke="black" stroke-width="0.5" stroke-miterlimit="10"/>
<path d="M642.289 555.934L618.328 572.312V565.637L642.289 549.259V555.934Z" fill="#D8A543"/>
<path d="M642.289 555.934L618.328 572.312V565.637L642.289 549.259V555.934Z" stroke="black" stroke-width="0.5" stroke-miterlimit="10"/>
<path d="M666.215 539.557L642.289 555.934V549.259L666.215 532.882V539.557Z" fill="#D8A543"/>
<path d="M666.215 539.557L642.289 555.934V549.259L666.215 532.882V539.557Z" stroke="black" stroke-width="0.5" stroke-miterlimit="10"/>
<path d="M690.177 523.179L666.215 539.557V532.882L690.177 516.504V523.179Z" fill="#D8A543"/>
<path d="M690.177 523.179L666.215 539.557V532.882L690.177 516.504V523.179Z" stroke="black" stroke-width="0.5" stroke-miterlimit="10"/>
<path d="M684.825 512.822L688.847 515.678L593.107 581.189L589.014 578.333L684.825 512.822Z" fill="#D8A543" stroke="black" stroke-width="0.5" stroke-miterlimit="10"/>
<path d="M591.358 565.637L602.971 557.689V571.142C602.971 571.383 603.146 571.59 603.356 571.59C603.566 571.59 603.741 571.383 603.741 571.142V557.173L615.354 549.225V562.678C615.354 562.919 615.529 563.125 615.739 563.125C615.949 563.125 616.124 562.919 616.124 562.678V548.709L627.702 540.795V554.214C627.702 554.455 627.877 554.661 628.087 554.661C628.297 554.661 628.472 554.455 628.472 554.214V540.245L630.746 538.696L640.05 532.331V545.75C640.05 545.991 640.225 546.197 640.435 546.197C640.645 546.197 640.82 545.991 640.82 545.75V531.781L652.363 523.901V537.355C652.363 537.595 652.538 537.802 652.748 537.802C652.958 537.802 653.133 537.595 653.133 537.355V523.385L664.746 515.437V528.89C664.746 529.131 664.921 529.338 665.131 529.338C665.341 529.338 665.516 529.131 665.516 528.89V514.921L677.129 506.973V520.426C677.129 520.667 677.304 520.874 677.514 520.874C677.689 520.874 677.829 520.736 677.864 520.564C677.899 520.495 677.899 520.461 677.899 520.392V506.457L689.512 498.509V511.962C689.512 512.203 689.687 512.409 689.897 512.409C690.107 512.409 690.282 512.203 690.282 511.962V497.959L692.555 496.41C692.346 495.963 692.276 495.481 692.346 495L630.151 537.561L588.035 566.36C588.035 566.876 588.035 567.426 588 567.977L590.589 566.222L591.358 565.637Z" fill="black"/>
<path d="M618.328 565.637L594.401 582.015L593.107 581.189L617.034 564.812L618.328 565.637Z" fill="#823A45"/>
<path d="M642.289 549.259L618.328 565.637L617.033 564.811L640.96 548.434L642.289 549.259Z" fill="#823A45"/>
<path d="M666.216 532.882L642.289 549.259L640.96 548.434L664.921 532.056L666.216 532.882Z" fill="#823A45"/>
<path d="M690.177 516.504L666.215 532.882L664.921 532.056L688.847 515.678L690.177 516.504Z" fill="#823A45"/>
</g>
<path d="M528.084 474.636H527.006V510.452L527.545 510.636L528.084 510.452V474.636Z" fill="#545454" stroke="black" stroke-width="0.2"/>
<path d="M534.012 471.801L527.539 476.458V475.038L534.012 470.459V471.801Z" fill="#545454" stroke="black" stroke-width="0.2"/>
<path d="M527.539 476.458L520.988 471.801V470.459L527.539 475.038V476.458Z" fill="#545454" stroke="black" stroke-width="0.2"/>
<path d="M534.012 470.459L527.539 475.116L520.988 470.459L527.539 465.723L534.012 470.459Z" fill="#545454" stroke="black" stroke-width="0.2"/>
<path d="M533.293 470.909V460.909H521.796V470.909L527.545 474.818L533.293 470.909Z" fill="#D8A543" stroke="black" stroke-width="0.2"/>
<path d="M521.796 460.909V470.909L527.545 474.818V460.909H521.796Z" fill="#F4BC51" stroke="black" stroke-width="0.2"/>
<path d="M527.545 467.364L520 462V460.455L527.545 465.727V467.364Z" fill="#545454" stroke="black" stroke-width="0.2"/>
<path d="M535 462L527.545 467.364V465.727L535 460.455V462Z" fill="#545454" stroke="black" stroke-width="0.2"/>
<path d="M535 460.455L527.545 465.818L520 460.455L527.545 455L535 460.455Z" fill="#545454" stroke="black" stroke-width="0.2"/>
<path d="M522.695 460.636V458.636L527.545 462.182V464.182L522.695 460.636Z" fill="#545454" stroke="black" stroke-width="0.2"/>
<path d="M532.485 460.636V458.636L527.545 462.182V464.091L532.485 460.636Z" fill="#545454" stroke="black" stroke-width="0.2"/>
<path d="M522.695 458.636L527.545 462.182L532.485 458.636L527.545 455.091L522.695 458.636Z" fill="#545454" stroke="black" stroke-width="0.2"/>
<path d="M632.084 402.636H631.006V438.452L631.545 438.636L632.084 438.452V402.636Z" fill="#545454" stroke="black" stroke-width="0.2"/>
<path d="M638.012 399.801L631.539 404.458V403.038L638.012 398.459V399.801Z" fill="#545454" stroke="black" stroke-width="0.2"/>
<path d="M631.539 404.458L624.988 399.801V398.459L631.539 403.038V404.458Z" fill="#545454" stroke="black" stroke-width="0.2"/>
<path d="M638.012 398.459L631.539 403.116L624.988 398.459L631.539 393.723L638.012 398.459Z" fill="#545454" stroke="black" stroke-width="0.2"/>
<path d="M637.293 398.909V388.909H625.796V398.909L631.545 402.818L637.293 398.909Z" fill="#D8A543" stroke="black" stroke-width="0.2"/>
<path d="M625.796 388.909V398.909L631.545 402.818V388.909H625.796Z" fill="#F4BC51" stroke="black" stroke-width="0.2"/>
<path d="M631.545 395.364L624 390V388.455L631.545 393.727V395.364Z" fill="#545454" stroke="black" stroke-width="0.2"/>
<path d="M639 390L631.545 395.364V393.727L639 388.455V390Z" fill="#545454" stroke="black" stroke-width="0.2"/>
<path d="M639 388.455L631.545 393.818L624 388.455L631.545 383L639 388.455Z" fill="#545454" stroke="black" stroke-width="0.2"/>
<path d="M626.695 388.636V386.636L631.545 390.182V392.182L626.695 388.636Z" fill="#545454" stroke="black" stroke-width="0.2"/>
<path d="M636.485 388.636V386.636L631.545 390.182V392.091L636.485 388.636Z" fill="#545454" stroke="black" stroke-width="0.2"/>
<path d="M626.695 386.636L631.545 390.182L636.485 386.636L631.545 383.091L626.695 386.636Z" fill="#545454" stroke="black" stroke-width="0.2"/>
<path d="M735.084 330.636H734.006V366.452L734.545 366.636L735.084 366.452V330.636Z" fill="#545454" stroke="black" stroke-width="0.2"/>
<path d="M741.012 327.801L734.539 332.458V331.038L741.012 326.459V327.801Z" fill="#545454" stroke="black" stroke-width="0.2"/>
<path d="M734.539 332.458L727.988 327.801V326.459L734.539 331.038V332.458Z" fill="#545454" stroke="black" stroke-width="0.2"/>
<path d="M741.012 326.459L734.539 331.116L727.988 326.459L734.539 321.723L741.012 326.459Z" fill="#545454" stroke="black" stroke-width="0.2"/>
<path d="M740.293 326.909V316.909H728.796V326.909L734.545 330.818L740.293 326.909Z" fill="#D8A543" stroke="black" stroke-width="0.2"/>
<path d="M728.796 316.909V326.909L734.545 330.818V316.909H728.796Z" fill="#F4BC51" stroke="black" stroke-width="0.2"/>
<path d="M734.545 323.364L727 318V316.455L734.545 321.727V323.364Z" fill="#545454" stroke="black" stroke-width="0.2"/>
<path d="M742 318L734.545 323.364V321.727L742 316.455V318Z" fill="#545454" stroke="black" stroke-width="0.2"/>
<path d="M742 316.455L734.545 321.818L727 316.455L734.545 311L742 316.455Z" fill="#545454" stroke="black" stroke-width="0.2"/>
<path d="M729.695 316.636V314.636L734.545 318.182V320.182L729.695 316.636Z" fill="#545454" stroke="black" stroke-width="0.2"/>
<path d="M739.485 316.636V314.636L734.545 318.182V320.091L739.485 316.636Z" fill="#545454" stroke="black" stroke-width="0.2"/>
<path d="M729.695 314.636L734.545 318.182L739.485 314.636L734.545 311.091L729.695 314.636Z" fill="#545454" stroke="black" stroke-width="0.2"/>
<path d="M699.084 469.636H698.006V505.452L698.545 505.636L699.084 505.452V469.636Z" fill="#545454" stroke="black" stroke-width="0.2"/>
<path d="M705.012 466.801L698.539 471.458V470.038L705.012 465.459V466.801Z" fill="#545454" stroke="black" stroke-width="0.2"/>
<path d="M698.539 471.458L691.988 466.801V465.459L698.539 470.038V471.458Z" fill="#545454" stroke="black" stroke-width="0.2"/>
<path d="M705.012 465.459L698.539 470.116L691.988 465.459L698.539 460.723L705.012 465.459Z" fill="#545454" stroke="black" stroke-width="0.2"/>
<path d="M704.293 465.909V455.909H692.796V465.909L698.545 469.818L704.293 465.909Z" fill="#D8A543" stroke="black" stroke-width="0.2"/>
<path d="M692.796 455.909V465.909L698.545 469.818V455.909H692.796Z" fill="#F4BC51" stroke="black" stroke-width="0.2"/>
<path d="M698.545 462.364L691 457V455.455L698.545 460.727V462.364Z" fill="#545454" stroke="black" stroke-width="0.2"/>
<path d="M706 457L698.545 462.364V460.727L706 455.455V457Z" fill="#545454" stroke="black" stroke-width="0.2"/>
<path d="M706 455.455L698.545 460.818L691 455.455L698.545 450L706 455.455Z" fill="#545454" stroke="black" stroke-width="0.2"/>
<path d="M693.695 455.636V453.636L698.545 457.182V459.182L693.695 455.636Z" fill="#545454" stroke="black" stroke-width="0.2"/>
<path d="M703.485 455.636V453.636L698.545 457.182V459.091L703.485 455.636Z" fill="#545454" stroke="black" stroke-width="0.2"/>
<path d="M693.695 453.636L698.545 457.182L703.485 453.636L698.545 450.091L693.695 453.636Z" fill="#545454" stroke="black" stroke-width="0.2"/>
<path d="M580.084 554.636H579.006V590.452L579.545 590.636L580.084 590.452V554.636Z" fill="#545454" stroke="black" stroke-width="0.2"/>
<path d="M586.012 551.801L579.539 556.458V555.038L586.012 550.459V551.801Z" fill="#545454" stroke="black" stroke-width="0.2"/>
<path d="M579.539 556.458L572.988 551.801V550.459L579.539 555.038V556.458Z" fill="#545454" stroke="black" stroke-width="0.2"/>
<path d="M586.012 550.459L579.539 555.116L572.988 550.459L579.539 545.723L586.012 550.459Z" fill="#545454" stroke="black" stroke-width="0.2"/>
<path d="M585.293 550.909V540.909H573.796V550.909L579.545 554.818L585.293 550.909Z" fill="#D8A543" stroke="black" stroke-width="0.2"/>
<path d="M573.796 540.909V550.909L579.545 554.818V540.909H573.796Z" fill="#F4BC51" stroke="black" stroke-width="0.2"/>
<path d="M579.545 547.364L572 542V540.455L579.545 545.727V547.364Z" fill="#545454" stroke="black" stroke-width="0.2"/>
<path d="M587 542L579.545 547.364V545.727L587 540.455V542Z" fill="#545454" stroke="black" stroke-width="0.2"/>
<path d="M587 540.455L579.545 545.818L572 540.455L579.545 535L587 540.455Z" fill="#545454" stroke="black" stroke-width="0.2"/>
<path d="M574.695 540.636V538.636L579.545 542.182V544.182L574.695 540.636Z" fill="#545454" stroke="black" stroke-width="0.2"/>
<path d="M584.485 540.636V538.636L579.545 542.182V544.091L584.485 540.636Z" fill="#545454" stroke="black" stroke-width="0.2"/>
<path d="M574.695 538.636L579.545 542.182L584.485 538.636L579.545 535.091L574.695 538.636Z" fill="#545454" stroke="black" stroke-width="0.2"/>
<path d="M840.084 258.636H839.006V294.452L839.545 294.636L840.084 294.452V258.636Z" fill="#545454" stroke="black" stroke-width="0.2"/>
<path d="M846.012 255.801L839.539 260.458V259.038L846.012 254.459V255.801Z" fill="#545454" stroke="black" stroke-width="0.2"/>
<path d="M839.539 260.458L832.988 255.801V254.459L839.539 259.038V260.458Z" fill="#545454" stroke="black" stroke-width="0.2"/>
<path d="M846.012 254.459L839.539 259.116L832.988 254.459L839.539 249.723L846.012 254.459Z" fill="#545454" stroke="black" stroke-width="0.2"/>
<path d="M845.293 254.909V244.909H833.796V254.909L839.545 258.818L845.293 254.909Z" fill="#D8A543" stroke="black" stroke-width="0.2"/>
<path d="M833.796 244.909V254.909L839.545 258.818V244.909H833.796Z" fill="#F4BC51" stroke="black" stroke-width="0.2"/>
<path d="M839.545 251.364L832 246V244.455L839.545 249.727V251.364Z" fill="#545454" stroke="black" stroke-width="0.2"/>
<path d="M847 246L839.545 251.364V249.727L847 244.455V246Z" fill="#545454" stroke="black" stroke-width="0.2"/>
<path d="M847 244.455L839.545 249.818L832 244.455L839.545 239L847 244.455Z" fill="#545454" stroke="black" stroke-width="0.2"/>
<path d="M834.695 244.636V242.636L839.545 246.182V248.182L834.695 244.636Z" fill="#545454" stroke="black" stroke-width="0.2"/>
<path d="M844.485 244.636V242.636L839.545 246.182V248.091L844.485 244.636Z" fill="#545454" stroke="black" stroke-width="0.2"/>
<path d="M834.695 242.636L839.545 246.182L844.485 242.636L839.545 239.091L834.695 242.636Z" fill="#545454" stroke="black" stroke-width="0.2"/>
<path d="M802.084 399.636H801.006V435.452L801.545 435.636L802.084 435.452V399.636Z" fill="#545454" stroke="black" stroke-width="0.2"/>
<path d="M808.012 396.801L801.539 401.458V400.038L808.012 395.459V396.801Z" fill="#545454" stroke="black" stroke-width="0.2"/>
<path d="M801.539 401.458L794.988 396.801V395.459L801.539 400.038V401.458Z" fill="#545454" stroke="black" stroke-width="0.2"/>
<path d="M808.012 395.459L801.539 400.116L794.988 395.459L801.539 390.723L808.012 395.459Z" fill="#545454" stroke="black" stroke-width="0.2"/>
<path d="M807.293 395.909V385.909H795.796V395.909L801.545 399.818L807.293 395.909Z" fill="#D8A543" stroke="black" stroke-width="0.2"/>
<path d="M795.796 385.909V395.909L801.545 399.818V385.909H795.796Z" fill="#F4BC51" stroke="black" stroke-width="0.2"/>
<path d="M801.545 392.364L794 387V385.455L801.545 390.727V392.364Z" fill="#545454" stroke="black" stroke-width="0.2"/>
<path d="M809 387L801.545 392.364V390.727L809 385.455V387Z" fill="#545454" stroke="black" stroke-width="0.2"/>
<path d="M809 385.455L801.545 390.818L794 385.455L801.545 380L809 385.455Z" fill="#545454" stroke="black" stroke-width="0.2"/>
<path d="M796.695 385.636V383.636L801.545 387.182V389.182L796.695 385.636Z" fill="#545454" stroke="black" stroke-width="0.2"/>
<path d="M806.485 385.636V383.636L801.545 387.182V389.091L806.485 385.636Z" fill="#545454" stroke="black" stroke-width="0.2"/>
<path d="M796.695 383.636L801.545 387.182L806.485 383.636L801.545 380.091L796.695 383.636Z" fill="#545454" stroke="black" stroke-width="0.2"/>
<defs>
<clipPath id="clip0_582_4439">
<rect width="114" height="89" fill="white" transform="translate(829 215)"/>
</clipPath>
<clipPath id="clip1_582_4439">
<rect width="114" height="89" fill="white" transform="translate(725 287)"/>
</clipPath>
<clipPath id="clip2_582_4439">
<rect width="114" height="89" fill="white" transform="translate(621 359)"/>
</clipPath>
<clipPath id="clip3_582_4439">
<rect width="114" height="89" fill="white" transform="translate(517 431)"/>
</clipPath>
<clipPath id="clip4_582_4439">
<rect width="114" height="89" fill="white" transform="translate(413 503)"/>
</clipPath>
<clipPath id="clip5_582_4439">
<rect width="114" height="94" fill="white" transform="translate(794 354)"/>
</clipPath>
<clipPath id="clip6_582_4439">
<rect width="114" height="94" fill="white" transform="translate(692 424)"/>
</clipPath>
<clipPath id="clip7_582_4439">
<rect width="114" height="94" fill="white" transform="translate(588 495)"/>
</clipPath>
</defs>
</svg>
