<svg width="222" height="264" viewBox="0 0 222 264" fill="none" xmlns="http://www.w3.org/2000/svg">
<path d="M214.084 91.6365H213.006V127.452L213.545 127.636L214.084 127.452V91.6365Z" fill="#545454" stroke="black" stroke-width="0.2"/>
<path d="M220.012 88.8013L213.539 93.4584V92.0376L220.012 87.4595V88.8013Z" fill="#545454" stroke="black" stroke-width="0.2"/>
<path d="M213.539 93.4584L206.988 88.8013V87.4595L213.539 92.0376V93.4584Z" fill="#545454" stroke="black" stroke-width="0.2"/>
<path d="M220.012 87.4594L213.539 92.1164L206.988 87.4594L213.539 82.7234L220.012 87.4594Z" fill="#545454" stroke="black" stroke-width="0.2"/>
<path d="M219.293 87.9092V77.9092H207.796V87.9092L213.545 91.8183L219.293 87.9092Z" fill="#D8A543" stroke="black" stroke-width="0.2"/>
<path d="M207.796 77.9092V87.9092L213.545 91.8183V77.9092H207.796Z" fill="#F4BC51" stroke="black" stroke-width="0.2"/>
<path d="M213.545 84.3637L206 79V77.4546L213.545 82.7273V84.3637Z" fill="#545454" stroke="black" stroke-width="0.2"/>
<path d="M221 79L213.545 84.3637V82.7273L221 77.4546V79Z" fill="#545454" stroke="black" stroke-width="0.2"/>
<path d="M221 77.4545L213.545 82.8182L206 77.4545L213.545 72L221 77.4545Z" fill="#545454" stroke="black" stroke-width="0.2"/>
<path d="M208.695 77.6365V75.6365L213.545 79.1819V81.1819L208.695 77.6365Z" fill="#545454" stroke="black" stroke-width="0.2"/>
<path d="M218.485 77.6365V75.6365L213.545 79.1819V81.091L218.485 77.6365Z" fill="#545454" stroke="black" stroke-width="0.2"/>
<path d="M208.695 75.6363L213.545 79.1817L218.485 75.6363L213.545 72.0908L208.695 75.6363Z" fill="#545454" stroke="black" stroke-width="0.2"/>
<path d="M99.0838 27.6365H98.006V63.4524L98.5449 63.6365L99.0838 63.4524V27.6365Z" fill="#545454" stroke="black" stroke-width="0.2"/>
<path d="M105.012 24.8013L98.5391 29.4584V28.0376L105.012 23.4595V24.8013Z" fill="#545454" stroke="black" stroke-width="0.2"/>
<path d="M98.539 29.4584L91.988 24.8013V23.4595L98.539 28.0376V29.4584Z" fill="#545454" stroke="black" stroke-width="0.2"/>
<path d="M105.012 23.4594L98.539 28.1164L91.988 23.4594L98.539 18.7234L105.012 23.4594Z" fill="#545454" stroke="black" stroke-width="0.2"/>
<path d="M104.293 23.9092V13.9092H92.7964V23.9092L98.5449 27.8183L104.293 23.9092Z" fill="#D8A543" stroke="black" stroke-width="0.2"/>
<path d="M92.7964 13.9092V23.9092L98.5449 27.8183V13.9092H92.7964Z" fill="#F4BC51" stroke="black" stroke-width="0.2"/>
<path d="M98.5449 20.3637L91 15V13.4546L98.5449 18.7273V20.3637Z" fill="#545454" stroke="black" stroke-width="0.2"/>
<path d="M106 15L98.5449 20.3637V18.7273L106 13.4546V15Z" fill="#545454" stroke="black" stroke-width="0.2"/>
<path d="M106 13.4545L98.5449 18.8182L91 13.4545L98.5449 8L106 13.4545Z" fill="#545454" stroke="black" stroke-width="0.2"/>
<path d="M93.6946 13.6365V11.6365L98.5449 15.1819V17.1819L93.6946 13.6365Z" fill="#545454" stroke="black" stroke-width="0.2"/>
<path d="M103.485 13.6365V11.6365L98.5449 15.1819V17.091L103.485 13.6365Z" fill="#545454" stroke="black" stroke-width="0.2"/>
<path d="M93.6946 11.6363L98.5449 15.1817L103.485 11.6363L98.5449 8.09082L93.6946 11.6363Z" fill="#545454" stroke="black" stroke-width="0.2"/>
<path d="M41.0194 203.417L53.0824 211.911M41.0194 203.417L43.1849 201.872M41.0194 203.417L38.854 204.961M53.0824 211.911L55.2478 210.367M53.0824 211.911L50.9169 213.456" stroke="#AE4E5C" stroke-width="0.5"/>
<path d="M24.3308 192.151L36.3938 200.646M24.3308 192.151L26.4963 190.607M24.3308 192.151L22.1654 193.696M36.3938 200.646L38.5592 199.101M36.3938 200.646L34.2283 202.19" stroke="#AE4E5C" stroke-width="0.5"/>
<path d="M75.6663 178.887L87.7292 187.382M75.6663 178.887L77.8317 177.343M75.6663 178.887L73.5009 180.432M87.7292 187.382L89.8947 185.837M87.7292 187.382L85.5638 188.926" stroke="#AE4E5C" stroke-width="0.5"/>
<path d="M58.9778 167.622L71.0407 176.116M58.9778 167.622L61.1432 166.078M58.9778 167.622L56.8124 169.167M71.0407 176.116L73.2062 174.572M71.0407 176.116L68.8753 177.661" stroke="#AE4E5C" stroke-width="0.5"/>
<path d="M58.2522 191.061L70.3152 199.556M58.2522 191.061L60.4177 189.517M58.2522 191.061L56.0868 192.606M70.3152 199.556L72.4806 198.011M70.3152 199.556L68.1497 201.1" stroke="#AE4E5C" stroke-width="0.5"/>
<path d="M41.5636 179.796L53.6266 188.29M41.5636 179.796L43.7291 178.251M41.5636 179.796L39.3982 181.34M53.6266 188.29L55.792 186.746M53.6266 188.29L51.4611 189.835" stroke="#AE4E5C" stroke-width="0.5"/>
<path d="M92.8991 166.532L104.962 175.026M92.8991 166.532L95.0645 164.988M92.8991 166.532L90.7336 168.076M104.962 175.026L107.127 173.482M104.962 175.026L102.797 176.571" stroke="#AE4E5C" stroke-width="0.5"/>
<path d="M76.2105 155.267L88.2734 163.761M76.2105 155.267L78.3759 153.722M76.2105 155.267L74.045 156.811M88.2734 163.761L90.4388 162.217M88.2734 163.761L86.108 165.305" stroke="#AE4E5C" stroke-width="0.5"/>
<path d="M49.7265 197.239L61.7894 205.733M49.7265 197.239L51.8919 195.695M49.7265 197.239L47.561 198.783M61.7894 205.733L63.9548 204.189M61.7894 205.733L59.624 207.278" stroke="#AE4E5C" stroke-width="0.5"/>
<path d="M33.0379 185.974L45.1008 194.468M33.0379 185.974L35.2033 184.429M33.0379 185.974L30.8724 187.518M45.1008 194.468L47.2662 192.924M45.1008 194.468L42.9354 196.012" stroke="#AE4E5C" stroke-width="0.5"/>
<path d="M84.3734 172.71L96.4364 181.204M84.3734 172.71L86.5389 171.165M84.3734 172.71L82.208 174.254M96.4364 181.204L98.6018 179.66M96.4364 181.204L94.2709 182.749" stroke="#AE4E5C" stroke-width="0.5"/>
<path d="M67.6848 161.444L79.7478 169.939M67.6848 161.444L69.8503 159.9M67.6848 161.444L65.5194 162.989M79.7478 169.939L81.9132 168.394M79.7478 169.939L77.5823 171.483" stroke="#AE4E5C" stroke-width="0.5"/>
<path d="M66.9593 184.884L79.0222 193.378M66.9593 184.884L69.1247 183.339M66.9593 184.884L64.7938 186.428M79.0222 193.378L81.1876 191.834M79.0222 193.378L76.8568 194.922" stroke="#AE4E5C" stroke-width="0.5"/>
<path d="M50.2707 173.618L62.3336 182.113M50.2707 173.618L52.4361 172.074M50.2707 173.618L48.1052 175.163M62.3336 182.113L64.499 180.568M62.3336 182.113L60.1682 183.657" stroke="#AE4E5C" stroke-width="0.5"/>
<path d="M101.606 160.354L113.669 168.849M101.606 160.354L103.772 158.81M101.606 160.354L99.4408 161.899M113.669 168.849L115.835 167.304M113.669 168.849L111.504 170.393" stroke="#AE4E5C" stroke-width="0.5"/>
<path d="M84.9176 149.089L96.9806 157.583M84.9176 149.089L87.0831 147.544M84.9176 149.089L82.7522 150.633M96.9806 157.583L99.146 156.039M96.9806 157.583L94.8151 159.128" stroke="#AE4E5C" stroke-width="0.5"/>
<path d="M36.9154 206.551L36.9154 203.372L34.2397 205.279L34.3304 201.872L102.899 152.995L102.808 156.387L105.529 154.449V157.583L36.9154 206.551Z" fill="#D8A543" stroke="black" stroke-linejoin="bevel"/>
<path d="M37.006 203.28L34.3757 201.736L102.899 152.995L105.574 154.449L37.006 203.28Z" fill="#F4BC51" stroke="black" stroke-linejoin="bevel"/>
<path d="M27.0194 81.4168L39.0824 89.9112M27.0194 81.4168L29.1849 79.8723M27.0194 81.4168L24.854 82.9612M39.0824 89.9112L41.2478 88.3667M39.0824 89.9112L36.9169 91.4556" stroke="#AE4E5C" stroke-width="0.5"/>
<path d="M10.3308 70.1514L22.3938 78.6458M10.3308 70.1514L12.4963 68.6069M10.3308 70.1514L8.16541 71.6958M22.3938 78.6458L24.5592 77.1013M22.3938 78.6458L20.2283 80.1902" stroke="#AE4E5C" stroke-width="0.5"/>
<path d="M61.6663 56.8875L73.7292 65.3819M61.6663 56.8875L63.8317 55.343M61.6663 56.8875L59.5009 58.4319M73.7292 65.3819L75.8947 63.8374M73.7292 65.3819L71.5638 66.9263" stroke="#AE4E5C" stroke-width="0.5"/>
<path d="M44.9778 45.6221L57.0407 54.1165M44.9778 45.6221L47.1432 44.0776M44.9778 45.6221L42.8124 47.1665M57.0407 54.1165L59.2062 52.572M57.0407 54.1165L54.8753 55.6609" stroke="#AE4E5C" stroke-width="0.5"/>
<path d="M44.2522 69.0613L56.3152 77.5557M44.2522 69.0613L46.4177 67.5168M44.2522 69.0613L42.0868 70.6057M56.3152 77.5557L58.4806 76.0112M56.3152 77.5557L54.1497 79.1001" stroke="#AE4E5C" stroke-width="0.5"/>
<path d="M27.5636 57.7959L39.6266 66.2903M27.5636 57.7959L29.7291 56.2515M27.5636 57.7959L25.3982 59.3403M39.6266 66.2903L41.792 64.7459M39.6266 66.2903L37.4611 67.8347" stroke="#AE4E5C" stroke-width="0.5"/>
<path d="M78.8991 44.532L90.962 53.0264M78.8991 44.532L81.0645 42.9875M78.8991 44.532L76.7336 46.0764M90.962 53.0264L93.1274 51.482M90.962 53.0264L88.7966 54.5708" stroke="#AE4E5C" stroke-width="0.5"/>
<path d="M62.2105 33.2666L74.2734 41.761M62.2105 33.2666L64.3759 31.7222M62.2105 33.2666L60.045 34.811M74.2734 41.761L76.4388 40.2166M74.2734 41.761L72.108 43.3054" stroke="#AE4E5C" stroke-width="0.5"/>
<path d="M35.7265 75.239L47.7894 83.7334M35.7265 75.239L37.8919 73.6946M35.7265 75.239L33.561 76.7835M47.7894 83.7334L49.9548 82.189M47.7894 83.7334L45.624 85.2779" stroke="#AE4E5C" stroke-width="0.5"/>
<path d="M19.0379 63.9736L31.1008 72.468M19.0379 63.9736L21.2033 62.4292M19.0379 63.9736L16.8724 65.5181M31.1008 72.468L33.2662 70.9236M31.1008 72.468L28.9354 74.0125" stroke="#AE4E5C" stroke-width="0.5"/>
<path d="M70.3734 50.7097L82.4364 59.2041M70.3734 50.7097L72.5389 49.1653M70.3734 50.7097L68.208 52.2542M82.4364 59.2041L84.6018 57.6597M82.4364 59.2041L80.2709 60.7486" stroke="#AE4E5C" stroke-width="0.5"/>
<path d="M53.6848 39.4443L65.7478 47.9387M53.6848 39.4443L55.8503 37.8999M53.6848 39.4443L51.5194 40.9888M65.7478 47.9387L67.9132 46.3943M65.7478 47.9387L63.5823 49.4832" stroke="#AE4E5C" stroke-width="0.5"/>
<path d="M52.9593 62.8835L65.0222 71.378M52.9593 62.8835L55.1247 61.3391M52.9593 62.8835L50.7938 64.428M65.0222 71.378L67.1876 69.8335M65.0222 71.378L62.8568 72.9224" stroke="#AE4E5C" stroke-width="0.5"/>
<path d="M36.2707 51.6182L48.3336 60.1126M36.2707 51.6182L38.4361 50.0737M36.2707 51.6182L34.1052 53.1626M48.3336 60.1126L50.499 58.5681M48.3336 60.1126L46.1682 61.657" stroke="#AE4E5C" stroke-width="0.5"/>
<path d="M87.6062 38.3543L99.6692 46.8487M87.6062 38.3543L89.7717 36.8098M87.6062 38.3543L85.4408 39.8987M99.6692 46.8487L101.835 45.3042M99.6692 46.8487L97.5037 48.3931" stroke="#AE4E5C" stroke-width="0.5"/>
<path d="M70.9176 27.0889L82.9806 35.5833M70.9176 27.0889L73.0831 25.5444M70.9176 27.0889L68.7522 28.6333M82.9806 35.5833L85.146 34.0388M82.9806 35.5833L80.8151 37.1277" stroke="#AE4E5C" stroke-width="0.5"/>
<path d="M22.9154 84.551L22.9154 81.3719L20.2397 83.2791L20.3304 79.8723L88.8987 30.9954L88.8084 34.3869L91.529 32.4489V35.5832L22.9154 84.551Z" fill="#D8A543" stroke="black" stroke-linejoin="bevel"/>
<path d="M23.006 81.2804L20.3757 79.736L88.8986 30.9954L91.5742 32.4489L23.006 81.2804Z" fill="#F4BC51" stroke="black" stroke-linejoin="bevel"/>
<path d="M-10.9806 57.4168L1.08237 65.9112M-10.9806 57.4168L-8.81513 55.8723M-10.9806 57.4168L-13.146 58.9612M1.08237 65.9112L3.2478 64.3667M1.08237 65.9112L-1.08306 67.4556" stroke="#AE4E5C" stroke-width="0.5"/>
<path d="M23.6663 32.8875L35.7292 41.3819M23.6663 32.8875L25.8317 31.343M23.6663 32.8875L21.5009 34.4319M35.7292 41.3819L37.8947 39.8374M35.7292 41.3819L33.5638 42.9263" stroke="#AE4E5C" stroke-width="0.5"/>
<path d="M6.97781 21.6221L19.0407 30.1165M6.97781 21.6221L9.14324 20.0776M6.97781 21.6221L4.81238 23.1665M19.0407 30.1165L21.2062 28.572M19.0407 30.1165L16.8753 31.6609" stroke="#AE4E5C" stroke-width="0.5"/>
<path d="M6.25222 45.0613L18.3152 53.5557M6.25222 45.0613L8.41766 43.5168M6.25222 45.0613L4.08679 46.6057M18.3152 53.5557L20.4806 52.0112M18.3152 53.5557L16.1497 55.1001" stroke="#AE4E5C" stroke-width="0.5"/>
<path d="M-10.4364 33.7959L1.62656 42.2903M-10.4364 33.7959L-8.27094 32.2515M-10.4364 33.7959L-12.6018 35.3403M1.62656 42.2903L3.79199 40.7459M1.62656 42.2903L-0.538872 43.8347" stroke="#AE4E5C" stroke-width="0.5"/>
<path d="M40.8991 20.532L52.962 29.0264M40.8991 20.532L43.0645 18.9875M40.8991 20.532L38.7336 22.0764M52.962 29.0264L55.1274 27.482M52.962 29.0264L50.7966 30.5708" stroke="#AE4E5C" stroke-width="0.5"/>
<path d="M24.2105 9.2666L36.2734 17.761M24.2105 9.2666L26.3759 7.72217M24.2105 9.2666L22.045 10.811M36.2734 17.761L38.4388 16.2166M36.2734 17.761L34.108 19.3054" stroke="#AE4E5C" stroke-width="0.5"/>
<path d="M-2.27353 51.239L9.7894 59.7334M-2.27353 51.239L-0.108099 49.6946M-2.27353 51.239L-4.43896 52.7835M9.7894 59.7334L11.9548 58.189M9.7894 59.7334L7.62397 61.2779" stroke="#AE4E5C" stroke-width="0.5"/>
<path d="M32.3734 26.7097L44.4364 35.2041M32.3734 26.7097L34.5389 25.1653M32.3734 26.7097L30.208 28.2542M44.4364 35.2041L46.6018 33.6597M44.4364 35.2041L42.2709 36.7486" stroke="#AE4E5C" stroke-width="0.5"/>
<path d="M15.6848 15.4443L27.7478 23.9387M15.6848 15.4443L17.8503 13.8999M15.6848 15.4443L13.5194 16.9888M27.7478 23.9387L29.9132 22.3943M27.7478 23.9387L25.5823 25.4832" stroke="#AE4E5C" stroke-width="0.5"/>
<path d="M14.9593 38.8835L27.0222 47.378M14.9593 38.8835L17.1247 37.3391M14.9593 38.8835L12.7938 40.428M27.0222 47.378L29.1876 45.8335M27.0222 47.378L24.8568 48.9224" stroke="#AE4E5C" stroke-width="0.5"/>
<path d="M-1.72934 27.6182L10.3336 36.1126M-1.72934 27.6182L0.436091 26.0737M-1.72934 27.6182L-3.89478 29.1626M10.3336 36.1126L12.499 34.5681M10.3336 36.1126L8.16816 37.657" stroke="#AE4E5C" stroke-width="0.5"/>
<path d="M49.6062 14.3543L61.6692 22.8487M49.6062 14.3543L51.7717 12.8098M49.6062 14.3543L47.4408 15.8987M61.6692 22.8487L63.8346 21.3042M61.6692 22.8487L59.5037 24.3931" stroke="#AE4E5C" stroke-width="0.5"/>
<path d="M32.9176 3.08887L44.9806 11.5833M32.9176 3.08887L35.0831 1.54443M32.9176 3.08887L30.7522 4.63331M44.9806 11.5833L47.146 10.0388M44.9806 11.5833L42.8151 13.1277" stroke="#AE4E5C" stroke-width="0.5"/>
<path d="M-15.0846 60.551L-15.0846 57.3719L-17.7603 59.2791L-17.6696 55.8723L50.8987 6.99536L50.8084 10.3869L53.529 8.44895V11.5832L-15.0846 60.551Z" fill="#D8A543" stroke="black" stroke-linejoin="bevel"/>
<path d="M-14.994 57.2804L-17.6243 55.736L50.8986 6.99536L53.5742 8.44895L-14.994 57.2804Z" fill="#F4BC51" stroke="black" stroke-linejoin="bevel"/>
<path d="M-7.33371 105.887L4.72922 114.382M-7.33371 105.887L-5.16828 104.343M-7.33371 105.887L-9.49915 107.432M4.72922 114.382L6.89466 112.837M4.72922 114.382L2.56379 115.926" stroke="#AE4E5C" stroke-width="0.5"/>
<path d="M9.89908 93.532L21.962 102.026M9.89908 93.532L12.0645 91.9875M9.89908 93.532L7.73364 95.0764M21.962 102.026L24.1274 100.482M21.962 102.026L19.7966 103.571" stroke="#AE4E5C" stroke-width="0.5"/>
<path d="M-6.78952 82.2666L5.27341 90.761M-6.78952 82.2666L-4.62409 80.7222M-6.78952 82.2666L-8.95496 83.811M5.27341 90.761L7.43884 89.2166M5.27341 90.761L3.10798 92.3054" stroke="#AE4E5C" stroke-width="0.5"/>
<path d="M1.37344 99.7097L13.4364 108.204M1.37344 99.7097L3.53887 98.1653M1.37344 99.7097L-0.791992 101.254M13.4364 108.204L15.6018 106.66M13.4364 108.204L11.2709 109.749" stroke="#AE4E5C" stroke-width="0.5"/>
<path d="M18.6062 87.3543L30.6692 95.8487M18.6062 87.3543L20.7717 85.8098M18.6062 87.3543L16.4408 88.8987M30.6692 95.8487L32.8346 94.3042M30.6692 95.8487L28.5037 97.3931" stroke="#AE4E5C" stroke-width="0.5"/>
<path d="M1.91763 76.0889L13.9806 84.5833M1.91763 76.0889L4.08306 74.5444M1.91763 76.0889L-0.247803 77.6333M13.9806 84.5833L16.146 83.0388M13.9806 84.5833L11.8151 86.1277" stroke="#AE4E5C" stroke-width="0.5"/>
<path d="M-46.0846 133.551L-46.0846 130.372L-48.7603 132.279L-48.6696 128.872L19.8987 79.9954L19.8084 83.3869L22.529 81.4489V84.5832L-46.0846 133.551Z" fill="#D8A543" stroke="black" stroke-linejoin="bevel"/>
<path d="M-45.994 130.28L-48.6243 128.736L19.8986 79.9954L22.5742 81.4489L-45.994 130.28Z" fill="#F4BC51" stroke="black" stroke-linejoin="bevel"/>
<path d="M97.6406 90.737L153.358 131.607L153.191 113.435L96.6223 73.9849L97.6406 90.737Z" fill="#AE4E5C" stroke="black"/>
<path d="M177.865 113.625L178.142 96.8655L178.129 95.4523L153.214 113.612L153.38 131.579L177.865 113.625Z" fill="#D96558" stroke="black"/>
<path d="M169.499 107.819L175.905 102.932L175.996 111.616L169.591 116.502L169.499 107.819Z" fill="#F4BC51" stroke="black" stroke-width="0.25"/>
<path d="M175.098 107.381L175.07 104.755L170.365 108.219L170.392 110.845L175.098 107.381Z" fill="black"/>
<path d="M175.127 110.812L175.099 108.186L170.396 111.851L170.424 114.478L175.127 110.812Z" fill="black"/>
<path d="M159.561 115.084L165.966 110.197L166.057 118.881L159.652 123.767L159.561 115.084Z" fill="#F4BC51" stroke="black" stroke-width="0.25"/>
<path d="M165.373 114.443L165.346 111.817L160.426 115.484L160.454 118.11L165.373 114.443Z" fill="black"/>
<path d="M165.404 118.076L165.377 115.449L160.458 119.116L160.485 121.743L165.404 118.076Z" fill="black"/>
<path d="M147.489 115.495L141.037 110.601L140.968 119.277L147.42 124.171L147.489 115.495Z" fill="#F4BC51" stroke="black" stroke-width="0.25"/>
<path d="M141.869 115.047L141.89 112.424L146.62 115.891L146.599 118.514L141.869 115.047Z" fill="black"/>
<path d="M141.84 118.478L141.86 115.855L146.589 119.524L146.568 122.147L141.84 118.478Z" fill="black"/>
<path d="M127.612 100.964L121.159 96.0704L121.09 104.747L127.543 109.64L127.612 100.964Z" fill="#F4BC51" stroke="black" stroke-width="0.25"/>
<path d="M121.992 100.516L122.013 97.8931L126.743 101.36L126.722 103.983L121.992 100.516Z" fill="black"/>
<path d="M121.962 103.947L121.983 101.324L126.712 104.993L126.691 107.616L121.962 103.947Z" fill="black"/>
<path d="M107.734 86.0784L101.282 81.1847L101.213 89.861L107.666 94.7547L107.734 86.0784Z" fill="#F4BC51" stroke="black" stroke-width="0.25"/>
<path d="M102.115 85.6302L102.136 83.0074L106.866 86.4747L106.845 89.0975L102.115 85.6302Z" fill="black"/>
<path d="M102.085 89.0611L102.106 86.4383L106.835 90.1074L106.814 92.7302L102.085 89.0611Z" fill="black"/>
<path d="M137.55 108.229L131.098 103.336L131.029 112.012L137.481 116.906L137.55 108.229Z" fill="#F4BC51" stroke="black" stroke-width="0.25"/>
<path d="M131.716 107.578L131.737 104.955L136.682 108.626L136.661 111.248L131.716 107.578Z" fill="black"/>
<path d="M131.685 111.21L131.706 108.587L136.65 112.258L136.63 114.881L131.685 111.21Z" fill="black"/>
<path d="M117.673 93.699L111.221 88.8053L111.152 97.4816L117.604 102.375L117.673 93.699Z" fill="#F4BC51" stroke="black" stroke-width="0.25"/>
<path d="M111.839 93.0474L111.86 90.4246L116.804 94.0954L116.784 96.7181L111.839 93.0474Z" fill="black"/>
<path d="M111.808 96.68L111.829 94.0572L116.773 97.728L116.752 100.351L111.808 96.68Z" fill="black"/>
<path d="M179.657 95.2203L179.624 91.5835L95.5504 70.3286L96.2338 74.1629L153.443 114.452L179.657 95.2203Z" fill="#F4BC51" stroke="black"/>
<path d="M153.206 110.621L94.2793 69.9497L122.992 50.4031L180.624 91.0837L153.206 110.621Z" fill="#F4BC51" stroke="black"/>
<path d="M205.785 131.153L150.067 172.023L150.235 153.852L206.803 114.401L205.785 131.153Z" fill="#AE4E5C" stroke="black"/>
<path d="M125.561 154.041L125.284 137.282L125.297 135.869L150.212 154.029L150.046 171.996L125.561 154.041Z" fill="#D96558" stroke="black"/>
<path d="M133.926 148.235L127.521 143.349L127.43 152.032L133.835 156.919L133.926 148.235Z" fill="#F4BC51" stroke="black" stroke-width="0.25"/>
<path d="M128.328 147.798L128.355 145.172L133.061 148.635L133.033 151.262L128.328 147.798Z" fill="black"/>
<path d="M128.299 151.229L128.326 148.602L133.029 152.268L133.002 154.894L128.299 151.229Z" fill="black"/>
<path d="M143.865 155.5L137.459 150.614L137.368 159.297L143.774 164.184L143.865 155.5Z" fill="#F4BC51" stroke="black" stroke-width="0.25"/>
<path d="M138.052 154.86L138.08 152.233L142.999 155.9L142.972 158.527L138.052 154.86Z" fill="black"/>
<path d="M138.021 158.492L138.049 155.866L142.968 159.533L142.94 162.159L138.021 158.492Z" fill="black"/>
<path d="M155.937 155.911L162.389 151.018L162.458 159.694L156.005 164.588L155.937 155.911Z" fill="#F4BC51" stroke="black" stroke-width="0.25"/>
<path d="M161.556 155.463L161.535 152.84L156.805 156.308L156.826 158.93L161.556 155.463Z" fill="black"/>
<path d="M161.586 158.894L161.565 156.271L156.836 159.94L156.857 162.563L161.586 158.894Z" fill="black"/>
<path d="M175.814 141.381L182.266 136.487L182.335 145.163L175.883 150.057L175.814 141.381Z" fill="#F4BC51" stroke="black" stroke-width="0.25"/>
<path d="M181.434 140.932L181.413 138.31L176.683 141.777L176.703 144.4L181.434 140.932Z" fill="black"/>
<path d="M181.463 144.363L181.442 141.741L176.714 145.41L176.735 148.032L181.463 144.363Z" fill="black"/>
<path d="M195.691 126.495L202.144 121.601L202.212 130.277L195.76 135.171L195.691 126.495Z" fill="#F4BC51" stroke="black" stroke-width="0.25"/>
<path d="M201.311 126.047L201.29 123.424L196.56 126.891L196.581 129.514L201.311 126.047Z" fill="black"/>
<path d="M201.34 129.478L201.32 126.855L196.591 130.524L196.612 133.147L201.34 129.478Z" fill="black"/>
<path d="M165.875 148.646L172.328 143.752L172.397 152.428L165.944 157.322L165.875 148.646Z" fill="#F4BC51" stroke="black" stroke-width="0.25"/>
<path d="M171.709 147.994L171.689 145.371L166.744 149.042L166.765 151.665L171.709 147.994Z" fill="black"/>
<path d="M171.741 151.627L171.72 149.004L166.775 152.675L166.796 155.297L171.741 151.627Z" fill="black"/>
<path d="M185.753 134.116L192.205 129.222L192.274 137.898L185.821 142.792L185.753 134.116Z" fill="#F4BC51" stroke="black" stroke-width="0.25"/>
<path d="M191.587 133.464L191.566 130.841L186.621 134.512L186.642 137.135L191.587 133.464Z" fill="black"/>
<path d="M191.618 137.096L191.597 134.474L186.652 138.144L186.673 140.767L191.618 137.096Z" fill="black"/>
<path d="M123.768 135.637L123.802 132L207.875 110.745L207.192 114.579L149.983 154.868L123.768 135.637Z" fill="#F4BC51" stroke="black"/>
<path d="M150.219 151.037L209.146 110.366L180.433 90.8196L122.802 131.5L150.219 151.037Z" fill="#F4BC51" stroke="black"/>
<path d="M119.262 110.737L63.5446 151.607L63.7123 133.435L120.281 93.9849L119.262 110.737Z" fill="#AE4E5C" stroke="black"/>
<path d="M39.0381 133.625L38.761 116.865L38.774 115.452L63.6888 133.612L63.5231 151.579L39.0381 133.625Z" fill="#D96558" stroke="black"/>
<path d="M47.4034 127.819L40.998 122.932L40.9069 131.616L47.3123 136.502L47.4034 127.819Z" fill="#F4BC51" stroke="black" stroke-width="0.25"/>
<path d="M41.8051 127.381L41.8327 124.755L46.5383 128.219L46.5107 130.845L41.8051 127.381Z" fill="black"/>
<path d="M41.7759 130.812L41.8035 128.186L46.5066 131.851L46.479 134.478L41.7759 130.812Z" fill="black"/>
<path d="M57.342 135.084L50.9366 130.197L50.8455 138.881L57.2509 143.767L57.342 135.084Z" fill="#F4BC51" stroke="black" stroke-width="0.25"/>
<path d="M51.5297 134.443L51.5573 131.817L56.4765 135.484L56.4489 138.11L51.5297 134.443Z" fill="black"/>
<path d="M51.4985 138.076L51.5261 135.449L56.4452 139.116L56.4176 141.743L51.4985 138.076Z" fill="black"/>
<path d="M69.4139 135.495L75.8663 130.601L75.9352 139.277L69.4828 144.171L69.4139 135.495Z" fill="#F4BC51" stroke="black" stroke-width="0.25"/>
<path d="M75.0335 135.047L75.0127 132.424L70.2826 135.891L70.3034 138.514L75.0335 135.047Z" fill="black"/>
<path d="M75.0632 138.478L75.0424 135.855L70.3137 139.524L70.3345 142.147L75.0632 138.478Z" fill="black"/>
<path d="M89.2912 120.964L95.7436 116.07L95.8125 124.747L89.3601 129.64L89.2912 120.964Z" fill="#F4BC51" stroke="black" stroke-width="0.25"/>
<path d="M94.9108 120.516L94.89 117.893L90.1599 121.36L90.1807 123.983L94.9108 120.516Z" fill="black"/>
<path d="M94.9405 123.947L94.9197 121.324L90.191 124.993L90.2119 127.616L94.9405 123.947Z" fill="black"/>
<path d="M109.168 106.078L115.621 101.185L115.69 109.861L109.237 114.755L109.168 106.078Z" fill="#F4BC51" stroke="black" stroke-width="0.25"/>
<path d="M114.788 105.63L114.767 103.007L110.037 106.475L110.058 109.097L114.788 105.63Z" fill="black"/>
<path d="M114.818 109.061L114.797 106.438L110.068 110.107L110.089 112.73L114.818 109.061Z" fill="black"/>
<path d="M79.3526 128.229L85.805 123.336L85.8739 132.012L79.4215 136.906L79.3526 128.229Z" fill="#F4BC51" stroke="black" stroke-width="0.25"/>
<path d="M85.1867 127.578L85.1659 124.955L80.2212 128.626L80.242 131.248L85.1867 127.578Z" fill="black"/>
<path d="M85.2179 131.21L85.1971 128.587L80.2524 132.258L80.2733 134.881L85.2179 131.21Z" fill="black"/>
<path d="M99.2298 113.699L105.682 108.805L105.751 117.482L99.2987 122.375L99.2298 113.699Z" fill="#F4BC51" stroke="black" stroke-width="0.25"/>
<path d="M105.064 113.047L105.043 110.425L100.098 114.095L100.119 116.718L105.064 113.047Z" fill="black"/>
<path d="M105.095 116.68L105.074 114.057L100.13 117.728L100.15 120.351L105.095 116.68Z" fill="black"/>
<path d="M37.2458 115.22L37.2793 111.583L121.352 90.3286L120.669 94.1629L63.4598 134.452L37.2458 115.22Z" fill="#F4BC51" stroke="black"/>
<path d="M63.6964 130.621L122.624 89.9497L93.9107 70.4031L36.2793 111.084L63.6964 130.621Z" fill="#F4BC51" stroke="black"/>
<path d="M63.1614 151.737L7.4438 192.607L7.61145 174.435L64.1797 134.985L63.1614 151.737Z" fill="#AE4E5C" stroke="black"/>
<path d="M-17.0627 174.625L-17.3399 157.865L-17.3268 156.452L7.58802 174.612L7.42228 192.579L-17.0627 174.625Z" fill="#D96558" stroke="black"/>
<path d="M1.24115 176.084L-5.16421 171.197L-5.2553 179.881L1.15006 184.767L1.24115 176.084Z" fill="#F4BC51" stroke="black" stroke-width="0.25"/>
<path d="M-4.57111 175.443L-4.54353 172.817L0.375628 176.484L0.348046 179.11L-4.57111 175.443Z" fill="black"/>
<path d="M-4.60236 179.076L-4.57478 176.449L0.344378 180.116L0.316796 182.743L-4.60236 179.076Z" fill="black"/>
<path d="M13.3131 176.495L19.7655 171.601L19.8344 180.277L13.382 185.171L13.3131 176.495Z" fill="#F4BC51" stroke="black" stroke-width="0.25"/>
<path d="M18.9327 176.047L18.9118 173.424L14.1818 176.891L14.2026 179.514L18.9327 176.047Z" fill="black"/>
<path d="M18.9623 179.478L18.9415 176.855L14.2129 180.524L14.2337 183.147L18.9623 179.478Z" fill="black"/>
<path d="M33.1904 161.964L39.6428 157.07L39.7117 165.747L33.2593 170.64L33.1904 161.964Z" fill="#F4BC51" stroke="black" stroke-width="0.25"/>
<path d="M38.81 161.516L38.7892 158.893L34.0591 162.36L34.0799 164.983L38.81 161.516Z" fill="black"/>
<path d="M38.8397 164.947L38.8188 162.324L34.0902 165.993L34.111 168.616L38.8397 164.947Z" fill="black"/>
<path d="M53.0676 147.078L59.52 142.185L59.5889 150.861L53.1365 155.755L53.0676 147.078Z" fill="#F4BC51" stroke="black" stroke-width="0.25"/>
<path d="M58.6872 146.63L58.6664 144.007L53.9363 147.475L53.9571 150.097L58.6872 146.63Z" fill="black"/>
<path d="M58.7169 150.061L58.696 147.438L53.9674 151.107L53.9882 153.73L58.7169 150.061Z" fill="black"/>
<path d="M23.2518 169.229L29.7042 164.336L29.7731 173.012L23.3207 177.906L23.2518 169.229Z" fill="#F4BC51" stroke="black" stroke-width="0.25"/>
<path d="M29.0859 168.578L29.065 165.955L24.1204 169.626L24.1412 172.248L29.0859 168.578Z" fill="black"/>
<path d="M29.1171 172.21L29.0963 169.587L24.1516 173.258L24.1724 175.881L29.1171 172.21Z" fill="black"/>
<path d="M43.129 154.699L49.5814 149.805L49.6503 158.482L43.1979 163.375L43.129 154.699Z" fill="#F4BC51" stroke="black" stroke-width="0.25"/>
<path d="M48.9631 154.047L48.9422 151.425L43.9976 155.095L44.0184 157.718L48.9631 154.047Z" fill="black"/>
<path d="M48.9943 157.68L48.9735 155.057L44.0288 158.728L44.0496 161.351L48.9943 157.68Z" fill="black"/>
<path d="M-18.8551 156.22L-18.8215 152.583L65.2516 131.329L64.5682 135.163L7.35902 175.452L-18.8551 156.22Z" fill="#F4BC51" stroke="black"/>
<path d="M7.59562 171.621L66.5227 130.95L37.8099 111.403L-19.8215 152.084L7.59562 171.621Z" fill="#F4BC51" stroke="black"/>
<path d="M44.9903 221.563L-10.7273 262.433L-10.5597 244.262L46.0085 204.811L44.9903 221.563Z" fill="#AE4E5C" stroke="black"/>
<path d="M-76.6836 196.77L-76.65 193.133L47.0804 201.155L46.397 204.989L-10.8121 245.278L-76.6836 196.77Z" fill="#F4BC51" stroke="black"/>
<path d="M-10.5755 241.446L48.3516 200.775L-20.7374 151.465L-78.3689 192.146L-10.5755 241.446Z" fill="#F4BC51" stroke="black"/>
<path d="M9.28925 220.163L-13.241 204.252L-33.4536 218.045L-10.9271 234.36L9.28925 220.163Z" stroke="black"/>
<path d="M-13.2663 207.088L-13.2403 204.261L9.50532 220.174L7.11681 221.571L-13.2663 207.088Z" fill="black" fill-opacity="0.2"/>
<path d="M-5.06325 245.513L1.38915 240.62L1.45801 249.296L-4.99438 254.19L-5.06325 245.513Z" fill="#F4BC51" stroke="black" stroke-width="0.25"/>
<path d="M0.556307 245.065L0.535498 242.442L-4.19459 245.91L-4.17378 248.533L0.556307 245.065Z" fill="black"/>
<path d="M0.585993 248.496L0.565184 245.873L-4.16345 249.542L-4.14264 252.165L0.585993 248.496Z" fill="black"/>
<path d="M14.814 230.983L21.2663 226.089L21.3352 234.765L14.8828 239.659L14.814 230.983Z" fill="#F4BC51" stroke="black" stroke-width="0.25"/>
<path d="M20.4335 230.534L20.4127 227.912L15.6826 231.379L15.7034 234.002L20.4335 230.534Z" fill="black"/>
<path d="M20.4632 233.965L20.4424 231.343L15.7138 235.012L15.7346 237.634L20.4632 233.965Z" fill="black"/>
<path d="M34.6911 216.097L41.1435 211.203L41.2124 219.88L34.76 224.773L34.6911 216.097Z" fill="#F4BC51" stroke="black" stroke-width="0.25"/>
<path d="M40.3107 215.649L40.2899 213.026L35.5598 216.493L35.5806 219.116L40.3107 215.649Z" fill="black"/>
<path d="M40.3404 219.08L40.3196 216.457L35.5909 220.126L35.6118 222.749L40.3404 219.08Z" fill="black"/>
<path d="M4.87535 238.248L11.3278 233.354L11.3966 242.031L4.94422 246.924L4.87535 238.248Z" fill="#F4BC51" stroke="black" stroke-width="0.25"/>
<path d="M10.7094 237.596L10.6886 234.974L5.7439 238.644L5.76471 241.267L10.7094 237.596Z" fill="black"/>
<path d="M10.7406 241.229L10.7198 238.606L5.77515 242.277L5.79596 244.9L10.7406 241.229Z" fill="black"/>
<path d="M24.7525 223.717L31.2049 218.824L31.2738 227.5L24.8214 232.394L24.7525 223.717Z" fill="#F4BC51" stroke="black" stroke-width="0.25"/>
<path d="M30.5866 223.066L30.5658 220.443L25.6211 224.114L25.6419 226.736L30.5866 223.066Z" fill="black"/>
<path d="M30.6178 226.698L30.597 224.076L25.6523 227.746L25.6732 230.369L30.6178 226.698Z" fill="black"/>
<path d="M44.3247 180H45.3247V201H44.3247V180Z" fill="#D8A543" stroke="black" stroke-width="0.25"/>
<path d="M44.3247 189.553L45.3247 188.854L46.5974 192L47.3247 190.136V182.5L45.3247 180H44.3247V189.553Z" fill="#AE4E5C" stroke="black" stroke-width="0.25"/>
<path d="M97.6406 68.737L153.358 109.607L153.191 91.4354L96.6223 51.9849L97.6406 68.737Z" fill="#AE4E5C" stroke="black"/>
<path d="M177.865 91.6245L178.142 74.8655L178.129 73.4523L153.214 91.6123L153.38 109.579L177.865 91.6245Z" fill="#D96558" stroke="black"/>
<path d="M169.499 85.8188L175.905 80.9322L175.996 89.6157L169.591 94.5022L169.499 85.8188Z" fill="#F4BC51" stroke="black" stroke-width="0.25"/>
<path d="M175.098 85.3814L175.07 82.7551L170.365 86.2189L170.392 88.8452L175.098 85.3814Z" fill="black"/>
<path d="M175.127 88.812L175.099 86.1858L170.396 89.8514L170.424 92.4776L175.127 88.812Z" fill="black"/>
<path d="M159.561 93.0839L165.966 88.1973L166.057 96.8808L159.652 101.767L159.561 93.0839Z" fill="#F4BC51" stroke="black" stroke-width="0.25"/>
<path d="M165.373 92.4431L165.346 89.8168L160.426 93.4839L160.454 96.1103L165.373 92.4431Z" fill="black"/>
<path d="M165.404 96.0757L165.377 93.4493L160.458 97.1165L160.485 99.7428L165.404 96.0757Z" fill="black"/>
<path d="M147.489 93.4949L141.037 88.6012L140.968 97.2775L147.42 102.171L147.489 93.4949Z" fill="#F4BC51" stroke="black" stroke-width="0.25"/>
<path d="M141.869 93.0467L141.89 90.4239L146.62 93.8912L146.599 96.514L141.869 93.0467Z" fill="black"/>
<path d="M141.84 96.4776L141.86 93.8548L146.589 97.5239L146.568 100.147L141.84 96.4776Z" fill="black"/>
<path d="M127.612 78.9642L121.159 74.0704L121.09 82.7467L127.543 87.6405L127.612 78.9642Z" fill="#F4BC51" stroke="black" stroke-width="0.25"/>
<path d="M121.992 78.5159L122.013 75.8931L126.743 79.3604L126.722 81.9832L121.992 78.5159Z" fill="black"/>
<path d="M121.962 81.9468L121.983 79.3241L126.712 82.9931L126.691 85.6159L121.962 81.9468Z" fill="black"/>
<path d="M107.734 64.0784L101.282 59.1847L101.213 67.861L107.666 72.7547L107.734 64.0784Z" fill="#F4BC51" stroke="black" stroke-width="0.25"/>
<path d="M102.115 63.6302L102.136 61.0074L106.866 64.4747L106.845 67.0975L102.115 63.6302Z" fill="black"/>
<path d="M102.085 67.0611L102.106 64.4383L106.835 68.1074L106.814 70.7302L102.085 67.0611Z" fill="black"/>
<path d="M137.55 86.2293L131.098 81.3356L131.029 90.0118L137.481 94.9056L137.55 86.2293Z" fill="#F4BC51" stroke="black" stroke-width="0.25"/>
<path d="M131.716 85.5777L131.737 82.9549L136.682 86.6257L136.661 89.2484L131.716 85.5777Z" fill="black"/>
<path d="M131.685 89.2102L131.706 86.5875L136.65 90.2582L136.63 92.881L131.685 89.2102Z" fill="black"/>
<path d="M117.673 71.699L111.221 66.8053L111.152 75.4816L117.604 80.3753L117.673 71.699Z" fill="#F4BC51" stroke="black" stroke-width="0.25"/>
<path d="M111.839 71.0474L111.86 68.4246L116.804 72.0954L116.784 74.7181L111.839 71.0474Z" fill="black"/>
<path d="M111.808 74.68L111.829 72.0572L116.773 75.728L116.752 78.3507L111.808 74.68Z" fill="black"/>
<path d="M179.657 73.2203L179.624 69.5835L95.5504 48.3286L96.2338 52.1629L153.443 92.4518L179.657 73.2203Z" fill="#F4BC51" stroke="black"/>
<path d="M153.206 88.621L94.2793 47.9497L122.992 28.4031L180.624 69.0837L153.206 88.621Z" fill="#F4BC51" stroke="black"/>
<path d="M205.785 109.153L150.067 150.023L150.235 131.852L206.803 92.4014L205.785 109.153Z" fill="#AE4E5C" stroke="black"/>
<path d="M125.561 132.041L125.284 115.282L125.297 113.869L150.212 132.029L150.046 149.996L125.561 132.041Z" fill="#D96558" stroke="black"/>
<path d="M133.926 126.235L127.521 121.349L127.43 130.032L133.835 134.919L133.926 126.235Z" fill="#F4BC51" stroke="black" stroke-width="0.25"/>
<path d="M128.328 125.798L128.355 123.172L133.061 126.635L133.033 129.262L128.328 125.798Z" fill="black"/>
<path d="M128.299 129.229L128.326 126.602L133.029 130.268L133.002 132.894L128.299 129.229Z" fill="black"/>
<path d="M143.865 133.5L137.459 128.614L137.368 137.297L143.774 142.184L143.865 133.5Z" fill="#F4BC51" stroke="black" stroke-width="0.25"/>
<path d="M138.052 132.86L138.08 130.233L142.999 133.9L142.972 136.527L138.052 132.86Z" fill="black"/>
<path d="M138.021 136.492L138.049 133.866L142.968 137.533L142.94 140.159L138.021 136.492Z" fill="black"/>
<path d="M155.937 133.911L162.389 129.018L162.458 137.694L156.005 142.588L155.937 133.911Z" fill="#F4BC51" stroke="black" stroke-width="0.25"/>
<path d="M161.556 133.463L161.535 130.84L156.805 134.308L156.826 136.93L161.556 133.463Z" fill="black"/>
<path d="M161.586 136.894L161.565 134.271L156.836 137.94L156.857 140.563L161.586 136.894Z" fill="black"/>
<path d="M175.814 119.381L182.266 114.487L182.335 123.163L175.883 128.057L175.814 119.381Z" fill="#F4BC51" stroke="black" stroke-width="0.25"/>
<path d="M181.434 118.932L181.413 116.31L176.683 119.777L176.703 122.4L181.434 118.932Z" fill="black"/>
<path d="M181.463 122.363L181.442 119.741L176.714 123.41L176.735 126.032L181.463 122.363Z" fill="black"/>
<path d="M195.691 104.495L202.144 99.6012L202.212 108.277L195.76 113.171L195.691 104.495Z" fill="#F4BC51" stroke="black" stroke-width="0.25"/>
<path d="M201.311 104.047L201.29 101.424L196.56 104.891L196.581 107.514L201.311 104.047Z" fill="black"/>
<path d="M201.34 107.478L201.32 104.855L196.591 108.524L196.612 111.147L201.34 107.478Z" fill="black"/>
<path d="M165.875 126.646L172.328 121.752L172.397 130.428L165.944 135.322L165.875 126.646Z" fill="#F4BC51" stroke="black" stroke-width="0.25"/>
<path d="M171.709 125.994L171.689 123.371L166.744 127.042L166.765 129.665L171.709 125.994Z" fill="black"/>
<path d="M171.741 129.627L171.72 127.004L166.775 130.675L166.796 133.297L171.741 129.627Z" fill="black"/>
<path d="M185.753 112.116L192.205 107.222L192.274 115.898L185.821 120.792L185.753 112.116Z" fill="#F4BC51" stroke="black" stroke-width="0.25"/>
<path d="M191.587 111.464L191.566 108.841L186.621 112.512L186.642 115.135L191.587 111.464Z" fill="black"/>
<path d="M191.618 115.096L191.597 112.474L186.652 116.144L186.673 118.767L191.618 115.096Z" fill="black"/>
<path d="M123.768 113.637L123.802 110L207.875 88.7451L207.192 92.5794L149.983 132.868L123.768 113.637Z" fill="#F4BC51" stroke="black"/>
<path d="M150.219 129.037L209.146 88.3662L180.433 68.8196L122.802 109.5L150.219 129.037Z" fill="#F4BC51" stroke="black"/>
<path d="M119.262 88.737L63.5446 129.607L63.7123 111.435L120.281 71.9849L119.262 88.737Z" fill="#AE4E5C" stroke="black"/>
<path d="M39.0381 111.625L38.761 94.8655L38.774 93.4523L63.6888 111.612L63.5231 129.579L39.0381 111.625Z" fill="#D96558" stroke="black"/>
<path d="M47.4034 105.819L40.998 100.932L40.9069 109.616L47.3123 114.502L47.4034 105.819Z" fill="#F4BC51" stroke="black" stroke-width="0.25"/>
<path d="M41.8051 105.381L41.8327 102.755L46.5383 106.219L46.5107 108.845L41.8051 105.381Z" fill="black"/>
<path d="M41.7759 108.812L41.8035 106.186L46.5066 109.851L46.479 112.478L41.7759 108.812Z" fill="black"/>
<path d="M57.342 113.084L50.9366 108.197L50.8455 116.881L57.2509 121.767L57.342 113.084Z" fill="#F4BC51" stroke="black" stroke-width="0.25"/>
<path d="M51.5297 112.443L51.5573 109.817L56.4765 113.484L56.4489 116.11L51.5297 112.443Z" fill="black"/>
<path d="M51.4985 116.076L51.5261 113.449L56.4452 117.116L56.4176 119.743L51.4985 116.076Z" fill="black"/>
<path d="M69.4139 113.495L75.8663 108.601L75.9352 117.277L69.4828 122.171L69.4139 113.495Z" fill="#F4BC51" stroke="black" stroke-width="0.25"/>
<path d="M75.0335 113.047L75.0127 110.424L70.2826 113.891L70.3034 116.514L75.0335 113.047Z" fill="black"/>
<path d="M75.0632 116.478L75.0424 113.855L70.3137 117.524L70.3345 120.147L75.0632 116.478Z" fill="black"/>
<path d="M89.2912 98.9642L95.7436 94.0704L95.8125 102.747L89.3601 107.64L89.2912 98.9642Z" fill="#F4BC51" stroke="black" stroke-width="0.25"/>
<path d="M94.9108 98.5159L94.89 95.8931L90.1599 99.3604L90.1807 101.983L94.9108 98.5159Z" fill="black"/>
<path d="M94.9405 101.947L94.9197 99.3241L90.191 102.993L90.2119 105.616L94.9405 101.947Z" fill="black"/>
<path d="M109.168 84.0784L115.621 79.1847L115.69 87.861L109.237 92.7547L109.168 84.0784Z" fill="#F4BC51" stroke="black" stroke-width="0.25"/>
<path d="M114.788 83.6302L114.767 81.0074L110.037 84.4747L110.058 87.0975L114.788 83.6302Z" fill="black"/>
<path d="M114.818 87.0611L114.797 84.4383L110.068 88.1074L110.089 90.7302L114.818 87.0611Z" fill="black"/>
<path d="M79.3526 106.229L85.805 101.336L85.8739 110.012L79.4215 114.906L79.3526 106.229Z" fill="#F4BC51" stroke="black" stroke-width="0.25"/>
<path d="M85.1867 105.578L85.1659 102.955L80.2212 106.626L80.242 109.248L85.1867 105.578Z" fill="black"/>
<path d="M85.2179 109.21L85.1971 106.587L80.2524 110.258L80.2733 112.881L85.2179 109.21Z" fill="black"/>
<path d="M99.2298 91.699L105.682 86.8053L105.751 95.4816L99.2987 100.375L99.2298 91.699Z" fill="#F4BC51" stroke="black" stroke-width="0.25"/>
<path d="M105.064 91.0474L105.043 88.4246L100.098 92.0954L100.119 94.7181L105.064 91.0474Z" fill="black"/>
<path d="M105.095 94.68L105.074 92.0572L100.13 95.728L100.15 98.3507L105.095 94.68Z" fill="black"/>
<path d="M37.2458 93.2203L37.2793 89.5835L121.352 68.3286L120.669 72.1629L63.4598 112.452L37.2458 93.2203Z" fill="#F4BC51" stroke="black"/>
<path d="M63.6964 108.621L122.624 67.9497L93.9107 48.4031L36.2793 89.0837L63.6964 108.621Z" fill="#F4BC51" stroke="black"/>
<path d="M63.1614 129.737L7.4438 170.607L7.61145 152.435L64.1797 112.985L63.1614 129.737Z" fill="#AE4E5C" stroke="black"/>
<path d="M-17.0627 152.625L-17.3399 135.865L-17.3268 134.452L7.58802 152.612L7.42228 170.579L-17.0627 152.625Z" fill="#D96558" stroke="black"/>
<path d="M1.24115 154.084L-5.16421 149.197L-5.2553 157.881L1.15006 162.767L1.24115 154.084Z" fill="#F4BC51" stroke="black" stroke-width="0.25"/>
<path d="M-4.57111 153.443L-4.54353 150.817L0.375628 154.484L0.348046 157.11L-4.57111 153.443Z" fill="black"/>
<path d="M-4.60236 157.076L-4.57478 154.449L0.344378 158.116L0.316796 160.743L-4.60236 157.076Z" fill="black"/>
<path d="M13.3131 154.495L19.7655 149.601L19.8344 158.277L13.382 163.171L13.3131 154.495Z" fill="#F4BC51" stroke="black" stroke-width="0.25"/>
<path d="M18.9327 154.047L18.9118 151.424L14.1818 154.891L14.2026 157.514L18.9327 154.047Z" fill="black"/>
<path d="M18.9623 157.478L18.9415 154.855L14.2129 158.524L14.2337 161.147L18.9623 157.478Z" fill="black"/>
<path d="M33.1904 139.964L39.6428 135.07L39.7117 143.747L33.2593 148.64L33.1904 139.964Z" fill="#F4BC51" stroke="black" stroke-width="0.25"/>
<path d="M38.81 139.516L38.7892 136.893L34.0591 140.36L34.0799 142.983L38.81 139.516Z" fill="black"/>
<path d="M38.8397 142.947L38.8188 140.324L34.0902 143.993L34.111 146.616L38.8397 142.947Z" fill="black"/>
<path d="M53.0676 125.078L59.52 120.185L59.5889 128.861L53.1365 133.755L53.0676 125.078Z" fill="#F4BC51" stroke="black" stroke-width="0.25"/>
<path d="M58.6872 124.63L58.6664 122.007L53.9363 125.475L53.9571 128.097L58.6872 124.63Z" fill="black"/>
<path d="M58.7169 128.061L58.696 125.438L53.9674 129.107L53.9882 131.73L58.7169 128.061Z" fill="black"/>
<path d="M23.2518 147.229L29.7042 142.336L29.7731 151.012L23.3207 155.906L23.2518 147.229Z" fill="#F4BC51" stroke="black" stroke-width="0.25"/>
<path d="M29.0859 146.578L29.065 143.955L24.1204 147.626L24.1412 150.248L29.0859 146.578Z" fill="black"/>
<path d="M29.1171 150.21L29.0963 147.587L24.1516 151.258L24.1724 153.881L29.1171 150.21Z" fill="black"/>
<path d="M43.129 132.699L49.5814 127.805L49.6503 136.482L43.1979 141.375L43.129 132.699Z" fill="#F4BC51" stroke="black" stroke-width="0.25"/>
<path d="M48.9631 132.047L48.9422 129.425L43.9976 133.095L44.0184 135.718L48.9631 132.047Z" fill="black"/>
<path d="M48.9943 135.68L48.9735 133.057L44.0288 136.728L44.0496 139.351L48.9943 135.68Z" fill="black"/>
<path d="M-18.8551 134.22L-18.8215 130.583L65.2516 109.329L64.5682 113.163L7.35902 153.452L-18.8551 134.22Z" fill="#F4BC51" stroke="black"/>
<path d="M7.59562 149.621L66.5227 108.95L37.8099 89.4031L-19.8215 130.084L7.59562 149.621Z" fill="#F4BC51" stroke="black"/>
<path d="M44.9903 199.563L-10.7273 240.433L-10.5597 222.262L46.0085 182.811L44.9903 199.563Z" fill="#AE4E5C" stroke="black"/>
<path d="M-76.6836 174.77L-76.65 171.133L47.0804 179.155L46.397 182.989L-10.8121 223.278L-76.6836 174.77Z" fill="#F4BC51" stroke="black"/>
<path d="M-10.5755 219.446L48.3516 178.775L-20.7374 129.465L-78.3689 170.146L-10.5755 219.446Z" fill="#F4BC51" stroke="black"/>
<path d="M9.28925 198.163L-13.241 182.252L-33.4536 196.045L-10.9271 212.36L9.28925 198.163Z" stroke="black"/>
<path d="M-13.2663 185.088L-13.2403 182.261L9.50532 198.174L7.11681 199.571L-13.2663 185.088Z" fill="black" fill-opacity="0.2"/>
<path d="M-5.06325 223.513L1.38915 218.62L1.45801 227.296L-4.99438 232.19L-5.06325 223.513Z" fill="#F4BC51" stroke="black" stroke-width="0.25"/>
<path d="M0.556307 223.065L0.535498 220.442L-4.19459 223.91L-4.17378 226.533L0.556307 223.065Z" fill="black"/>
<path d="M0.585993 226.496L0.565184 223.873L-4.16345 227.542L-4.14264 230.165L0.585993 226.496Z" fill="black"/>
<path d="M14.814 208.983L21.2663 204.089L21.3352 212.765L14.8828 217.659L14.814 208.983Z" fill="#F4BC51" stroke="black" stroke-width="0.25"/>
<path d="M20.4335 208.534L20.4127 205.912L15.6826 209.379L15.7034 212.002L20.4335 208.534Z" fill="black"/>
<path d="M20.4632 211.965L20.4424 209.343L15.7138 213.012L15.7346 215.634L20.4632 211.965Z" fill="black"/>
<path d="M34.6911 194.097L41.1435 189.203L41.2124 197.88L34.76 202.773L34.6911 194.097Z" fill="#F4BC51" stroke="black" stroke-width="0.25"/>
<path d="M40.3107 193.649L40.2899 191.026L35.5598 194.493L35.5806 197.116L40.3107 193.649Z" fill="black"/>
<path d="M40.3404 197.08L40.3196 194.457L35.5909 198.126L35.6118 200.749L40.3404 197.08Z" fill="black"/>
<path d="M4.87535 216.248L11.3278 211.354L11.3966 220.031L4.94422 224.924L4.87535 216.248Z" fill="#F4BC51" stroke="black" stroke-width="0.25"/>
<path d="M10.7094 215.596L10.6886 212.974L5.7439 216.644L5.76471 219.267L10.7094 215.596Z" fill="black"/>
<path d="M10.7406 219.229L10.7198 216.606L5.77515 220.277L5.79596 222.9L10.7406 219.229Z" fill="black"/>
<path d="M24.7525 201.717L31.2049 196.824L31.2738 205.5L24.8214 210.394L24.7525 201.717Z" fill="#F4BC51" stroke="black" stroke-width="0.25"/>
<path d="M30.5866 201.066L30.5658 198.443L25.6211 202.114L25.6419 204.736L30.5866 201.066Z" fill="black"/>
<path d="M30.6178 204.698L30.597 202.076L25.6523 205.746L25.6732 208.369L30.6178 204.698Z" fill="black"/>
<path d="M48 212H49V233H48V212Z" fill="#D8A543" stroke="black" stroke-width="0.25"/>
<path d="M48 221.553L49 220.854L50.2727 224L51 222.136V214.5L49 212H48V221.553Z" fill="#AE4E5C" stroke="black" stroke-width="0.25"/>
<path d="M45.2267 238.355L43.1849 239.745L41.8855 238.355V225.844L43.1849 227.036V204.993L45.2267 204.397V238.355Z" fill="#F4BC51"/>
<path d="M43.1849 227.036V239.745M43.1849 227.036L41.8855 225.844V238.355L43.1849 239.745M43.1849 227.036V204.993L45.2267 204.397V238.355L43.1849 239.745" stroke="black" stroke-width="0.5"/>
<path d="M12 258.61L14.0418 260L15.3412 258.61V246.099L14.0418 247.291V225.248L12 224.653V258.61Z" fill="#F4BC51"/>
<path d="M14.0418 247.291V260M14.0418 247.291L15.3412 246.099V258.61L14.0418 260M14.0418 247.291V225.248L12 224.653V258.61L14.0418 260" stroke="black" stroke-width="0.5"/>
<path d="M14.0419 225.15L45.2267 204V225.15L14.0419 246.653V225.15Z" fill="#F4BC51"/>
<path d="M45.2267 204L14.0419 225.15M45.2267 204V225.15L14.0419 246.653M45.2267 204H43.3704L12.1856 225.15M14.0419 225.15V246.653M14.0419 225.15H12.1856M14.0419 246.653H12.1856V225.15" stroke="black"/>
<path d="M17.4567 238.175C16.3653 238.857 15.642 238.435 15.6643 237.161L15.7523 232.118C15.7745 230.844 16.5286 229.499 17.6201 228.817C18.7115 228.135 19.4347 228.557 19.4125 229.831L19.3939 230.897L18.2473 231.613L18.2659 230.547C18.2752 230.014 18.0053 229.862 17.6084 230.11C17.2115 230.358 16.9302 230.855 16.9209 231.388L16.8329 236.431C16.8236 236.964 17.0935 237.117 17.4904 236.869C17.8873 236.621 18.1686 236.123 18.1779 235.59L18.2006 234.291L19.3471 233.574L19.3244 234.874C19.3022 236.148 18.5481 237.493 17.4567 238.175ZM22.1733 235.228C21.0488 235.931 20.3146 235.515 20.3375 234.202L20.4242 229.237C20.4471 227.924 21.2122 226.572 22.3367 225.869C23.4612 225.167 24.1955 225.582 24.1725 226.895L24.0859 231.86C24.063 233.173 23.2979 234.525 22.1733 235.228ZM22.196 233.928C22.626 233.659 22.9073 233.162 22.9173 232.59L23.0039 227.625C23.0139 227.053 22.744 226.9 22.314 227.169C21.884 227.438 21.6028 227.935 21.5928 228.507L21.5061 233.472C21.4961 234.044 21.7661 234.197 22.196 233.928ZM26.4033 232.456L25.2347 233.186L25.3935 224.088L26.5621 223.358L26.4952 227.192L27.8843 226.324L27.9512 222.49L29.1198 221.759L28.961 230.858L27.7924 231.588L27.8616 227.624L26.4725 228.492L26.4033 232.456ZM32.0137 229.079C30.8892 229.782 30.1549 229.366 30.1778 228.053L30.2645 223.088C30.2874 221.775 31.0525 220.423 32.177 219.72C33.3015 219.018 34.0358 219.433 34.0129 220.746L33.9262 225.711C33.9033 227.024 33.1382 228.376 32.0137 229.079ZM32.0364 227.779C32.4663 227.511 32.7476 227.013 32.7576 226.441L32.8443 221.476C32.8543 220.904 32.5843 220.752 32.1543 221.02C31.7244 221.289 31.4431 221.786 31.4331 222.358L31.3464 227.323C31.3365 227.895 31.6064 228.048 32.0364 227.779ZM38.9116 224.64L37.6989 225.398L36.9156 222.172L36.3092 222.551L36.2436 226.307L35.075 227.037L35.2338 217.939L37.0639 216.795C38.1774 216.1 38.879 216.51 38.8561 217.822L38.8387 218.823C38.8239 219.668 38.5149 220.504 38.0014 221.185L38.9116 224.64ZM36.3798 218.508L36.3319 221.251L36.9382 220.872C37.3903 220.59 37.6603 220.112 37.6696 219.579L37.688 218.527C37.6973 217.994 37.4381 217.847 36.9861 218.13L36.3798 218.508ZM39.6058 216.493L39.6284 215.193L43.3548 212.864L43.3321 214.164L42.0532 214.963L41.9171 222.762L40.7485 223.492L40.8846 215.693L39.6058 216.493Z" fill="#AE4E5C"/>
</svg>
