<svg width="270" height="120" viewBox="0 0 270 120" fill="none" xmlns="http://www.w3.org/2000/svg">
<path d="M246.177 4.97307L246.162 3.28332L151.747 33.0438L152.065 34.8253L178.646 53.5445L246.177 4.97307Z" fill="#F4BC51" stroke="black"/>
<path d="M178.536 51.7639L151.157 32.8672L219.842 -15.4952L228.938 -22.3785L246.619 3.40593L178.536 51.7639Z" fill="#F4BC51" stroke="black"/>
<path d="M156.456 34.3972L179.013 50.0904L178.97 3.30293L156.191 -12.0202L156.456 34.3972Z" fill="#AE4E5C" stroke="black"/>
<path d="M201.039 34.4026L230.564 13.3725L230.633 -33.7208L200.995 -12.6373L201.039 34.4026Z" fill="black"/>
<path d="M201.039 34.4024L230.564 13.3724L230.633 -2.43166L200.996 18.6518L201.039 34.4024Z" fill="#F4BC51"/>
<path d="M179.024 50.083L201.882 33.8255L201.951 -13.2678L178.98 3.0431L179.024 50.083Z" fill="#D96558" stroke="black"/>
<path d="M245.235 3.04241L245.307 -1.32807L245.304 -44.0509L227.374 -31.3342L227.417 15.7056L245.235 3.04241Z" fill="#D96558" stroke="black"/>
<path d="M239.365 -21.1936L240.631 -10.707C240.631 -10.707 239.339 -9.1448 238.173 -6.25922C237.007 -3.37364 236.578 0.419091 236.578 0.419091L236.285 0.602576L236.285 -6.47134C236.266 -6.77701 236.295 -7.11384 236.37 -7.46635C236.655 -8.21426 236.973 -8.95894 237.321 -9.69515C237.744 -10.683 237.418 -11.2584 236.875 -10.9017C236.691 -10.7691 236.518 -10.5705 236.383 -10.3379C236.248 -10.1054 236.16 -9.85258 236.132 -9.6203C236.104 -9.81728 236.015 -9.95915 235.88 -10.0231C235.746 -10.0871 235.573 -10.0696 235.389 -9.97324C234.843 -9.64927 234.508 -8.66103 234.94 -8.20709C235.288 -7.9063 235.606 -7.55888 235.891 -7.16727C235.966 -6.9086 235.995 -6.6078 235.976 -6.27868L235.976 0.795236L235.683 0.978721C235.683 0.978721 235.254 -2.26092 234.088 -3.70694C232.923 -5.15296 231.631 -5.08314 231.631 -5.08314L232.879 -17.1404L239.365 -21.1936Z" fill="#F4BC51"/>
<path d="M245.626 -43.8907L245.61 -45.5805L151.196 -15.82L151.513 -14.0384L178.094 4.68069L245.626 -43.8907Z" fill="#F4BC51" stroke="black"/>
<path d="M178.363 1.63096L149.664 -17.2272L218.349 -65.5896L246.446 -46.727L178.363 1.63096Z" fill="#F4BC51" stroke="black"/>
<path d="M180.605 2.75601L199.945 14.378L268.631 -33.9844L248.689 -45.602L180.605 2.75601Z" fill="#F4BC51" stroke="black"/>
<path d="M177.382 7.15241L169.808 1.40796L169.727 11.5925L177.301 17.3369L177.382 7.15241Z" fill="#F4BC51" stroke="black" stroke-width="0.25"/>
<path d="M170.786 6.62621L170.81 3.54751L176.363 7.61754L176.338 10.6962L170.786 6.62621Z" fill="black"/>
<path d="M170.751 10.6533L170.775 7.57461L176.326 11.8815L176.301 14.9602L170.751 10.6533Z" fill="black"/>
<path d="M165.716 -1.3764L158.142 -7.12085L158.061 3.06367L165.635 8.80812L165.716 -1.3764Z" fill="#F4BC51" stroke="black" stroke-width="0.25"/>
<path d="M158.868 -2.14118L158.892 -5.21987L164.696 -0.911026L164.672 2.16766L158.868 -2.14118Z" fill="black"/>
<path d="M158.831 2.12249L158.855 -0.956197L164.66 3.35265L164.635 6.43134L158.831 2.12249Z" fill="black"/>
<path d="M173.955 53.9574L173.94 52.2677L79.5254 82.0282L79.8429 83.8097L106.424 102.529L173.955 53.9574Z" fill="#F4BC51" stroke="black"/>
<path d="M106.314 100.748L78.9348 81.8515L147.62 33.4892L156.716 26.6059L174.397 52.3903L106.314 100.748Z" fill="#F4BC51" stroke="black"/>
<path d="M84.2341 83.3816L106.791 99.0748L106.748 52.2873L83.9687 36.9642L84.2341 83.3816Z" fill="#AE4E5C" stroke="black"/>
<path d="M128.817 83.3869L158.342 62.3569L158.411 15.2636L128.773 36.3471L128.817 83.3869Z" fill="black"/>
<path d="M128.817 83.3868L158.343 62.3568L158.411 46.5527L128.774 67.6362L128.817 83.3868Z" fill="#F4BC51"/>
<path d="M106.802 99.0674L129.66 82.8099L129.729 35.7166L106.758 52.0275L106.802 99.0674Z" fill="#D96558" stroke="black"/>
<path d="M173.013 52.0268L173.085 47.6563L173.082 4.93346L155.152 17.6501L155.195 64.69L173.013 52.0268Z" fill="#D96558" stroke="black"/>
<path d="M173.404 5.09363L173.388 3.40387L78.9739 33.1644L79.2914 34.9459L105.872 53.6651L173.404 5.09363Z" fill="#F4BC51" stroke="black"/>
<path d="M106.141 50.6153L77.4417 31.7571L146.127 -16.6052L174.225 2.25733L106.141 50.6153Z" fill="#F4BC51" stroke="black"/>
<path d="M108.383 51.7404L125.592 55.0075L194.277 6.64509L176.467 3.38239L108.383 51.7404Z" fill="#F4BC51" stroke="black"/>
<path d="M97.1075 39.6441L107.46 32.3327L116.748 38.6707L106.397 46.1677L97.1075 39.6441Z" stroke="black"/>
<path d="M107.475 33.5386L107.464 32.4254L116.847 38.6679L106.402 46.2562L106 45.7951L115.362 38.9567L107.475 33.5386Z" fill="black" stroke="black"/>
<path d="M107.472 33.6362L107.46 32.3371L97.0084 39.649L98.1059 40.2908L107.472 33.6362Z" fill="black" fill-opacity="0.2"/>
<path d="M105.16 56.1368L97.5862 50.3923L97.5053 60.5769L105.079 66.3213L105.16 56.1368Z" fill="#F4BC51" stroke="black" stroke-width="0.25"/>
<path d="M98.5639 55.6106L98.5883 52.5319L104.141 56.6019L104.116 59.6806L98.5639 55.6106Z" fill="black"/>
<path d="M98.5288 59.6377L98.5532 56.559L104.104 60.8659L104.079 63.9446L98.5288 59.6377Z" fill="black"/>
<path d="M93.4939 47.6082L85.9199 41.8638L85.8391 52.0483L93.4131 57.7927L93.4939 47.6082Z" fill="#F4BC51" stroke="black" stroke-width="0.25"/>
<path d="M86.6458 46.8434L86.6702 43.7647L92.4745 48.0736L92.4501 51.1523L86.6458 46.8434Z" fill="black"/>
<path d="M86.609 51.1071L86.6334 48.0284L92.4376 52.3373L92.4132 55.416L86.609 51.1071Z" fill="black"/>
<path d="M195.76 45.1971V10.2573L179.072 19.9049V53.2801L195.76 45.1971Z" fill="#D8A543" stroke="black"/>
<path d="M198.758 23.1641L195.76 21.73V45.3273L202.409 46.5007V39.1999L198.758 23.1641Z" fill="#D8A543" stroke="black"/>
<path d="M198.106 24.207L181.158 33.8546" stroke="black" stroke-linecap="round"/>
<path d="M198.628 29.1611L181.68 38.8087" stroke="black" stroke-linecap="round"/>
<path d="M199.932 33.333L182.983 42.9805" stroke="black" stroke-linecap="round"/>
<path d="M200.714 38.0264L183.765 47.6739" stroke="black" stroke-linecap="round"/>
<path d="M190.284 28.5093L196.542 24.9893V29.9434L190.284 33.4634V28.5093Z" fill="#AE4E5C"/>
<path d="M196.151 25.7715L194.586 26.6841M196.151 26.293L194.586 27.2056M196.542 24.9893L190.284 28.5093V33.4634L196.542 29.9434V24.9893ZM196.151 26.6841L194.586 27.5967V29.4219L196.151 28.5093V26.6841Z" stroke="black" stroke-width="0.25"/>
<path d="M182.723 32.6812L188.98 29.1611V34.1153L182.723 37.6353V32.6812Z" fill="#AE4E5C"/>
<path d="M188.589 29.9434L187.025 30.856M188.589 30.4649L187.025 31.3775M188.98 29.1611L182.723 32.6812V37.6353L188.98 34.1153V29.1611ZM188.589 30.856L187.025 31.7686V33.5938L188.589 32.6812V30.856Z" stroke="black" stroke-width="0.25"/>
<path d="M191.066 33.2027L197.324 29.6826V34.6368L191.066 38.1568V33.2027Z" fill="#AE4E5C"/>
<path d="M196.933 30.4649L195.369 31.3775M196.933 30.9863L195.369 31.8989M197.324 29.6826L191.066 33.2027V38.1568L197.324 34.6368V29.6826ZM196.933 31.3775L195.369 32.2901V34.1153L196.933 33.2027V31.3775Z" stroke="black" stroke-width="0.25"/>
<path d="M183.505 37.6353L189.763 34.1152V39.0694L183.505 42.5894V37.6353Z" fill="#AE4E5C"/>
<path d="M189.372 34.8975L187.807 35.8101M189.372 35.419L187.807 36.3316M189.763 34.1152L183.505 37.6353V42.5894L189.763 39.0694V34.1152ZM189.372 35.8101L187.807 36.7227V38.5479L189.372 37.6353V35.8101Z" stroke="black" stroke-width="0.25"/>
<path d="M192.109 37.1138L198.367 33.5938V38.5479L192.109 42.0679V37.1138Z" fill="#AE4E5C"/>
<path d="M197.976 34.376L196.412 35.2886M197.976 34.8975L196.412 35.8101M198.367 33.5938L192.109 37.1138V42.0679L198.367 38.5479V33.5938ZM197.976 35.2886L196.412 36.2012V38.0264L197.976 37.1138V35.2886Z" stroke="black" stroke-width="0.25"/>
<path d="M184.287 41.8072L190.545 38.2871V43.2413L184.287 46.7613V41.8072Z" fill="#AE4E5C"/>
<path d="M190.154 39.0693L188.589 39.9819M190.154 39.5908L188.589 40.5034M190.545 38.2871L184.287 41.8072V46.7613L190.545 43.2413V38.2871ZM190.154 39.9819L188.589 40.8946V42.7198L190.154 41.8072V39.9819Z" stroke="black" stroke-width="0.25"/>
<path d="M192.892 42.0679L199.149 38.5479V43.502L192.892 47.022V42.0679Z" fill="#AE4E5C"/>
<path d="M198.758 39.3301L197.194 40.2427M198.758 39.8516L197.194 40.7642M199.149 38.5479L192.892 42.0679V47.022L199.149 43.502V38.5479ZM198.758 40.2427L197.194 41.1553V42.9805L198.758 42.0679V40.2427Z" stroke="black" stroke-width="0.25"/>
<path d="M185.069 46.7615L191.327 43.2415V48.1956L185.069 51.7156V46.7615Z" fill="#AE4E5C"/>
<path d="M190.936 44.0237L189.372 44.9363M190.936 44.5452L189.372 45.4578M191.327 43.2415L185.069 46.7615V51.7156L191.327 48.1956V43.2415ZM190.936 44.9363L189.372 45.8489V47.6741L190.936 46.7615V44.9363Z" stroke="black" stroke-width="0.25"/>
<path d="M127.89 55.2573L110.942 64.9049" stroke="black" stroke-linecap="round"/>
<path d="M119.942 59.7774L126.199 56.2573V61.2115L119.942 64.7315V59.7774Z" fill="#D8A543"/>
<path d="M125.808 57.0396L124.244 57.9522M125.808 57.561L124.244 58.4737M126.199 56.2573L119.942 59.7774V64.7315L126.199 61.2115V56.2573ZM125.808 57.9522L124.244 58.8648V60.69L125.808 59.7774V57.9522Z" stroke="black" stroke-width="0.25"/>
<path d="M112.942 63.7774L119.199 60.2573V65.2115L112.942 68.7315V63.7774Z" fill="#D8A543"/>
<path d="M118.808 61.0396L117.244 61.9522M118.808 61.561L117.244 62.4737M119.199 60.2573L112.942 63.7774V68.7315L119.199 65.2115V60.2573ZM118.808 61.9522L117.244 62.8648V64.69L118.808 63.7774V61.9522Z" stroke="black" stroke-width="0.25"/>
<path d="M127.89 69.2573L110.942 78.9049" stroke="black" stroke-linecap="round"/>
<path d="M119.942 73.7774L126.199 70.2573V75.2115L119.942 78.7315V73.7774Z" fill="#D8A543"/>
<path d="M125.808 71.0396L124.244 71.9522M125.808 71.561L124.244 72.4737M126.199 70.2573L119.942 73.7774V78.7315L126.199 75.2115V70.2573ZM125.808 71.9522L124.244 72.8648V74.69L125.808 73.7774V71.9522Z" stroke="black" stroke-width="0.25"/>
<path d="M112.942 77.7774L119.199 74.2573V79.2115L112.942 82.7315V77.7774Z" fill="#D8A543"/>
<path d="M118.808 75.0396L117.244 75.9522M118.808 75.561L117.244 76.4737M119.199 74.2573L112.942 77.7774V82.7315L119.199 79.2115V74.2573ZM118.808 75.9522L117.244 76.8648V78.69L118.808 77.7774V75.9522Z" stroke="black" stroke-width="0.25"/>
<path d="M127.89 76.2573L110.942 85.9049" stroke="black" stroke-linecap="round"/>
<path d="M119.942 80.7774L126.199 77.2573V82.2115L119.942 85.7315V80.7774Z" fill="#D8A543"/>
<path d="M125.808 78.0396L124.244 78.9522M125.808 78.561L124.244 79.4737M126.199 77.2573L119.942 80.7774V85.7315L126.199 82.2115V77.2573ZM125.808 78.9522L124.244 79.8648V81.69L125.808 80.7774V78.9522Z" stroke="black" stroke-width="0.25"/>
<path d="M112.942 84.7774L119.199 81.2573V86.2115L112.942 89.7315V84.7774Z" fill="#D8A543"/>
<path d="M118.808 82.0396L117.244 82.9522M118.808 82.561L117.244 83.4737M119.199 81.2573L112.942 84.7774V89.7315L119.199 86.2115V81.2573ZM118.808 82.9522L117.244 83.8648V85.69L118.808 84.7774V82.9522Z" stroke="black" stroke-width="0.25"/>
<path d="M127.89 62.2573L110.942 71.9049" stroke="black" stroke-linecap="round"/>
<path d="M119.942 66.7774L126.199 63.2573V68.2115L119.942 71.7315V66.7774Z" fill="#D8A543"/>
<path d="M125.808 64.0396L124.244 64.9522M125.808 64.561L124.244 65.4737M126.199 63.2573L119.942 66.7774V71.7315L126.199 68.2115V63.2573ZM125.808 64.9522L124.244 65.8648V67.69L125.808 66.7774V64.9522Z" stroke="black" stroke-width="0.25"/>
<path d="M112.942 70.7774L119.199 67.2573V72.2115L112.942 75.7315V70.7774Z" fill="#D8A543"/>
<path d="M118.808 68.0396L117.244 68.9522M118.808 68.561L117.244 69.4737M119.199 67.2573L112.942 70.7774V75.7315L119.199 72.2115V67.2573ZM118.808 68.9522L117.244 69.8648V71.69L118.808 70.7774V68.9522Z" stroke="black" stroke-width="0.25"/>
<path d="M182.201 33.0725L178.942 31.2473V52.1069L185.721 56.1484L202.409 46.5009V39.0696L185.721 48.7172L182.201 33.0725Z" fill="#F4BC51"/>
<path d="M185.721 48.7172L182.201 33.0725L178.942 31.2473V52.1069L185.721 56.1484M185.721 48.7172V56.1484M185.721 48.7172L202.409 39.0696V46.5009L185.721 56.1484" stroke="black"/>
<path d="M167.143 28.7908L168.409 39.2774C168.409 39.2774 167.117 40.8396 165.951 43.7252C164.785 46.6107 164.356 50.4035 164.356 50.4035L164.063 50.587V43.513C164.044 43.2074 164.073 42.8705 164.148 42.518C164.433 41.7701 164.751 41.0254 165.099 40.2892C165.522 39.3013 165.196 38.7259 164.653 39.0827C164.469 39.2153 164.296 39.4139 164.161 39.6464C164.026 39.879 163.938 40.1318 163.91 40.3641C163.882 40.1671 163.793 40.0252 163.659 39.9612C163.524 39.8972 163.351 39.9148 163.167 40.0111C162.621 40.3351 162.286 41.3233 162.718 41.7773C163.066 42.0781 163.384 42.4255 163.669 42.8171C163.744 43.0758 163.773 43.3766 163.755 43.7057V50.7796L163.461 50.9631C163.461 50.9631 163.032 47.7235 161.866 46.2774C160.701 44.8314 159.409 44.9012 159.409 44.9012L160.657 32.844L167.143 28.7908Z" fill="#F4BC51"/>
<path d="M110.084 68.6365H109.006V104.452L109.545 104.636L110.084 104.452V68.6365Z" fill="#545454" stroke="black" stroke-width="0.2"/>
<path d="M116.012 65.8013L109.539 70.4584V69.0376L116.012 64.4595V65.8013Z" fill="#545454" stroke="black" stroke-width="0.2"/>
<path d="M109.539 70.4584L102.988 65.8013V64.4595L109.539 69.0376V70.4584Z" fill="#545454" stroke="black" stroke-width="0.2"/>
<path d="M116.012 64.4594L109.539 69.1164L102.988 64.4594L109.539 59.7234L116.012 64.4594Z" fill="#545454" stroke="black" stroke-width="0.2"/>
<path d="M115.293 64.9092V54.9092H103.796V64.9092L109.545 68.8183L115.293 64.9092Z" fill="#D8A543" stroke="black" stroke-width="0.2"/>
<path d="M103.796 54.9092V64.9092L109.545 68.8183V54.9092H103.796Z" fill="#F4BC51" stroke="black" stroke-width="0.2"/>
<path d="M109.545 61.3637L102 56V54.4546L109.545 59.7273V61.3637Z" fill="#545454" stroke="black" stroke-width="0.2"/>
<path d="M117 56L109.545 61.3637V59.7273L117 54.4546V56Z" fill="#545454" stroke="black" stroke-width="0.2"/>
<path d="M117 54.4545L109.545 59.8182L102 54.4545L109.545 49L117 54.4545Z" fill="#545454" stroke="black" stroke-width="0.2"/>
<path d="M104.695 54.6365V52.6365L109.545 56.1819V58.1819L104.695 54.6365Z" fill="#545454" stroke="black" stroke-width="0.2"/>
<path d="M114.485 54.6365V52.6365L109.545 56.1819V58.091L114.485 54.6365Z" fill="#545454" stroke="black" stroke-width="0.2"/>
<path d="M104.695 52.6363L109.545 56.1817L114.485 52.6363L109.545 49.0908L104.695 52.6363Z" fill="#545454" stroke="black" stroke-width="0.2"/>
<path d="M9.08395 -3.36353H8.0061V32.4524L8.54503 32.6365L9.08395 32.4524V-3.36353Z" fill="#545454" stroke="black" stroke-width="0.2"/>
</svg>
