<svg width="233" height="187" viewBox="0 0 233 187" fill="none" xmlns="http://www.w3.org/2000/svg">
<path d="M166.955 71.8068L166.94 70.1171L72.5254 99.8776L72.8429 101.659L99.4236 120.378L166.955 71.8068Z" fill="#F4BC51" stroke="black"/>
<path d="M99.3136 118.598L71.9348 99.7009L140.62 51.3385L149.716 44.4553L167.397 70.2397L99.3136 118.598Z" fill="#F4BC51" stroke="black"/>
<path d="M77.2342 101.231L99.7916 116.924L99.7479 70.1367L76.9688 54.8136L77.2342 101.231Z" fill="#AE4E5C" stroke="black"/>
<path d="M121.817 101.236L151.342 80.2063L151.411 33.113L121.773 54.1964L121.817 101.236Z" fill="black"/>
<path d="M121.817 101.236L151.343 80.2061L151.411 64.4021L121.774 85.4856L121.817 101.236Z" fill="#F4BC51"/>
<path d="M99.8017 116.917L122.66 100.659L122.729 53.566L99.7584 69.8768L99.8017 116.917Z" fill="#D96558" stroke="black"/>
<path d="M166.013 69.8762L166.085 65.5057L166.082 22.7828L148.152 35.4995L148.195 82.5394L166.013 69.8762Z" fill="#D96558" stroke="black"/>
<path d="M166.404 22.943L166.388 21.2532L71.9739 51.0138L72.2914 52.7953L98.8721 71.5144L166.404 22.943Z" fill="#F4BC51" stroke="black"/>
<path d="M99.1411 68.4647L70.4417 49.6065L139.127 1.24412L167.225 20.1067L99.1411 68.4647Z" fill="#F4BC51" stroke="black"/>
<path d="M98.1602 73.9861L90.5862 68.2417L90.5053 78.4262L98.0794 84.1707L98.1602 73.9861Z" fill="#F4BC51" stroke="black" stroke-width="0.25"/>
<path d="M91.5639 73.46L91.5883 70.3813L97.1407 74.4513L97.1162 77.53L91.5639 73.46Z" fill="black"/>
<path d="M91.5288 77.4871L91.5532 74.4084L97.1039 78.7152L97.0794 81.794L91.5288 77.4871Z" fill="black"/>
<path d="M86.4939 65.4576L78.9199 59.7131L78.8391 69.8977L86.4131 75.6421L86.4939 65.4576Z" fill="#F4BC51" stroke="black" stroke-width="0.25"/>
<path d="M79.6458 64.6928L79.6702 61.6141L85.4745 65.923L85.4501 69.0016L79.6458 64.6928Z" fill="black"/>
<path d="M79.609 68.9565L79.6334 65.8778L85.4376 70.1866L85.4132 73.2653L79.609 68.9565Z" fill="black"/>
<path d="M97.9554 119.807L97.9399 118.117L3.5254 147.878L3.84292 149.659L30.4236 168.378L97.9554 119.807Z" fill="#F4BC51" stroke="black"/>
<path d="M30.3136 166.598L2.93475 147.701L71.6203 99.3385L80.7164 92.4553L98.3971 118.24L30.3136 166.598Z" fill="#F4BC51" stroke="black"/>
<path d="M8.23425 149.231L30.7916 164.924L30.7479 118.137L7.96877 102.814L8.23425 149.231Z" fill="#AE4E5C" stroke="black"/>
<path d="M52.8167 149.236L82.3423 128.206L82.4112 81.113L52.7734 102.196L52.8167 149.236Z" fill="black"/>
<path d="M52.8168 149.236L82.3424 128.206L82.4112 112.402L52.7735 133.486L52.8168 149.236Z" fill="#F4BC51"/>
<path d="M30.8018 164.917L53.6606 148.659L53.7294 101.566L30.7585 117.877L30.8018 164.917Z" fill="#D96558" stroke="black"/>
<path d="M97.0128 117.876L97.0851 113.506L97.0816 70.7828L79.1518 83.4995L79.1951 130.539L97.0128 117.876Z" fill="#D96558" stroke="black"/>
<path d="M97.4039 70.943L97.3884 69.2532L2.97389 99.0138L3.29141 100.795L29.8721 119.514L97.4039 70.943Z" fill="#F4BC51" stroke="black"/>
<path d="M30.1411 116.465L1.44167 97.6065L70.1272 49.2441L98.2246 68.1067L30.1411 116.465Z" fill="#F4BC51" stroke="black"/>
<path d="M29.1602 121.986L21.5862 116.242L21.5053 126.426L29.0794 132.171L29.1602 121.986Z" fill="#F4BC51" stroke="black" stroke-width="0.25"/>
<path d="M22.5638 121.46L22.5882 118.381L28.1405 122.451L28.1161 125.53L22.5638 121.46Z" fill="black"/>
<path d="M22.5289 125.487L22.5534 122.408L28.104 126.715L28.0796 129.794L22.5289 125.487Z" fill="black"/>
<path d="M17.4939 113.458L9.91989 107.713L9.83905 117.898L17.4131 123.642L17.4939 113.458Z" fill="#F4BC51" stroke="black" stroke-width="0.25"/>
<path d="M10.6458 112.693L10.6702 109.614L16.4745 113.923L16.4501 117.002L10.6458 112.693Z" fill="black"/>
<path d="M10.609 116.956L10.6334 113.878L16.4376 118.187L16.4132 121.265L10.609 116.956Z" fill="black"/>
<path d="M193.955 89.8068L193.94 88.1171L99.5254 117.878L99.8429 119.659L126.424 138.378L193.955 89.8068Z" fill="#F4BC51" stroke="black"/>
<path d="M126.314 136.598L98.9348 117.701L167.62 69.3385L176.716 62.4553L194.397 88.2397L126.314 136.598Z" fill="#F4BC51" stroke="black"/>
<path d="M104.234 119.231L126.791 134.924L126.748 88.1367L103.969 72.8136L104.234 119.231Z" fill="#AE4E5C" stroke="black"/>
<path d="M148.817 119.236L178.342 98.2063L178.411 51.113L148.773 72.1964L148.817 119.236Z" fill="black"/>
<path d="M148.817 119.236L178.343 98.2061L178.411 82.4021L148.774 103.486L148.817 119.236Z" fill="#F4BC51"/>
<path d="M126.802 134.917L149.66 118.659L149.729 71.566L126.758 87.8768L126.802 134.917Z" fill="#D96558" stroke="black"/>
<path d="M193.013 87.8762L193.085 83.5057L193.082 40.7828L175.152 53.4995L175.195 100.539L193.013 87.8762Z" fill="#D96558" stroke="black"/>
<path d="M193.404 40.943L193.388 39.2532L98.9739 69.0138L99.2914 70.7953L125.872 89.5144L193.404 40.943Z" fill="#F4BC51" stroke="black"/>
<path d="M126.141 86.4647L97.4417 67.6065L166.127 19.2441L194.225 38.1067L126.141 86.4647Z" fill="#F4BC51" stroke="black"/>
<path d="M117.108 75.4935L127.46 68.182L136.748 74.52L126.397 82.0171L117.108 75.4935Z" stroke="black"/>
<path d="M127.475 69.3879L127.464 68.2747L136.847 74.5173L126.402 82.1055L126 81.6445L135.362 74.8061L127.475 69.3879Z" fill="black" stroke="black"/>
<path d="M127.472 69.4856L127.46 68.1865L117.008 75.4983L118.106 76.1402L127.472 69.4856Z" fill="black" fill-opacity="0.2"/>
<path d="M125.16 91.9861L117.586 86.2417L117.505 96.4262L125.079 102.171L125.16 91.9861Z" fill="#F4BC51" stroke="black" stroke-width="0.25"/>
<path d="M118.564 91.46L118.588 88.3813L124.141 92.4513L124.116 95.53L118.564 91.46Z" fill="black"/>
<path d="M118.529 95.4871L118.553 92.4084L124.104 96.7152L124.079 99.794L118.529 95.4871Z" fill="black"/>
<path d="M113.494 83.4576L105.92 77.7131L105.839 87.8977L113.413 93.6421L113.494 83.4576Z" fill="#F4BC51" stroke="black" stroke-width="0.25"/>
<path d="M106.646 82.6928L106.67 79.6141L112.474 83.923L112.45 87.0016L106.646 82.6928Z" fill="black"/>
<path d="M106.609 86.9565L106.633 83.8778L112.438 88.1866L112.413 91.2653L106.609 86.9565Z" fill="black"/>
<path d="M124.955 137.807L124.94 136.117L30.5254 165.878L30.8429 167.659L57.4236 186.378L124.955 137.807Z" fill="#F4BC51" stroke="black"/>
<path d="M57.3136 184.598L29.9348 165.701L98.6203 117.339L107.716 110.455L125.397 136.24L57.3136 184.598Z" fill="#F4BC51" stroke="black"/>
<path d="M35.2342 167.231L57.7916 182.924L57.7479 136.137L34.9688 120.814L35.2342 167.231Z" fill="#AE4E5C" stroke="black"/>
<path d="M79.8167 167.236L109.342 146.206L109.411 99.113L79.7734 120.196L79.8167 167.236Z" fill="black"/>
<path d="M79.8168 167.236L109.342 146.206L109.411 130.402L79.7735 151.486L79.8168 167.236Z" fill="#F4BC51"/>
<path d="M57.8018 182.917L80.6606 166.659L80.7294 119.566L57.7585 135.877L57.8018 182.917Z" fill="#D96558" stroke="black"/>
<path d="M124.013 135.876L124.085 131.506L124.082 88.7828L106.152 101.499L106.195 148.539L124.013 135.876Z" fill="#D96558" stroke="black"/>
<path d="M124.404 88.943L124.388 87.2532L29.9739 117.014L30.2914 118.795L56.8721 137.514L124.404 88.943Z" fill="#F4BC51" stroke="black"/>
<path d="M57.1411 134.465L28.4417 115.606L97.1272 67.2441L125.225 86.1067L57.1411 134.465Z" fill="#F4BC51" stroke="black"/>
<path d="M48.1077 123.494L58.4604 116.182L67.7481 122.52L57.3971 130.017L48.1077 123.494Z" stroke="black"/>
<path d="M58.4745 117.388L58.4643 116.275L67.8472 122.517L57.4014 130.106L57.0003 129.644L66.3618 122.806L58.4745 117.388Z" fill="black" stroke="black"/>
<path d="M58.472 117.486L58.46 116.186L48.0084 123.498L49.1059 124.14L58.472 117.486Z" fill="black" fill-opacity="0.2"/>
<path d="M56.1602 139.986L48.5862 134.242L48.5053 144.426L56.0794 150.171L56.1602 139.986Z" fill="#F4BC51" stroke="black" stroke-width="0.25"/>
<path d="M49.5638 139.46L49.5882 136.381L55.1405 140.451L55.1161 143.53L49.5638 139.46Z" fill="black"/>
<path d="M49.5289 143.487L49.5534 140.408L55.104 144.715L55.0796 147.794L49.5289 143.487Z" fill="black"/>
<path d="M60.0451 141.598L67.6192 135.854L67.7 146.038L60.126 151.783L60.0451 141.598Z" fill="#F4BC51" stroke="black" stroke-width="0.25"/>
<path d="M66.6415 141.072L66.6171 137.993L61.0648 142.063L61.0892 145.142L66.6415 141.072Z" fill="black"/>
<path d="M66.6764 145.099L66.652 142.02L61.1013 146.327L61.1258 149.406L66.6764 145.099Z" fill="black"/>
<path d="M129.045 92.5982L136.619 86.8538L136.7 97.0383L129.126 102.783L129.045 92.5982Z" fill="#F4BC51" stroke="black" stroke-width="0.25"/>
<path d="M135.641 92.072L135.617 88.9933L130.065 93.0633L130.089 96.142L135.641 92.072Z" fill="black"/>
<path d="M135.677 96.0991L135.652 93.0204L130.101 97.3273L130.126 100.406L135.677 96.0991Z" fill="black"/>
<path d="M108.035 108.819L113.958 104.327L114.022 112.292L108.099 116.784L108.035 108.819Z" fill="#F4BC51" stroke="black" stroke-width="0.25"/>
<path d="M113.194 108.408L113.175 106L108.833 109.183L108.852 111.591L113.194 108.408Z" fill="black"/>
<path d="M113.221 111.557L113.202 109.15L108.861 112.518L108.881 114.925L113.221 111.557Z" fill="black"/>
<path d="M177.035 59.8193L182.958 55.3271L183.022 63.2915L177.099 67.7838L177.035 59.8193Z" fill="#F4BC51" stroke="black" stroke-width="0.25"/>
<path d="M182.194 59.4078L182.175 57.0002L177.833 60.1831L177.852 62.5907L182.194 59.4078Z" fill="black"/>
<path d="M182.221 62.5573L182.202 60.1496L177.861 63.5177L177.881 65.9253L182.221 62.5573Z" fill="black"/>
<path d="M70.0451 134.598L77.6192 128.854L77.7 139.038L70.126 144.783L70.0451 134.598Z" fill="#F4BC51" stroke="black" stroke-width="0.25"/>
<path d="M76.6415 134.072L76.6171 130.993L71.0648 135.063L71.0892 138.142L76.6415 134.072Z" fill="black"/>
<path d="M76.6764 138.099L76.652 135.02L71.1013 139.327L71.1258 142.406L76.6764 138.099Z" fill="black"/>
<path d="M139.045 85.5982L146.619 79.8538L146.7 90.0383L139.126 95.7827L139.045 85.5982Z" fill="#F4BC51" stroke="black" stroke-width="0.25"/>
<path d="M145.641 85.072L145.617 81.9933L140.065 86.0633L140.089 89.142L145.641 85.072Z" fill="black"/>
<path d="M145.677 89.0991L145.652 86.0204L140.101 90.3273L140.126 93.406L145.677 89.0991Z" fill="black"/>
<path d="M115.855 103.345L121.778 98.8529L121.842 106.817L115.919 111.31L115.855 103.345Z" fill="#F4BC51" stroke="black" stroke-width="0.25"/>
<path d="M121.014 102.934L120.995 100.526L116.653 103.709L116.672 106.117L121.014 102.934Z" fill="black"/>
<path d="M121.041 106.083L121.022 103.676L116.681 107.044L116.701 109.451L121.041 106.083Z" fill="black"/>
<path d="M184.855 54.3452L190.778 49.8529L190.842 57.8174L184.919 62.3097L184.855 54.3452Z" fill="#F4BC51" stroke="black" stroke-width="0.25"/>
<path d="M190.014 53.9337L189.995 51.5261L185.653 54.7089L185.672 57.1165L190.014 53.9337Z" fill="black"/>
<path d="M190.041 57.0831L190.022 54.6755L185.681 58.0436L185.701 60.4512L190.041 57.0831Z" fill="black"/>
<path d="M44.4939 131.458L36.9199 125.713L36.8391 135.898L44.4131 141.642L44.4939 131.458Z" fill="#F4BC51" stroke="black" stroke-width="0.25"/>
<path d="M37.6458 130.693L37.6702 127.614L43.4745 131.923L43.4501 135.002L37.6458 130.693Z" fill="black"/>
<path d="M37.609 134.956L37.6334 131.878L43.4376 136.187L43.4132 139.265L37.609 134.956Z" fill="black"/>
<path d="M56.8802 100.859L58.7953 99.5602L189.073 8.24062L191 6.93328L194.073 4.84937V39.8591L56.8802 136.452V100.859Z" fill="#D96558"/>
<path d="M56.8802 100.859V136.452L55.0001 135.443V99.8494L56.8802 100.859Z" fill="#D96558"/>
<path d="M56.8802 100.859L55.0001 99.8494L56.8802 98.3494L58.7953 99.5602L56.8802 100.859Z" fill="#D96558"/>
<path d="M191 4.84937H194.073L191 6.93328L189.073 6.34937L191 4.84937Z" fill="#D96558"/>
<path d="M194.073 4.84937V39.8591L56.8802 136.452M194.073 4.84937H191L189.073 6.34937M194.073 4.84937L191 6.93328M56.8802 100.859V136.452M56.8802 100.859L55.0001 99.8494M56.8802 100.859L58.7953 99.5602M56.8802 136.452L55.0001 135.443V99.8494M55.0001 99.8494L56.8802 98.3494L58.7953 99.5602M189.073 6.34937L191 6.93328M189.073 6.34937V8.24062M191 6.93328L189.073 8.24062M189.073 8.24062L58.7953 99.5602" stroke="black"/>
<path d="M119.45 77.7176C119.45 76.9113 119.504 77.2448 115.977 71.1039C115.256 69.8497 113.193 71.2908 112.472 73.5583C108.915 84.7326 109 84.2535 109 85.0344C109 87.2361 111.339 87.3836 114.225 85.363C117.11 83.3425 119.45 79.9193 119.45 77.7176ZM114.225 73.4029L117.164 78.521L111.285 82.637L114.225 73.4029ZM135.124 66.7421C135.124 65.9358 135.179 66.2687 131.652 60.1278C130.932 58.8736 128.869 60.3147 128.147 62.5822C124.591 73.7565 124.676 73.2774 124.676 74.0583C124.676 76.26 127.014 76.4075 129.9 74.3869C132.786 72.3664 135.124 68.9438 135.124 66.7421ZM126.961 71.6609L129.9 62.4268L132.839 67.5449L126.961 71.6609ZM130.553 75.5243L123.369 80.555V65.8664C124.328 64.6816 125.049 63.1212 125.262 61.6874L130.553 57.9827C130.914 57.73 131.206 57.1686 131.206 56.728V56.9848C131.206 56.5443 130.914 56.3922 130.553 56.6448L124.66 60.7712C124.064 60.2257 123.127 60.2498 122.062 60.9955C120.997 61.7413 120.06 63.0292 119.464 64.4093L113.571 68.5356C113.211 68.7883 112.918 69.3498 112.918 69.7903V69.5335C112.918 69.974 113.211 70.1262 113.571 69.8735L118.862 66.1688C119.076 67.303 119.796 67.8553 120.756 67.6958V82.3843L113.571 87.4151C113.211 87.6677 112.918 88.2292 112.918 88.6697L113.571 88.6698C113.211 88.9224 113.571 89.1103 113.571 88.6698L130.553 76.779C130.553 77.2195 130.914 76.5263 130.553 76.779L131.206 75.8643C131.206 75.4238 130.914 75.2716 130.553 75.5243Z" fill="#F4BC51"/>
<path d="M225.084 36.6365H224.006V72.4524L224.545 72.6365L225.084 72.4524V36.6365Z" fill="#545454" stroke="black" stroke-width="0.2"/>
<path d="M231.012 33.8013L224.539 38.4584V37.0376L231.012 32.4595V33.8013Z" fill="#545454" stroke="black" stroke-width="0.2"/>
<path d="M224.539 38.4584L217.988 33.8013V32.4595L224.539 37.0376V38.4584Z" fill="#545454" stroke="black" stroke-width="0.2"/>
<path d="M231.012 32.4594L224.539 37.1164L217.988 32.4594L224.539 27.7234L231.012 32.4594Z" fill="#545454" stroke="black" stroke-width="0.2"/>
<path d="M230.293 32.9092V22.9092H218.796V32.9092L224.545 36.8183L230.293 32.9092Z" fill="#D8A543" stroke="black" stroke-width="0.2"/>
<path d="M218.796 22.9092V32.9092L224.545 36.8183V22.9092H218.796Z" fill="#F4BC51" stroke="black" stroke-width="0.2"/>
<path d="M224.545 29.3637L217 24V22.4546L224.545 27.7273V29.3637Z" fill="#545454" stroke="black" stroke-width="0.2"/>
<path d="M232 24L224.545 29.3637V27.7273L232 22.4546V24Z" fill="#545454" stroke="black" stroke-width="0.2"/>
<path d="M232 22.4545L224.545 27.8182L217 22.4545L224.545 17L232 22.4545Z" fill="#545454" stroke="black" stroke-width="0.2"/>
<path d="M219.695 22.6365V20.6365L224.545 24.1819V26.1819L219.695 22.6365Z" fill="#545454" stroke="black" stroke-width="0.2"/>
<path d="M229.485 22.6365V20.6365L224.545 24.1819V26.091L229.485 22.6365Z" fill="#545454" stroke="black" stroke-width="0.2"/>
<path d="M219.695 20.6363L224.545 24.1817L229.485 20.6363L224.545 17.0908L219.695 20.6363Z" fill="#545454" stroke="black" stroke-width="0.2"/>
</svg>
