<svg width="1366" height="619" viewBox="0 0 1366 619" fill="none" xmlns="http://www.w3.org/2000/svg">
<path d="M-133 -597.925L1124.5 292.076" stroke="#D8A543" stroke-width="50"/>
<path d="M-119.686 -591.481L1126.5 295" stroke="#F4BC51" stroke-width="5" stroke-dasharray="25 25"/>
<path d="M1432.5 -685.925L175 204.076" stroke="#D8A543" stroke-width="50"/>
<path d="M1419.19 -679.481L173 207" stroke="#F4BC51" stroke-width="5" stroke-dasharray="25 25"/>
<path d="M-791 -762.925L466.5 127.076" stroke="#D8A543" stroke-width="50"/>
<path d="M-777.686 -756.481L468.5 130" stroke="#F4BC51" stroke-width="5" stroke-dasharray="25 25"/>
<path d="M1147.5 -340.925L-110 549.076" stroke="#D8A543" stroke-width="50"/>
<path d="M1134.19 -334.481L-112 552" stroke="#F4BC51" stroke-width="5" stroke-dasharray="25 25"/>
<path d="M2247.5 -701.925L990 188.076" stroke="#D8A543" stroke-width="50"/>
<path d="M2234.19 -695.481L988 191" stroke="#F4BC51" stroke-width="5" stroke-dasharray="25 25"/>
<path d="M1847.5 -237.925L590 652.076" stroke="#D8A543" stroke-width="50"/>
<path d="M1834.19 -231.481L588 655" stroke="#F4BC51" stroke-width="5" stroke-dasharray="25 25"/>
<path d="M621.5 417.075L-636 1307.08" stroke="#D8A543" stroke-width="50"/>
<path d="M608.186 423.519L-638 1310" stroke="#F4BC51" stroke-width="5" stroke-dasharray="25 25"/>
<path d="M-268 -92.925L989.5 797.076" stroke="#D8A543" stroke-width="50"/>
<path d="M-254.686 -86.4812L991.5 800" stroke="#F4BC51" stroke-width="5" stroke-dasharray="25 25"/>
<path d="M293 284L690 562L1086 284L688 3L293 284Z" fill="#D8A543"/>
</svg>
