<svg width="53" height="53" viewBox="0 0 53 53" fill="none" xmlns="http://www.w3.org/2000/svg">
<g id="teenyicons:users-solid" clip-path="url(#clip0_13_629)">
<path id="Vector" d="M51.9817 19.561C52.0047 17.9755 51.7105 16.4013 51.1162 14.9312C50.522 13.461 49.6397 12.1245 48.5214 11.0003C47.403 9.87615 46.0711 8.98697 44.604 8.3851C43.137 7.78323 41.5643 7.48083 39.9787 7.49567C38.393 7.51052 36.8264 7.84232 35.3708 8.47155C33.9153 9.10078 32.6003 10.0147 31.5031 11.1597C30.406 12.3046 29.5489 13.6574 28.9823 15.1384C28.4157 16.6194 28.151 18.1988 28.2037 19.7837C28.1807 21.3692 28.4749 22.9434 29.0692 24.4136C29.6634 25.8837 30.5457 27.2202 31.664 28.3444C32.7824 29.4686 34.1143 30.3577 35.5814 30.9596C37.0484 31.5615 38.621 31.8639 40.2067 31.849C41.7924 31.8342 43.359 31.5024 44.8146 30.8732C46.2701 30.2439 47.5851 29.33 48.6823 28.185C49.7794 27.0401 50.6365 25.6874 51.2031 24.2063C51.7697 22.7253 52.0344 21.1459 51.9817 19.561ZM21.3493 13.0497C21.3197 9.8947 20.0381 6.8807 17.7863 4.6707C15.5346 2.46069 12.4971 1.23572 9.34213 1.26526L0.855339 1.34472L1.20538 38.7314L9.69217 38.652C12.8471 38.6225 15.8611 37.3408 18.0711 35.089C20.2811 32.8373 21.5061 29.7998 21.4766 26.6448L21.3493 13.0497ZM18.2165 43.6708L18.2006 41.9714L1.20661 42.1305L1.30208 52.3269L9.79906 52.2474C12.0526 52.2263 14.2055 51.3108 15.784 49.7024C17.3626 48.094 18.2376 45.9244 18.2165 43.6708Z" fill="#F249AA"/>
<path id="Vector_2" d="M38.5776 40.0811C38.5565 37.8275 37.6411 35.6747 36.0326 34.0961C34.4242 32.5175 32.2546 31.6426 30.0011 31.6637C27.7475 31.6848 25.5947 32.6002 24.0161 34.2086C22.4375 35.817 21.5625 37.9867 21.5836 40.2402C21.6047 42.4937 22.5202 44.6466 24.1286 46.2252C25.737 47.8037 27.9066 48.6787 30.1602 48.6576C32.4137 48.6365 34.5666 47.7211 36.1451 46.1127C37.7237 44.5043 38.5987 42.3346 38.5776 40.0811Z" fill="#F249AA"/>
</g>
<defs>
<clipPath id="clip0_13_629">
<rect width="50.9841" height="50.9841" fill="white" transform="translate(51.8066 0.867676) rotate(89.4636)"/>
</clipPath>
</defs>
</svg>
