<svg width="337" height="164" viewBox="0 0 337 164" fill="none" xmlns="http://www.w3.org/2000/svg">
<path d="M3.08383 112.636H2.00598V148.452L2.5449 148.636L3.08383 148.452V112.636Z" fill="#545454" stroke="black" stroke-width="0.2"/>
<path d="M9.01204 109.801L2.53906 114.458V113.038L9.01204 108.459V109.801Z" fill="#545454" stroke="black" stroke-width="0.2"/>
<path d="M2.53901 114.458L-4.01196 109.801V108.459L2.53901 113.038V114.458Z" fill="#545454" stroke="black" stroke-width="0.2"/>
<path d="M9.01199 108.459L2.53901 113.116L-4.01196 108.459L2.53901 103.723L9.01199 108.459Z" fill="#545454" stroke="black" stroke-width="0.2"/>
<path d="M8.29339 108.909V98.9092H-3.20361V108.909L2.54489 112.818L8.29339 108.909Z" fill="#D8A543" stroke="black" stroke-width="0.2"/>
<path d="M-3.20361 98.9092V108.909L2.54489 112.818V98.9092H-3.20361Z" fill="#F4BC51" stroke="black" stroke-width="0.2"/>
<path d="M2.54491 105.364L-5 100V98.4546L2.54491 103.727V105.364Z" fill="#545454" stroke="black" stroke-width="0.2"/>
<path d="M10 100L2.54492 105.364V103.727L10 98.4546V100Z" fill="#545454" stroke="black" stroke-width="0.2"/>
<path d="M10 98.4545L2.54491 103.818L-5 98.4545L2.54491 93L10 98.4545Z" fill="#545454" stroke="black" stroke-width="0.2"/>
<path d="M-2.30542 98.6365V96.6365L2.54488 100.182V102.182L-2.30542 98.6365Z" fill="#545454" stroke="black" stroke-width="0.2"/>
<path d="M7.48504 98.6365V96.6365L2.54492 100.182V102.091L7.48504 98.6365Z" fill="#545454" stroke="black" stroke-width="0.2"/>
<path d="M-2.30542 96.6363L2.54488 100.182L7.485 96.6363L2.54488 93.0908L-2.30542 96.6363Z" fill="#545454" stroke="black" stroke-width="0.2"/>
<path d="M51.0838 67.6365H50.006V103.452L50.5449 103.636L51.0838 103.452V67.6365Z" fill="#545454" stroke="black" stroke-width="0.2"/>
<path d="M57.012 64.8013L50.5391 69.4584V68.0376L57.012 63.4595V64.8013Z" fill="#545454" stroke="black" stroke-width="0.2"/>
<path d="M50.539 69.4584L43.988 64.8013V63.4595L50.539 68.0376V69.4584Z" fill="#545454" stroke="black" stroke-width="0.2"/>
<path d="M57.012 63.4594L50.539 68.1164L43.988 63.4594L50.539 58.7234L57.012 63.4594Z" fill="#545454" stroke="black" stroke-width="0.2"/>
<path d="M56.2934 63.9092V53.9092H44.7964V63.9092L50.5449 67.8183L56.2934 63.9092Z" fill="#D8A543" stroke="black" stroke-width="0.2"/>
<path d="M44.7964 53.9092V63.9092L50.5449 67.8183V53.9092H44.7964Z" fill="#F4BC51" stroke="black" stroke-width="0.2"/>
<path d="M50.5449 60.3637L43 55V53.4546L50.5449 58.7273V60.3637Z" fill="#545454" stroke="black" stroke-width="0.2"/>
<path d="M58 55L50.5449 60.3637V58.7273L58 53.4546V55Z" fill="#545454" stroke="black" stroke-width="0.2"/>
<path d="M58 53.4545L50.5449 58.8182L43 53.4545L50.5449 48L58 53.4545Z" fill="#545454" stroke="black" stroke-width="0.2"/>
<path d="M45.6946 53.6365V51.6365L50.5449 55.1819V57.1819L45.6946 53.6365Z" fill="#545454" stroke="black" stroke-width="0.2"/>
<path d="M55.485 53.6365V51.6365L50.5449 55.1819V57.091L55.485 53.6365Z" fill="#545454" stroke="black" stroke-width="0.2"/>
<path d="M45.6946 51.6363L50.5449 55.1817L55.485 51.6363L50.5449 48.0908L45.6946 51.6363Z" fill="#545454" stroke="black" stroke-width="0.2"/>
<g clip-path="url(#clip0_592_6152)">
<path d="M36.5791 52.3818L24.0992 60.6727L17.8593 56.6L30.3391 48.3091L36.5791 52.3818Z" fill="#F4BC51" stroke="#1D1D1B" stroke-width="0.5" stroke-miterlimit="10"/>
<path d="M36.5791 52.3818V53.9818L24.0992 62.2727V60.6727L36.5791 52.3818Z" fill="#CC9D44" stroke="#1D1D1B" stroke-width="0.5" stroke-miterlimit="10"/>
<path d="M24.0992 62.2726L17.8593 58.1999V56.5999L24.0992 60.6726V62.2726Z" fill="#F4BC51" stroke="#1D1D1B" stroke-width="0.5" stroke-miterlimit="10"/>
<path d="M28.4526 33.7636L31.2098 35.509L31.7903 35.0727L28.4526 32.8909V33.7636Z" fill="#4F4F4F"/>
<path d="M33.0963 34.9272L25.6954 39.8727V58.6363L33.0963 53.6909V34.9272Z" fill="#F4BC51" stroke="#1D1D1B" stroke-width="0.5" stroke-miterlimit="10"/>
<path d="M32.0805 37.1091L26.5662 40.7455V44.3819L32.0805 40.6V37.1091Z" fill="#AE4E5C"/>
<path d="M25.6955 39.8727L21.1969 36.9636V55.7273L25.6955 58.6364V39.8727Z" fill="#F4BC51" stroke="#1D1D1B" stroke-width="0.5" stroke-miterlimit="10"/>
<path d="M33.0963 34.9272L28.5978 32.1636L21.1969 36.9636L25.6955 39.8727L33.0963 34.9272Z" fill="#F4BC51" stroke="#1D1D1B" stroke-width="0.5" stroke-miterlimit="10"/>
<path d="M31.355 37.5455V40.1637L26.5662 43.3637V44.3819L32.0805 40.6V37.1091L31.355 37.5455Z" fill="black"/>
<path d="M23.6639 44.5272L22.6481 43.7999V39.4363L23.6639 40.1636V44.5272Z" fill="#1D1D1B"/>
<path d="M21.9225 47H20.7616V46.5637H21.7774L22.503 45.2546L22.3579 44.3818H22.6481L22.9383 45.2546L21.9225 47Z" fill="black"/>
<path d="M20.7616 48.5999C20.7616 48.4544 20.9067 46.9999 21.0518 46.1271L20.4714 45.9817C20.3263 46.8544 20.1812 48.4544 20.1812 48.5999C20.1812 48.7453 20.7616 48.7453 20.7616 48.5999Z" fill="black"/>
<path d="M21.342 42.7817C21.342 42.7817 21.9225 41.3272 22.9383 40.7454L23.6639 41.1817C23.6639 41.1817 22.503 42.0545 22.2127 43.2181L21.342 42.7817Z" fill="black"/>
<path d="M21.342 46.2726L20.036 45.8362C20.036 45.8362 20.036 43.6544 20.9067 42.6362L22.0676 42.7817C22.0676 42.7817 21.1969 44.5271 21.342 46.2726Z" fill="black"/>
<path d="M21.342 46.2726H21.6322L22.9383 44.2363L22.0676 42.9272C22.0676 42.7817 21.1969 44.3817 21.342 46.2726Z" fill="black"/>
<path d="M23.6639 41.0364V41.6182C23.6639 41.6182 22.6481 42.4909 22.6481 43.6546L22.2128 43.0727C22.2128 43.0727 22.503 41.9091 23.6639 41.0364Z" fill="black"/>
<path d="M58.056 38.7091L45.5761 47.0001L39.3362 42.7819L51.8161 34.491L58.056 38.7091Z" fill="#F4BC51" stroke="#1D1D1B" stroke-width="0.5" stroke-miterlimit="10"/>
<path d="M58.0561 38.709V40.309L45.5762 48.5999V46.9999L58.0561 38.709Z" fill="#CC9D44" stroke="#1D1D1B" stroke-width="0.5" stroke-miterlimit="10"/>
<path d="M45.5761 48.5999L39.3362 44.5272V42.7817L45.5761 46.9999V48.5999Z" fill="#F4BC51" stroke="#1D1D1B" stroke-width="0.5" stroke-miterlimit="10"/>
<path d="M49.9296 19.9455L52.6868 21.6909L53.2672 21.2546L49.9296 19.0728V19.9455Z" fill="#4F4F4F"/>
<path d="M54.5732 21.1091L47.1724 26.0546V44.9637L54.5732 40.0182V21.1091Z" fill="#F4BC51" stroke="#1D1D1B" stroke-width="0.5" stroke-miterlimit="10"/>
<path d="M53.5575 23.291L48.0431 26.9274V30.5637L53.5575 26.9274V23.291Z" fill="#AE4E5C"/>
<path d="M47.1724 26.0546L42.6738 23.1455V41.9091L47.1724 44.9637V26.0546Z" fill="#F4BC51" stroke="#1D1D1B" stroke-width="0.5" stroke-miterlimit="10"/>
<path d="M54.5733 21.1091L50.0747 18.3455L42.6738 23.1455L47.1724 26.0545L54.5733 21.1091Z" fill="#F4BC51" stroke="#1D1D1B" stroke-width="0.5" stroke-miterlimit="10"/>
<path d="M52.8319 23.7274V26.491L48.0431 29.5456V30.5637L53.5575 26.9274V23.291L52.8319 23.7274Z" fill="black"/>
<path d="M45.1408 30.8546L44.125 30.1273V25.7637L45.1408 26.4909V30.8546Z" fill="#1D1D1B"/>
<path d="M43.3994 33.1819H42.2385V32.891H43.2543L43.9799 31.5819L43.8348 30.7092L44.125 30.5637L44.4152 31.5819L43.3994 33.1819Z" fill="black"/>
<path d="M42.2385 34.9273C42.2385 34.7818 42.3837 33.3273 42.5288 32.4545L41.9483 32.3091C41.8032 33.1818 41.6581 34.7818 41.6581 34.9273C41.6581 35.0727 42.2385 34.9273 42.2385 34.9273Z" fill="black"/>
<path d="M42.819 28.9636C42.819 28.9636 43.3994 27.5091 44.4152 26.9272L45.1408 27.3636C45.1408 27.3636 43.9799 28.2363 43.6897 29.4L42.819 28.9636Z" fill="black"/>
<path d="M42.819 32.4545L41.5129 32.0181C41.5129 32.0181 41.5129 29.8363 42.3836 28.8181L43.5445 28.9636C43.5445 29.109 42.819 30.709 42.819 32.4545Z" fill="black"/>
<path d="M42.8189 32.4546H43.1092L44.4152 30.4182L43.5445 29.1091C43.5445 29.1091 42.6738 30.5637 42.8189 32.4546Z" fill="black"/>
<path d="M45.1408 27.3635V27.9453C45.1408 27.9453 44.125 28.8181 44.125 29.9817L43.6897 29.3999C43.6897 29.3999 43.9799 28.0908 45.1408 27.3635Z" fill="black"/>
<path d="M8.57187 70.7093L8.42676 27.9456L10.6035 26.782V69.4002L8.57187 70.7093Z" fill="#CC9D44" stroke="#1D1D1B" stroke-width="0.5" stroke-miterlimit="10"/>
<path d="M8.57187 70.7093L8.42675 27.9456L6.39514 26.782V69.4002L8.57187 70.7093Z" fill="#F4BC51" stroke="#1D1D1B" stroke-width="0.5" stroke-miterlimit="10"/>
<path d="M62.6998 32.4546V-10.309L64.8766 -11.4727V31.1455L62.6998 32.4546Z" fill="#CC9D44" stroke="#1D1D1B" stroke-width="0.5" stroke-miterlimit="10"/>
<path d="M62.6998 32.4546V-10.309L60.5231 -11.4727V31.1455L62.6998 32.4546Z" fill="#F4BC51" stroke="#1D1D1B" stroke-width="0.5" stroke-miterlimit="10"/>
<path d="M81.7098 -14.6727L10.8937 29.4L-18.7097 12.3818L52.2515 -31.6909L81.7098 -14.6727Z" fill="#F4BC51" stroke="#1D1D1B" stroke-width="0.5" stroke-miterlimit="10"/>
<path d="M81.7098 -14.6729V-9.29104L10.8937 34.7817V29.3999L81.7098 -14.6729Z" fill="#F4BC51" stroke="#1D1D1B" stroke-width="0.5" stroke-miterlimit="10"/>
<path d="M10.8937 34.7818L-18.7097 18.3455V12.3818L10.8937 29.4V34.7818Z" fill="#F4BC51" stroke="#1D1D1B" stroke-width="0.5" stroke-miterlimit="10"/>
<path d="M81.7098 -15.8363L10.8937 28.3819L-18.7097 11.8L52.2515 -32.8545L81.7098 -15.8363Z" fill="#AE4E5C" stroke="black" stroke-width="0.5" stroke-miterlimit="10"/>
<path d="M81.7098 -15.8364V-14.6728L10.8937 29.3999V28.3818L81.7098 -15.8364Z" fill="#AE4E5C" stroke="black" stroke-width="0.5" stroke-miterlimit="10"/>
<path d="M10.8937 29.4001L-18.7097 12.9637V11.8L10.8937 28.3819V29.4001Z" fill="#AE4E5C" stroke="black" stroke-width="0.5" stroke-miterlimit="10"/>
</g>
<g clip-path="url(#clip1_592_6152)">
<path d="M121.421 36.3818L133.901 44.6727L140.141 40.6L127.661 32.3091L121.421 36.3818Z" fill="#F4BC51" stroke="#1D1D1B" stroke-width="0.5" stroke-miterlimit="10"/>
<path d="M121.421 36.3818V37.9818L133.901 46.2727V44.6727L121.421 36.3818Z" fill="#CC9D44" stroke="#1D1D1B" stroke-width="0.5" stroke-miterlimit="10"/>
<path d="M133.901 46.2726L140.141 42.1999V40.5999L133.901 44.6726V46.2726Z" fill="#F4BC51" stroke="#1D1D1B" stroke-width="0.5" stroke-miterlimit="10"/>
<path d="M129.547 17.7636L126.79 19.509L126.21 19.0727L129.547 16.8909V17.7636Z" fill="#4F4F4F"/>
<path d="M124.904 18.9272L132.305 23.8727V42.6363L124.904 37.6909V18.9272Z" fill="#F4BC51" stroke="#1D1D1B" stroke-width="0.5" stroke-miterlimit="10"/>
<path d="M125.919 21.1091L131.434 24.7455V28.3819L125.919 24.6V21.1091Z" fill="#AE4E5C"/>
<path d="M132.305 23.8727L136.803 20.9636V39.7273L132.305 42.6364V23.8727Z" fill="#F4BC51" stroke="#1D1D1B" stroke-width="0.5" stroke-miterlimit="10"/>
<path d="M124.904 18.9272L129.402 16.1636L136.803 20.9636L132.305 23.8727L124.904 18.9272Z" fill="#F4BC51" stroke="#1D1D1B" stroke-width="0.5" stroke-miterlimit="10"/>
<path d="M126.645 21.5455V24.1637L131.434 27.3637V28.3819L125.919 24.6V21.1091L126.645 21.5455Z" fill="black"/>
<path d="M134.336 28.5272L135.352 27.7999V23.4363L134.336 24.1636V28.5272Z" fill="#1D1D1B"/>
<path d="M136.077 31H137.238V30.5637H136.223L135.497 29.2546L135.642 28.3818H135.352L135.062 29.2546L136.077 31Z" fill="black"/>
<path d="M137.238 32.5999C137.238 32.4544 137.093 30.9999 136.948 30.1271L137.529 29.9817C137.674 30.8544 137.819 32.4544 137.819 32.5999C137.819 32.7453 137.238 32.7453 137.238 32.5999Z" fill="black"/>
<path d="M136.658 26.7817C136.658 26.7817 136.077 25.3272 135.062 24.7454L134.336 25.1817C134.336 25.1817 135.497 26.0545 135.787 27.2181L136.658 26.7817Z" fill="black"/>
<path d="M136.658 30.2726L137.964 29.8362C137.964 29.8362 137.964 27.6544 137.093 26.6362L135.932 26.7817C135.932 26.7817 136.803 28.5271 136.658 30.2726Z" fill="black"/>
<path d="M136.658 30.2726H136.368L135.062 28.2363L135.932 26.9272C135.932 26.7817 136.803 28.3817 136.658 30.2726Z" fill="black"/>
<path d="M134.336 25.0364V25.6182C134.336 25.6182 135.352 26.4909 135.352 27.6546L135.787 27.0727C135.787 27.0727 135.497 25.9091 134.336 25.0364Z" fill="black"/>
<path d="M99.944 22.7091L112.424 31.0001L118.664 26.7819L106.184 18.491L99.944 22.7091Z" fill="#F4BC51" stroke="#1D1D1B" stroke-width="0.5" stroke-miterlimit="10"/>
<path d="M99.9439 22.709V24.309L112.424 32.5999V30.9999L99.9439 22.709Z" fill="#CC9D44" stroke="#1D1D1B" stroke-width="0.5" stroke-miterlimit="10"/>
<path d="M112.424 32.5999L118.664 28.5272V26.7817L112.424 30.9999V32.5999Z" fill="#F4BC51" stroke="#1D1D1B" stroke-width="0.5" stroke-miterlimit="10"/>
<path d="M108.07 3.94548L105.313 5.69093L104.733 5.25457L108.07 3.07275V3.94548Z" fill="#4F4F4F"/>
<path d="M103.427 5.10913L110.828 10.0546V28.9637L103.427 24.0182V5.10913Z" fill="#F4BC51" stroke="#1D1D1B" stroke-width="0.5" stroke-miterlimit="10"/>
<path d="M104.443 7.29102L109.957 10.9274V14.5637L104.443 10.9274V7.29102Z" fill="#AE4E5C"/>
<path d="M110.828 10.0546L115.326 7.14551V25.9091L110.828 28.9637V10.0546Z" fill="#F4BC51" stroke="#1D1D1B" stroke-width="0.5" stroke-miterlimit="10"/>
<path d="M103.427 5.1091L107.925 2.34546L115.326 7.14546L110.828 10.0545L103.427 5.1091Z" fill="#F4BC51" stroke="#1D1D1B" stroke-width="0.5" stroke-miterlimit="10"/>
<path d="M105.168 7.72738V10.491L109.957 13.5456V14.5637L104.443 10.9274V7.29102L105.168 7.72738Z" fill="black"/>
<path d="M112.859 14.8546L113.875 14.1273V9.76367L112.859 10.4909V14.8546Z" fill="#1D1D1B"/>
<path d="M114.601 17.1819H115.761V16.891H114.746L114.02 15.5819L114.165 14.7092L113.875 14.5637L113.585 15.5819L114.601 17.1819Z" fill="black"/>
<path d="M115.761 18.9273C115.761 18.7818 115.616 17.3273 115.471 16.4545L116.052 16.3091C116.197 17.1818 116.342 18.7818 116.342 18.9273C116.342 19.0727 115.761 18.9273 115.761 18.9273Z" fill="black"/>
<path d="M115.181 12.9636C115.181 12.9636 114.601 11.5091 113.585 10.9272L112.859 11.3636C112.859 11.3636 114.02 12.2363 114.31 13.4L115.181 12.9636Z" fill="black"/>
<path d="M115.181 16.4545L116.487 16.0181C116.487 16.0181 116.487 13.8363 115.616 12.8181L114.455 12.9636C114.455 13.109 115.181 14.709 115.181 16.4545Z" fill="black"/>
<path d="M115.181 16.4546H114.891L113.585 14.4182L114.455 13.1091C114.455 13.1091 115.326 14.5637 115.181 16.4546Z" fill="black"/>
<path d="M112.859 11.3635V11.9453C112.859 11.9453 113.875 12.8181 113.875 13.9817L114.31 13.3999C114.31 13.3999 114.02 12.0908 112.859 11.3635Z" fill="black"/>
<path d="M149.428 54.7093L149.573 11.9456L147.397 10.782V53.4002L149.428 54.7093Z" fill="#CC9D44" stroke="#1D1D1B" stroke-width="0.5" stroke-miterlimit="10"/>
<path d="M149.428 54.7093L149.573 11.9456L151.605 10.782V53.4002L149.428 54.7093Z" fill="#F4BC51" stroke="#1D1D1B" stroke-width="0.5" stroke-miterlimit="10"/>
<path d="M95.3002 16.4546V-26.309L93.1234 -27.4727V15.1455L95.3002 16.4546Z" fill="#CC9D44" stroke="#1D1D1B" stroke-width="0.5" stroke-miterlimit="10"/>
<path d="M95.3002 16.4546V-26.309L97.4769 -27.4727V15.1455L95.3002 16.4546Z" fill="#F4BC51" stroke="#1D1D1B" stroke-width="0.5" stroke-miterlimit="10"/>
<path d="M76.2902 -30.6727L147.106 13.4L176.71 -3.61819L105.749 -47.6909L76.2902 -30.6727Z" fill="#F4BC51" stroke="#1D1D1B" stroke-width="0.5" stroke-miterlimit="10"/>
<path d="M76.2902 -30.6729V-25.291L147.106 18.7817V13.3999L76.2902 -30.6729Z" fill="#F4BC51" stroke="#1D1D1B" stroke-width="0.5" stroke-miterlimit="10"/>
<path d="M147.106 18.7818L176.71 2.34547V-3.61816L147.106 13.4V18.7818Z" fill="#F4BC51" stroke="#1D1D1B" stroke-width="0.5" stroke-miterlimit="10"/>
<path d="M76.2902 -31.8363L147.106 12.3819L176.71 -4.19995L105.749 -48.8545L76.2902 -31.8363Z" fill="#AE4E5C" stroke="black" stroke-width="0.5" stroke-miterlimit="10"/>
<path d="M76.2902 -31.8364V-30.6728L147.106 13.3999V12.3818L76.2902 -31.8364Z" fill="#AE4E5C" stroke="black" stroke-width="0.5" stroke-miterlimit="10"/>
<path d="M147.106 13.4001L176.71 -3.03631V-4.19995L147.106 12.3819V13.4001Z" fill="#AE4E5C" stroke="black" stroke-width="0.5" stroke-miterlimit="10"/>
</g>
<g clip-path="url(#clip2_592_6152)">
<path d="M207.421 93.3818L219.901 101.673L226.141 97.6L213.661 89.3091L207.421 93.3818Z" fill="#F4BC51" stroke="#1D1D1B" stroke-width="0.5" stroke-miterlimit="10"/>
<path d="M207.421 93.3818V94.9818L219.901 103.273V101.673L207.421 93.3818Z" fill="#CC9D44" stroke="#1D1D1B" stroke-width="0.5" stroke-miterlimit="10"/>
<path d="M219.901 103.273L226.141 99.1999V97.5999L219.901 101.673V103.273Z" fill="#F4BC51" stroke="#1D1D1B" stroke-width="0.5" stroke-miterlimit="10"/>
<path d="M215.547 74.7636L212.79 76.509L212.21 76.0727L215.547 73.8909V74.7636Z" fill="#4F4F4F"/>
<path d="M210.904 75.9272L218.305 80.8727V99.6363L210.904 94.6909V75.9272Z" fill="#F4BC51" stroke="#1D1D1B" stroke-width="0.5" stroke-miterlimit="10"/>
<path d="M211.919 78.1091L217.434 81.7455V85.3819L211.919 81.6V78.1091Z" fill="#AE4E5C"/>
<path d="M218.305 80.8727L222.803 77.9636V96.7273L218.305 99.6364V80.8727Z" fill="#F4BC51" stroke="#1D1D1B" stroke-width="0.5" stroke-miterlimit="10"/>
<path d="M210.904 75.9272L215.402 73.1636L222.803 77.9636L218.305 80.8727L210.904 75.9272Z" fill="#F4BC51" stroke="#1D1D1B" stroke-width="0.5" stroke-miterlimit="10"/>
<path d="M212.645 78.5455V81.1637L217.434 84.3637V85.3819L211.919 81.6V78.1091L212.645 78.5455Z" fill="black"/>
<path d="M220.336 85.5272L221.352 84.7999V80.4363L220.336 81.1636V85.5272Z" fill="#1D1D1B"/>
<path d="M222.077 88H223.238V87.5637H222.223L221.497 86.2546L221.642 85.3818H221.352L221.062 86.2546L222.077 88Z" fill="black"/>
<path d="M223.238 89.5999C223.238 89.4544 223.093 87.9999 222.948 87.1271L223.529 86.9817C223.674 87.8544 223.819 89.4544 223.819 89.5999C223.819 89.7453 223.238 89.7453 223.238 89.5999Z" fill="black"/>
<path d="M222.658 83.7817C222.658 83.7817 222.077 82.3272 221.062 81.7454L220.336 82.1817C220.336 82.1817 221.497 83.0545 221.787 84.2181L222.658 83.7817Z" fill="black"/>
<path d="M222.658 87.2726L223.964 86.8362C223.964 86.8362 223.964 84.6544 223.093 83.6362L221.932 83.7817C221.932 83.7817 222.803 85.5271 222.658 87.2726Z" fill="black"/>
<path d="M222.658 87.2726H222.368L221.062 85.2363L221.932 83.9272C221.932 83.7817 222.803 85.3817 222.658 87.2726Z" fill="black"/>
<path d="M220.336 82.0364V82.6182C220.336 82.6182 221.352 83.4909 221.352 84.6546L221.787 84.0727C221.787 84.0727 221.497 82.9091 220.336 82.0364Z" fill="black"/>
<path d="M185.944 79.7091L198.424 88.0001L204.664 83.7819L192.184 75.491L185.944 79.7091Z" fill="#F4BC51" stroke="#1D1D1B" stroke-width="0.5" stroke-miterlimit="10"/>
<path d="M185.944 79.709V81.309L198.424 89.5999V87.9999L185.944 79.709Z" fill="#CC9D44" stroke="#1D1D1B" stroke-width="0.5" stroke-miterlimit="10"/>
<path d="M198.424 89.5999L204.664 85.5272V83.7817L198.424 87.9999V89.5999Z" fill="#F4BC51" stroke="#1D1D1B" stroke-width="0.5" stroke-miterlimit="10"/>
<path d="M194.07 60.9455L191.313 62.6909L190.733 62.2546L194.07 60.0728V60.9455Z" fill="#4F4F4F"/>
<path d="M189.427 62.1091L196.828 67.0546V85.9637L189.427 81.0182V62.1091Z" fill="#F4BC51" stroke="#1D1D1B" stroke-width="0.5" stroke-miterlimit="10"/>
<path d="M190.443 64.291L195.957 67.9274V71.5637L190.443 67.9274V64.291Z" fill="#AE4E5C"/>
<path d="M196.828 67.0546L201.326 64.1455V82.9091L196.828 85.9637V67.0546Z" fill="#F4BC51" stroke="#1D1D1B" stroke-width="0.5" stroke-miterlimit="10"/>
<path d="M189.427 62.1091L193.925 59.3455L201.326 64.1455L196.828 67.0545L189.427 62.1091Z" fill="#F4BC51" stroke="#1D1D1B" stroke-width="0.5" stroke-miterlimit="10"/>
<path d="M191.168 64.7274V67.491L195.957 70.5456V71.5637L190.443 67.9274V64.291L191.168 64.7274Z" fill="black"/>
<path d="M198.859 71.8546L199.875 71.1273V66.7637L198.859 67.4909V71.8546Z" fill="#1D1D1B"/>
<path d="M200.601 74.1819H201.761V73.891H200.746L200.02 72.5819L200.165 71.7092L199.875 71.5637L199.585 72.5819L200.601 74.1819Z" fill="black"/>
<path d="M201.761 75.9273C201.761 75.7818 201.616 74.3273 201.471 73.4545L202.052 73.3091C202.197 74.1818 202.342 75.7818 202.342 75.9273C202.342 76.0727 201.761 75.9273 201.761 75.9273Z" fill="black"/>
<path d="M201.181 69.9636C201.181 69.9636 200.601 68.5091 199.585 67.9272L198.859 68.3636C198.859 68.3636 200.02 69.2363 200.31 70.4L201.181 69.9636Z" fill="black"/>
<path d="M201.181 73.4545L202.487 73.0181C202.487 73.0181 202.487 70.8363 201.616 69.8181L200.455 69.9636C200.455 70.109 201.181 71.709 201.181 73.4545Z" fill="black"/>
<path d="M201.181 73.4546H200.891L199.585 71.4182L200.455 70.1091C200.455 70.1091 201.326 71.5637 201.181 73.4546Z" fill="black"/>
<path d="M198.859 68.3635V68.9453C198.859 68.9453 199.875 69.8181 199.875 70.9817L200.31 70.3999C200.31 70.3999 200.02 69.0908 198.859 68.3635Z" fill="black"/>
<path d="M235.428 111.709L235.573 68.9456L233.397 67.782V110.4L235.428 111.709Z" fill="#CC9D44" stroke="#1D1D1B" stroke-width="0.5" stroke-miterlimit="10"/>
<path d="M235.428 111.709L235.573 68.9456L237.605 67.782V110.4L235.428 111.709Z" fill="#F4BC51" stroke="#1D1D1B" stroke-width="0.5" stroke-miterlimit="10"/>
<path d="M181.3 73.4546V30.691L179.123 29.5273V72.1455L181.3 73.4546Z" fill="#CC9D44" stroke="#1D1D1B" stroke-width="0.5" stroke-miterlimit="10"/>
<path d="M181.3 73.4546V30.691L183.477 29.5273V72.1455L181.3 73.4546Z" fill="#F4BC51" stroke="#1D1D1B" stroke-width="0.5" stroke-miterlimit="10"/>
<path d="M162.29 26.3273L233.106 70.4L262.71 53.3818L191.749 9.30908L162.29 26.3273Z" fill="#F4BC51" stroke="#1D1D1B" stroke-width="0.5" stroke-miterlimit="10"/>
<path d="M162.29 26.3271V31.709L233.106 75.7817V70.3999L162.29 26.3271Z" fill="#F4BC51" stroke="#1D1D1B" stroke-width="0.5" stroke-miterlimit="10"/>
<path d="M233.106 75.7818L262.71 59.3455V53.3818L233.106 70.4V75.7818Z" fill="#F4BC51" stroke="#1D1D1B" stroke-width="0.5" stroke-miterlimit="10"/>
<path d="M162.29 25.1637L233.106 69.3819L262.71 52.8L191.749 8.14551L162.29 25.1637Z" fill="#AE4E5C" stroke="black" stroke-width="0.5" stroke-miterlimit="10"/>
<path d="M162.29 25.1636V26.3272L233.106 70.3999V69.3818L162.29 25.1636Z" fill="#AE4E5C" stroke="black" stroke-width="0.5" stroke-miterlimit="10"/>
<path d="M233.106 70.4001L262.71 53.9637V52.8L233.106 69.3819V70.4001Z" fill="#AE4E5C" stroke="black" stroke-width="0.5" stroke-miterlimit="10"/>
</g>
<path d="M329.084 26.6365H328.006V62.4524L328.545 62.6365L329.084 62.4524V26.6365Z" fill="#545454" stroke="black" stroke-width="0.2"/>
<path d="M335.012 23.8013L328.539 28.4584V27.0376L335.012 22.4595V23.8013Z" fill="#545454" stroke="black" stroke-width="0.2"/>
<path d="M328.539 28.4584L321.988 23.8013V22.4595L328.539 27.0376V28.4584Z" fill="#545454" stroke="black" stroke-width="0.2"/>
<path d="M335.012 22.4594L328.539 27.1164L321.988 22.4594L328.539 17.7234L335.012 22.4594Z" fill="#545454" stroke="black" stroke-width="0.2"/>
<path d="M334.293 22.9092V12.9092H322.796V22.9092L328.545 26.8183L334.293 22.9092Z" fill="#D8A543" stroke="black" stroke-width="0.2"/>
<path d="M322.796 12.9092V22.9092L328.545 26.8183V12.9092H322.796Z" fill="#F4BC51" stroke="black" stroke-width="0.2"/>
<path d="M328.545 19.3637L321 14V12.4546L328.545 17.7273V19.3637Z" fill="#545454" stroke="black" stroke-width="0.2"/>
<path d="M336 14L328.545 19.3637V17.7273L336 12.4546V14Z" fill="#545454" stroke="black" stroke-width="0.2"/>
<path d="M336 12.4545L328.545 17.8182L321 12.4545L328.545 7L336 12.4545Z" fill="#545454" stroke="black" stroke-width="0.2"/>
<path d="M323.695 12.6365V10.6365L328.545 14.1819V16.1819L323.695 12.6365Z" fill="#545454" stroke="black" stroke-width="0.2"/>
<path d="M333.485 12.6365V10.6365L328.545 14.1819V16.091L333.485 12.6365Z" fill="#545454" stroke="black" stroke-width="0.2"/>
<path d="M323.695 10.6363L328.545 14.1817L333.485 10.6363L328.545 7.09082L323.695 10.6363Z" fill="#545454" stroke="black" stroke-width="0.2"/>
<defs>
<clipPath id="clip0_592_6152">
<rect width="101" height="104" fill="white" transform="translate(-19 -33)"/>
</clipPath>
<clipPath id="clip1_592_6152">
<rect width="101" height="104" fill="white" transform="matrix(-1 0 0 1 177 -49)"/>
</clipPath>
<clipPath id="clip2_592_6152">
<rect width="101" height="104" fill="white" transform="matrix(-1 0 0 1 263 8)"/>
</clipPath>
</defs>
</svg>
