<svg width="499" height="289" viewBox="0 0 499 289" fill="none" xmlns="http://www.w3.org/2000/svg">
<path d="M277.44 22V27.3014M277.44 27.3014V56.927M277.44 27.3014L271.958 23.2766M277.44 27.3014L283.5 31.7499M277.44 56.927V61.6047M277.44 56.927L271.958 52.9022M277.44 56.927L283.5 61.3754M301.68 39.7938V45.0952M301.68 45.0952V74.7208M301.68 45.0952L295.62 40.6468M301.68 45.0952L307.739 49.5437M301.68 74.7208V79.3985M301.68 74.7208L295.62 70.2724M301.68 74.7208L307.739 79.1693M283.5 26.4485V31.7499M283.5 31.7499V61.3754M283.5 31.7499L289.56 36.1983M283.5 61.3754V66.0532M283.5 61.3754L289.56 65.8239M307.739 44.2423V49.5437M307.739 49.5437V79.1693M307.739 49.5437L313.799 53.9922M307.739 79.1693V83.847M307.739 79.1693L313.799 83.6177M289.56 30.8969V36.1983M289.56 36.1983V65.8239M289.56 36.1983L295.62 40.6468M289.56 65.8239V70.5016M289.56 65.8239L295.62 70.2724M319.859 53.1392V58.4406M319.859 58.4406V88.0662M319.859 58.4406L313.799 53.9922M319.859 58.4406L325.919 62.8891M319.859 88.0662V92.7439M319.859 88.0662L313.799 83.6177M319.859 88.0662L325.919 92.5146M295.62 35.3454V40.6468M295.62 40.6468V70.2724M295.62 70.2724V74.9501M331.979 62.0361V67.3375M331.979 67.3375V96.9631M331.979 67.3375L325.919 62.8891M331.979 67.3375L338.039 71.786M331.979 96.9631V101.641M331.979 96.9631L325.919 92.5146M331.979 96.9631L338.039 101.412M313.799 48.6908V53.9922M313.799 53.9922V83.6177M313.799 83.6177V88.2954M350.158 75.3815V80.6829M350.158 80.6829V110.308M350.158 80.6829L344.098 76.2345M350.158 80.6829L356.218 85.1314M350.158 110.308V114.986M350.158 110.308L344.098 105.86M350.158 110.308L356.218 114.757M325.919 57.5877V62.8891M325.919 62.8891V92.5146M325.919 92.5146V97.1924M356.218 79.83V85.1314M356.218 85.1314V114.757M356.218 85.1314L362.278 89.5798M356.218 114.757V119.435M356.218 114.757L362.278 119.205M338.039 66.4846V71.786M338.039 71.786V101.412M338.039 71.786L344.098 76.2345M338.039 101.412V106.089M338.039 101.412L344.098 105.86M362.278 84.2784V89.5798M362.278 89.5798V119.205M362.278 89.5798L368.338 94.0283M362.278 119.205V123.883M362.278 119.205L368.338 123.654M344.098 70.933V76.2345M344.098 76.2345V105.86M344.098 105.86V110.538M374.398 93.1753V98.4768M374.398 98.4768V128.102M374.398 98.4768L368.338 94.0283M374.398 98.4768L380.458 102.925M374.398 128.102V132.78M374.398 128.102L368.338 123.654M374.398 128.102L380.458 132.551M380.458 97.6238V102.925M380.458 102.925V132.551M380.458 132.551V137.228M368.338 88.7269V94.0283M368.338 94.0283V123.654M368.338 123.654V128.332M385.94 101.772V107.073M385.94 107.073V136.698M385.94 107.073L380.458 103.048M385.94 107.073L392 111.521M385.94 136.698V141.376M385.94 136.698L380.458 132.674M385.94 136.698L392 141.147M410.18 119.565V124.867M410.18 124.867V154.492M410.18 124.867L404.12 120.418M410.18 124.867L416.239 129.315M410.18 154.492V159.17M410.18 154.492L404.12 150.044M410.18 154.492L416.239 158.941M392 106.22V111.521M392 111.521V141.147M392 111.521L398.06 115.97M392 141.147V145.825M392 141.147L398.06 145.595M416.239 124.014V129.315M416.239 129.315V158.941M416.239 129.315L422.299 133.764M416.239 158.941V163.618M416.239 158.941L422.299 163.389M398.06 110.668V115.97M398.06 115.97V145.595M398.06 115.97L404.12 120.418M398.06 145.595V150.273M398.06 145.595L404.12 150.044M428.359 132.911V138.212M428.359 138.212V167.838M428.359 138.212L422.299 133.764M428.359 138.212L434.419 142.661M428.359 167.838V172.515M428.359 167.838L422.299 163.389M428.359 167.838L434.419 172.286M404.12 115.117V120.418M404.12 120.418V150.044M404.12 150.044V154.722M440.479 141.808V147.109M440.479 147.109V176.735M440.479 147.109L434.419 142.661M440.479 147.109L446.539 151.558M440.479 176.735V181.412M440.479 176.735L434.419 172.286M440.479 176.735L446.539 181.183M422.299 128.462V133.764M422.299 133.764V163.389M422.299 163.389V168.067M458.658 155.153V160.454M458.658 160.454V190.08M458.658 160.454L452.598 156.006M458.658 160.454L464.718 164.903M458.658 190.08V194.758M458.658 190.08L452.598 185.632M458.658 190.08L464.718 194.528M434.419 137.359V142.661M434.419 142.661V172.286M434.419 172.286V176.964M464.718 159.601V164.903M464.718 164.903V194.528M464.718 164.903L470.778 169.351M464.718 194.528V199.206M464.718 194.528L470.778 198.977M446.539 146.256V151.558M446.539 151.558V181.183M446.539 151.558L452.598 156.006M446.539 181.183V185.861M446.539 181.183L452.598 185.632M470.778 164.05V169.351M470.778 169.351V198.977M470.778 169.351L476.838 173.8M470.778 198.977V203.655M470.778 198.977L476.838 203.425M452.598 150.705V156.006M452.598 156.006V185.632M452.598 185.632V190.309M482.898 172.947V178.248M482.898 178.248V207.874M482.898 178.248L476.838 173.8M482.898 178.248L488.958 182.697M482.898 207.874V212.552M482.898 207.874L476.838 203.425M482.898 207.874L488.958 212.322M488.958 177.395V182.697M488.958 182.697V212.322M488.958 212.322V217M476.838 168.498V173.8M476.838 173.8V203.425M476.838 203.425V208.103" stroke="black"/>
<path d="M266.475 22V27.3014M266.475 27.3014V56.927M266.475 27.3014L271.958 23.2766M266.475 27.3014L260.415 31.7499M266.475 56.927V61.6047M266.475 56.927L271.958 52.9022M266.475 56.927L260.415 61.3754M242.235 39.7938V45.0952M242.235 45.0952V74.7208M242.235 45.0952L248.295 40.6468M242.235 45.0952L236.176 49.5437M242.235 74.7208V79.3985M242.235 74.7208L248.295 70.2724M242.235 74.7208L236.176 79.1693M260.415 26.4485V31.7499M260.415 31.7499V61.3754M260.415 31.7499L254.355 36.1983M260.415 61.3754V66.0532M260.415 61.3754L254.355 65.8239M236.176 44.2423V49.5437M236.176 49.5437V79.1693M236.176 49.5437L230.116 53.9922M236.176 79.1693V83.847M236.176 79.1693L230.116 83.6177M254.355 30.8969V36.1983M254.355 36.1983V65.8239M254.355 36.1983L248.295 40.6468M254.355 65.8239V70.5016M254.355 65.8239L248.295 70.2724M224.056 53.1392V58.4406M224.056 58.4406V88.0662M224.056 58.4406L230.116 53.9922M224.056 58.4406L217.996 62.8891M224.056 88.0662V92.7439M224.056 88.0662L230.116 83.6177M224.056 88.0662L217.996 92.5146M248.295 35.3454V40.6468M248.295 40.6468V70.2724M248.295 70.2724V74.9501M211.936 62.0361V67.3375M211.936 67.3375V96.9631M211.936 67.3375L217.996 62.8891M211.936 67.3375L205.876 71.786M211.936 96.9631V101.641M211.936 96.9631L217.996 92.5146M211.936 96.9631L205.876 101.412M230.116 48.6908V53.9922M230.116 53.9922V83.6177M230.116 83.6177V88.2954M193.757 75.3815V80.6829M193.757 80.6829V110.308M193.757 80.6829L199.817 76.2345M193.757 80.6829L187.697 85.1314M193.757 110.308V114.986M193.757 110.308L199.817 105.86M193.757 110.308L187.697 114.757M217.996 57.5877V62.8891M217.996 62.8891V92.5146M217.996 92.5146V97.1924M187.697 79.83V85.1314M187.697 85.1314V114.757M187.697 85.1314L181.637 89.5798M187.697 114.757V119.435M187.697 114.757L181.637 119.205M205.876 66.4846V71.786M205.876 71.786V101.412M205.876 71.786L199.817 76.2345M205.876 101.412V106.089M205.876 101.412L199.817 105.86M181.637 84.2784V89.5798M181.637 89.5798V119.205M181.637 89.5798L175.577 94.0283M181.637 119.205V123.883M181.637 119.205L175.577 123.654M199.817 70.933V76.2345M199.817 76.2345V105.86M199.817 105.86V110.538M169.517 93.1753V98.4768M169.517 98.4768V128.102M169.517 98.4768L175.577 94.0283M169.517 98.4768L163.458 102.925M169.517 128.102V132.78M169.517 128.102L175.577 123.654M169.517 128.102L163.458 132.551M163.458 97.6238V102.925M163.458 102.925V132.551M163.458 132.551V137.228M175.577 88.7269V94.0283M175.577 94.0283V123.654M175.577 123.654V128.332M157.975 101.772V107.073M157.975 107.073V136.698M157.975 107.073L163.458 103.048M157.975 107.073L151.915 111.521M157.975 136.698V141.376M157.975 136.698L163.458 132.674M157.975 136.698L151.915 141.147M133.735 119.565V124.867M133.735 124.867V154.492M133.735 124.867L139.795 120.418M133.735 124.867L127.676 129.315M133.735 154.492V159.17M133.735 154.492L139.795 150.044M133.735 154.492L127.676 158.941M151.915 106.22V111.521M151.915 111.521V141.147M151.915 111.521L145.855 115.97M151.915 141.147V145.825M151.915 141.147L145.855 145.595M127.676 124.014V129.315M127.676 129.315V158.941M127.676 129.315L121.616 133.764M127.676 158.941V163.618M127.676 158.941L121.616 163.389M145.855 110.668V115.97M145.855 115.97V145.595M145.855 115.97L139.795 120.418M145.855 145.595V150.273M145.855 145.595L139.795 150.044M115.556 132.911V138.212M115.556 138.212V167.838M115.556 138.212L121.616 133.764M115.556 138.212L109.496 142.661M115.556 167.838V172.515M115.556 167.838L121.616 163.389M115.556 167.838L109.496 172.286M139.795 115.117V120.418M139.795 120.418V150.044M139.795 150.044V154.722M103.436 141.808V147.109M103.436 147.109V176.735M103.436 147.109L109.496 142.661M103.436 147.109L97.3764 151.557M103.436 176.735V181.412M103.436 176.735L109.496 172.286M103.436 176.735L97.3764 181.183M121.616 128.462V133.764M121.616 133.764V163.389M121.616 163.389V168.067M85.2567 155.153V160.454M85.2567 160.454V190.08M85.2567 160.454L91.3166 156.006M85.2567 160.454L79.1969 164.903M85.2567 190.08V194.758M85.2567 190.08L91.3166 185.632M85.2567 190.08L79.1969 194.528M109.496 137.359V142.661M109.496 142.661V172.286M109.496 172.286V176.964M79.1969 159.601V164.903M79.1969 164.903V194.528M79.1969 164.903L73.137 169.351M79.1969 194.528V199.206M79.1969 194.528L73.137 198.977M97.3764 146.256V151.557M97.3764 151.557V181.183M97.3764 151.557L91.3166 156.006M97.3764 181.183V185.861M97.3764 181.183L91.3166 185.632M73.137 164.05V169.351M73.137 169.351V198.977M73.137 169.351L67.0772 173.8M73.137 198.977V203.655M73.137 198.977L67.0772 203.425M91.3166 150.705V156.006M91.3166 156.006V185.632M91.3166 185.632V190.309M61.0174 172.947V178.248M61.0174 178.248V207.874M61.0174 178.248L67.0772 173.8M61.0174 178.248L54.9575 182.697M61.0174 207.874V212.552M61.0174 207.874L67.0772 203.425M61.0174 207.874L54.9575 212.322M54.9575 177.395V182.697M54.9575 182.697V212.322M54.9575 182.697L48.8977 187.145M54.9575 212.322V217M54.9575 212.322L48.8977 216.771M67.0772 168.498V173.8M67.0772 173.8V203.425M67.0772 203.425V208.103M36.778 190.741V196.042M36.778 196.042V225.668M36.778 196.042L42.8378 191.594M36.778 196.042L30.7182 200.491M36.778 225.668V230.345M36.778 225.668L42.8378 221.219M36.778 225.668L30.7182 230.116M30.7182 195.189V200.491M30.7182 200.491V230.116M30.7182 200.491L24.6583 204.939M30.7182 230.116V234.794M30.7182 230.116L24.6583 234.565M48.8977 181.844V187.145M48.8977 187.145V216.771M48.8977 187.145L42.8378 191.594M48.8977 216.771V221.448M48.8977 216.771L42.8378 221.219M18.5985 204.086V209.387M18.5985 209.387V239.013M18.5985 209.387L24.6583 204.939M18.5985 209.387L12.5386 213.836M18.5985 239.013V243.691M18.5985 239.013L24.6583 234.565M18.5985 239.013L12.5386 243.461M42.8378 186.292V191.594M42.8378 191.594V221.219M42.8378 221.219V225.897M6.47879 212.983V218.284M6.47879 218.284V247.91M6.47879 218.284L12.5386 213.836M6.47879 218.284L0.418945 222.733M6.47879 247.91V252.588M6.47879 247.91L12.5386 243.461M6.47879 247.91L0.418945 252.358M24.6583 199.638V204.939M24.6583 204.939V234.565M24.6583 234.565V239.242M-11.7007 226.328V231.63M-11.7007 231.63V261.255M-11.7007 231.63L-5.6409 227.181M-11.7007 231.63L-17.7606 236.078M-11.7007 261.255V265.933M-11.7007 261.255L-5.6409 256.807M-11.7007 261.255L-17.7606 265.704M12.5386 208.535V213.836M12.5386 213.836V243.461M12.5386 243.461V248.139M-17.7606 230.777V236.078M-17.7606 236.078V265.704M-17.7606 236.078L-23.8204 240.527M-17.7606 265.704V270.382M-17.7606 265.704L-23.8204 270.152M0.418945 217.431V222.733M0.418945 222.733V252.358M0.418945 222.733L-5.6409 227.181M0.418945 252.358V257.036M0.418945 252.358L-5.6409 256.807M-23.8204 235.225V240.527M-23.8204 240.527V270.152M-23.8204 240.527L-29.8802 244.975M-23.8204 270.152V274.83M-23.8204 270.152L-29.8802 274.601M-5.6409 221.88V227.181M-5.6409 227.181V256.807M-5.6409 256.807V261.485M-35.9401 244.122V249.424M-35.9401 249.424V279.049M-35.9401 249.424L-29.8802 244.975M-35.9401 249.424L-41.9999 253.872M-35.9401 279.049V283.727M-35.9401 279.049L-29.8802 274.601M-35.9401 279.049L-41.9999 283.498M-41.9999 248.571V253.872M-41.9999 253.872V283.498M-41.9999 283.498V288.175M-29.8802 239.674V244.975M-29.8802 244.975V274.601M-29.8802 274.601V279.278" stroke="black"/>
<path d="M265.522 60.5447L204.261 104.313L143 148.082L169.883 167.286L193.146 183.904L218.478 203L278.963 159.785L341 114.463L315.151 95.9975L292.405 79.7483L265.522 60.5447Z" fill="#AE4E5C"/>
<path d="M204.261 104.313L265.522 60.5447L292.405 79.7483M204.261 104.313L143 148.082L169.883 167.286M204.261 104.313L232.5 125M278.963 159.785L218.478 203L193.146 183.904M278.963 159.785L341 114.463L315.151 95.9975M278.963 159.785L257.032 143.5L247.5 136M315.151 95.9975L289.82 114.463L267.073 97.97L292.405 79.7483M315.151 95.9975L292.405 79.7483M169.883 167.286L194.697 149.351L218.478 165.209L193.146 183.904M169.883 167.286L193.146 183.904" stroke="#F9DDA8"/>
<path d="M191.578 156.963C191.578 160.278 193.329 163.314 196.228 165.537C199.127 167.76 203.154 169.15 207.621 169.15C212.089 169.15 216.116 167.76 219.015 165.537C221.913 163.314 223.665 160.278 223.665 156.963C223.665 153.648 221.913 150.612 219.015 148.389C216.116 146.166 212.089 144.776 207.621 144.776C203.154 144.776 199.127 146.166 196.228 148.389C193.329 150.612 191.578 153.648 191.578 156.963Z" stroke="#F9DDA8"/>
<path d="M262.92 106.217C262.92 112.844 269.756 118.403 278.446 118.403C287.136 118.403 293.973 112.844 293.973 106.217C293.973 99.5888 287.136 94.03 278.446 94.03C269.756 94.03 262.92 99.5888 262.92 106.217Z" stroke="#F9DDA8"/>
<path d="M289.303 44.6866L295.506 49.7612L303.261 55.4701V41.5149L289.303 32V44.6866Z" fill="#F9DDA8"/>
<path d="M302.744 87.1866V62.4478L297.057 51.0299M295.506 49.7612L289.303 44.6866V32L303.261 41.5149V55.4701L295.506 49.7612Z" stroke="#F9DDA8"/>
<path d="M289.803 51.6641C289.803 53.4517 291.391 54.9701 293.439 54.9701C295.487 54.9701 297.074 53.4517 297.074 51.6641C297.074 49.8766 295.487 48.3582 293.439 48.3582C291.391 48.3582 289.803 49.8766 289.803 51.6641Z" stroke="#F9DDA8"/>
<path d="M183.294 143.079C183.294 144.881 184.966 146.443 187.162 146.443C189.357 146.443 191.03 144.881 191.03 143.079C191.03 141.278 189.357 139.716 187.162 139.716C184.966 139.716 183.294 141.278 183.294 143.079Z" stroke="#F9DDA8"/>
<path d="M177.044 138.682L183.247 143.757L191.002 149.466V135.511L177.044 125.996V138.682Z" fill="#F9DDA8"/>
<path d="M177.561 179.914V155.175L183.247 143.757M183.247 143.757L177.044 138.682V125.996L191.002 135.511V149.466L183.247 143.757Z" stroke="#F9DDA8"/>
<circle cx="7.9625" cy="7.9625" r="7.5875" transform="matrix(-0.978148 -0.207912 -0.258819 0.965926 249.769 125.224)" stroke="#F9DDA8" stroke-width="0.75"/>
<path d="M244.592 122.313C243.835 120.738 241.76 120.297 240.287 121.398C239.302 122.134 238.029 122.359 236.892 121.999C235.19 121.461 233.335 122.598 233.043 124.358C232.847 125.535 232.068 126.567 230.966 127.11C229.316 127.923 228.767 129.972 229.827 131.361C230.535 132.29 230.707 133.523 230.284 134.652C229.653 136.341 230.732 138.101 232.523 138.305C233.72 138.441 234.742 139.154 235.247 140.207C236.004 141.782 238.078 142.223 239.552 141.122C240.537 140.386 241.81 140.16 242.947 140.521C244.648 141.059 246.504 139.922 246.796 138.161C246.992 136.985 247.77 135.953 248.873 135.41C250.523 134.597 251.072 132.548 250.012 131.159C249.304 130.23 249.132 128.997 249.554 127.868C250.186 126.179 249.107 124.419 247.316 124.215C246.119 124.079 245.097 123.366 244.592 122.313Z" stroke="#F9DDA8" stroke-width="0.75"/>
<path d="M245.035 129.568L244.267 126.792L241.207 126.142M245.035 129.568L242.984 131.579L243.668 134.67M245.035 129.568L242.213 128.969M243.668 134.67L241.491 137.152L238.431 136.501M243.668 134.67L240.846 134.07M238.431 136.501L240.846 134.07M238.431 136.501L237.866 133.436M240.846 134.07L239.924 130.929M239.924 130.929L242.213 128.969M239.924 130.929L237.866 133.436M239.924 130.929L237.182 130.346M239.924 130.929L242.865 131.554M239.924 130.929L239.233 128.335M242.213 128.969L241.207 126.142M241.207 126.142L239.233 128.335M239.233 128.335L236.094 127.668M236.094 127.668L234.043 129.679L234.727 132.769M236.094 127.668L237.182 130.346M234.727 132.769L237.866 133.436M234.727 132.769L237.182 130.346" stroke="#F9DDA8" stroke-width="0.75"/>
<path d="M267.084 20.6365H266.006V56.4524L266.545 56.6365L267.084 56.4524V20.6365Z" fill="#545454" stroke="black" stroke-width="0.2"/>
<path d="M273.012 17.8013L266.539 22.4584V21.0376L273.012 16.4595V17.8013Z" fill="#545454" stroke="black" stroke-width="0.2"/>
<path d="M266.539 22.4584L259.988 17.8013V16.4595L266.539 21.0376V22.4584Z" fill="#545454" stroke="black" stroke-width="0.2"/>
<path d="M273.012 16.4594L266.539 21.1164L259.988 16.4594L266.539 11.7234L273.012 16.4594Z" fill="#545454" stroke="black" stroke-width="0.2"/>
<path d="M272.293 16.9092V6.90918H260.796V16.9092L266.545 20.8183L272.293 16.9092Z" fill="#D8A543" stroke="black" stroke-width="0.2"/>
<path d="M260.796 6.90918V16.9092L266.545 20.8183V6.90918H260.796Z" fill="#F4BC51" stroke="black" stroke-width="0.2"/>
<path d="M266.545 13.3637L259 8.00004V6.45459L266.545 11.7273V13.3637Z" fill="#545454" stroke="black" stroke-width="0.2"/>
<path d="M274 8.00004L266.545 13.3637V11.7273L274 6.45459V8.00004Z" fill="#545454" stroke="black" stroke-width="0.2"/>
<path d="M274 6.45455L266.545 11.8182L259 6.45455L266.545 1L274 6.45455Z" fill="#545454" stroke="black" stroke-width="0.2"/>
<path d="M261.695 6.63647V4.63647L266.545 8.18193V10.1819L261.695 6.63647Z" fill="#545454" stroke="black" stroke-width="0.2"/>
<path d="M271.485 6.63647V4.63647L266.545 8.18193V10.091L271.485 6.63647Z" fill="#545454" stroke="black" stroke-width="0.2"/>
<path d="M261.695 4.63627L266.545 8.18173L271.485 4.63627L266.545 1.09082L261.695 4.63627Z" fill="#545454" stroke="black" stroke-width="0.2"/>
<path d="M491.084 185.636H490.006V221.452L490.545 221.636L491.084 221.452V185.636Z" fill="#545454" stroke="black" stroke-width="0.2"/>
<path d="M497.012 182.801L490.539 187.458V186.038L497.012 181.459V182.801Z" fill="#545454" stroke="black" stroke-width="0.2"/>
<path d="M490.539 187.458L483.988 182.801V181.459L490.539 186.038V187.458Z" fill="#545454" stroke="black" stroke-width="0.2"/>
<path d="M497.012 181.459L490.539 186.116L483.988 181.459L490.539 176.723L497.012 181.459Z" fill="#545454" stroke="black" stroke-width="0.2"/>
<path d="M496.293 181.909V171.909H484.796V181.909L490.545 185.818L496.293 181.909Z" fill="#D8A543" stroke="black" stroke-width="0.2"/>
<path d="M484.796 171.909V181.909L490.545 185.818V171.909H484.796Z" fill="#F4BC51" stroke="black" stroke-width="0.2"/>
<path d="M490.545 178.364L483 173V171.455L490.545 176.727V178.364Z" fill="#545454" stroke="black" stroke-width="0.2"/>
<path d="M498 173L490.545 178.364V176.727L498 171.455V173Z" fill="#545454" stroke="black" stroke-width="0.2"/>
<path d="M498 171.455L490.545 176.818L483 171.455L490.545 166L498 171.455Z" fill="#545454" stroke="black" stroke-width="0.2"/>
<path d="M485.695 171.636V169.636L490.545 173.182V175.182L485.695 171.636Z" fill="#545454" stroke="black" stroke-width="0.2"/>
<path d="M495.485 171.636V169.636L490.545 173.182V175.091L495.485 171.636Z" fill="#545454" stroke="black" stroke-width="0.2"/>
<path d="M485.695 169.636L490.545 173.182L495.485 169.636L490.545 166.091L485.695 169.636Z" fill="#545454" stroke="black" stroke-width="0.2"/>
</svg>
