<svg width="389" height="256" viewBox="0 0 389 256" fill="none" xmlns="http://www.w3.org/2000/svg">
<path d="M284.526 77.3878L300.897 88.8368M284.526 77.3878L287.465 75.3062M284.526 77.3878L281.587 79.4694M300.897 88.8368L303.836 86.7551M300.897 88.8368L297.959 90.9184" stroke="#AE4E5C" stroke-width="0.5"/>
<path d="M261.878 62.2039L278.249 73.6529M261.878 62.2039L264.816 60.1223M261.878 62.2039L258.939 64.2856M278.249 73.6529L281.187 71.5713M278.249 73.6529L275.31 75.7346" stroke="#AE4E5C" stroke-width="0.5"/>
<path d="M331.547 44.3265L347.918 55.7755M331.547 44.3265L334.486 42.2449M331.547 44.3265L328.608 46.4081M347.918 55.7755L350.857 53.6939M347.918 55.7755L344.98 57.8571" stroke="#AE4E5C" stroke-width="0.5"/>
<path d="M308.898 29.1427L325.269 40.5916M308.898 29.1427L311.837 27.061M308.898 29.1427L305.959 31.2243M325.269 40.5916L328.208 38.51M325.269 40.5916L322.331 42.6733" stroke="#AE4E5C" stroke-width="0.5"/>
<path d="M307.914 60.7347L324.285 72.1837M307.914 60.7347L310.852 58.6531M307.914 60.7347L304.975 62.8163M324.285 72.1837L327.224 70.1021M324.285 72.1837L321.346 74.2653" stroke="#AE4E5C" stroke-width="0.5"/>
<path d="M285.265 45.5509L301.636 56.9998M285.265 45.5509L288.204 43.4692M285.265 45.5509L282.326 47.6325M301.636 56.9998L304.575 54.9182M301.636 56.9998L298.697 59.0815" stroke="#AE4E5C" stroke-width="0.5"/>
<path d="M354.934 27.6734L371.306 39.1224M354.934 27.6734L357.873 25.5918M354.934 27.6734L351.996 29.7551M371.306 39.1224L374.244 37.0408M371.306 39.1224L368.367 41.204" stroke="#AE4E5C" stroke-width="0.5"/>
<path d="M332.286 12.4896L348.657 23.9386M332.286 12.4896L335.225 10.408M332.286 12.4896L329.347 14.5712M348.657 23.9386L351.596 21.8569M348.657 23.9386L345.718 26.0202" stroke="#AE4E5C" stroke-width="0.5"/>
<path d="M296.343 69.0611L312.714 80.5101M296.343 69.0611L299.282 66.9795M296.343 69.0611L293.404 71.1428M312.714 80.5101L315.653 78.4285M312.714 80.5101L309.775 82.5917" stroke="#AE4E5C" stroke-width="0.5"/>
<path d="M273.694 53.8775L290.065 65.3265M273.694 53.8775L276.633 51.7959M273.694 53.8775L270.755 55.9592M290.065 65.3265L293.004 63.2449M290.065 65.3265L287.126 67.4081" stroke="#AE4E5C" stroke-width="0.5"/>
<path d="M343.364 35.9998L359.735 47.4488M343.364 35.9998L346.303 33.9182M343.364 35.9998L340.425 38.0815M359.735 47.4488L362.674 45.3672M359.735 47.4488L356.796 49.5305" stroke="#AE4E5C" stroke-width="0.5"/>
<path d="M320.715 20.8163L337.086 32.2652M320.715 20.8163L323.654 18.7346M320.715 20.8163L317.776 22.8979M337.086 32.2652L340.025 30.1836M337.086 32.2652L334.147 34.3469" stroke="#AE4E5C" stroke-width="0.5"/>
<path d="M319.73 52.408L336.101 63.857M319.73 52.408L322.669 50.3264M319.73 52.408L316.792 54.4897M336.101 63.857L339.04 61.7754M336.101 63.857L333.163 65.9387" stroke="#AE4E5C" stroke-width="0.5"/>
<path d="M297.082 37.2245L313.453 48.6734M297.082 37.2245L300.02 35.1428M297.082 37.2245L294.143 39.3061M313.453 48.6734L316.392 46.5918M313.453 48.6734L310.514 50.7551" stroke="#AE4E5C" stroke-width="0.5"/>
<path d="M366.751 19.3468L383.122 30.7957M366.751 19.3468L369.69 17.2651M366.751 19.3468L363.812 21.4284M383.122 30.7957L386.061 28.7141M383.122 30.7957L380.184 32.8774" stroke="#AE4E5C" stroke-width="0.5"/>
<path d="M344.102 4.16318L360.473 15.6122M344.102 4.16318L347.041 2.08154M344.102 4.16318L341.164 6.24481M360.473 15.6122L363.412 13.5305M360.473 15.6122L357.535 17.6938" stroke="#AE4E5C" stroke-width="0.5"/>
<path d="M278.956 81.6121L278.956 77.3272L275.325 79.8979L275.448 75.306L368.505 9.42847L368.383 13.9997L372.075 11.3877V15.6121L278.956 81.6121Z" fill="#D8A543"/>
<path d="M278.956 77.2652L278.956 81.6121L372.075 15.6121V11.3877L278.956 77.2652ZM275.325 79.8979L275.448 75.306L368.505 9.42847L368.382 14.0203L275.325 79.8979Z" stroke="black" stroke-linejoin="bevel"/>
<path d="M279.079 77.204L275.51 75.1223L368.505 9.42847L372.136 11.3877L279.079 77.204Z" fill="#F4BC51" stroke="black" stroke-linejoin="bevel"/>
<path d="M166.009 106.625L221.727 147.495L221.559 129.323L164.991 89.8728L166.009 106.625Z" fill="#AE4E5C" stroke="black"/>
<path d="M286.604 99.9996L286.881 83.238L286.868 81.8246L221.6 129.497L221.766 147.467L286.604 99.9996Z" fill="#D96558" stroke="black"/>
<path d="M287.683 81.832L287.65 78.1952L163.919 86.2164L164.603 90.0507L221.812 130.34L287.683 81.832Z" fill="#F4BC51" stroke="black"/>
<path d="M221.575 126.508L162.648 85.8363L231.737 36.5269L289.369 77.2075L221.575 126.508Z" fill="#F4BC51" stroke="black"/>
<path d="M201.711 105.225L224.241 89.3133L244.453 103.107L221.927 119.422L201.711 105.225Z" stroke="black"/>
<path d="M224.272 91.9377L224.249 89.515L244.669 103.101L221.936 119.615L221.063 118.611L241.436 103.729L224.272 91.9377Z" fill="black" stroke="black"/>
<path d="M224.266 92.1504L224.24 89.3232L201.494 105.236L203.883 106.633L224.266 92.1504Z" fill="black" fill-opacity="0.2"/>
<path d="M238.074 122.186L244.479 117.299L244.57 125.983L238.165 130.869L238.074 122.186Z" fill="#F4BC51" stroke="black" stroke-width="0.25"/>
<path d="M243.672 121.748L243.644 119.122L238.939 122.586L238.966 125.212L243.672 121.748Z" fill="black"/>
<path d="M243.701 125.179L243.673 122.553L238.97 126.218L238.998 128.845L243.701 125.179Z" fill="black"/>
<path d="M257.951 107.655L264.356 102.768L264.447 111.452L258.042 116.338L257.951 107.655Z" fill="#F4BC51" stroke="black" stroke-width="0.25"/>
<path d="M263.549 107.218L263.521 104.591L258.816 108.055L258.843 110.681L263.549 107.218Z" fill="black"/>
<path d="M263.578 110.648L263.551 108.022L258.848 111.688L258.875 114.314L263.578 110.648Z" fill="black"/>
<path d="M277.828 92.7694L284.233 87.8829L284.324 96.5664L277.919 101.453L277.828 92.7694Z" fill="#F4BC51" stroke="black" stroke-width="0.25"/>
<path d="M283.426 92.3321L283.399 89.7058L278.693 93.1695L278.721 95.7959L283.426 92.3321Z" fill="black"/>
<path d="M283.455 95.7627L283.428 93.1365L278.725 96.8021L278.752 99.4283L283.455 95.7627Z" fill="black"/>
<path d="M228.135 129.451L234.54 124.565L234.632 133.248L228.226 138.135L228.135 129.451Z" fill="#F4BC51" stroke="black" stroke-width="0.25"/>
<path d="M233.947 128.811L233.92 126.184L229.001 129.851L229.028 132.478L233.947 128.811Z" fill="black"/>
<path d="M233.979 132.443L233.951 129.817L229.032 133.484L229.059 136.11L233.979 132.443Z" fill="black"/>
<path d="M248.012 114.921L254.418 110.034L254.509 118.717L248.103 123.604L248.012 114.921Z" fill="#F4BC51" stroke="black" stroke-width="0.25"/>
<path d="M253.825 114.28L253.797 111.653L248.878 115.321L248.905 117.947L253.825 114.28Z" fill="black"/>
<path d="M253.856 117.912L253.828 115.286L248.909 118.953L248.937 121.579L253.856 117.912Z" fill="black"/>
<path d="M216.063 130.266L209.611 125.372L209.542 134.048L215.994 138.942L216.063 130.266Z" fill="#F4BC51" stroke="black" stroke-width="0.25"/>
<path d="M210.444 129.817L210.464 127.195L215.194 130.662L215.174 133.285L210.444 129.817Z" fill="black"/>
<path d="M210.414 133.248L210.435 130.626L215.163 134.295L215.143 136.917L210.414 133.248Z" fill="black"/>
<path d="M196.186 115.735L189.733 110.841L189.664 119.517L196.117 124.411L196.186 115.735Z" fill="#F4BC51" stroke="black" stroke-width="0.25"/>
<path d="M190.566 115.287L190.587 112.664L195.317 116.131L195.296 118.754L190.566 115.287Z" fill="black"/>
<path d="M190.536 118.718L190.557 116.095L195.286 119.764L195.265 122.387L190.536 118.718Z" fill="black"/>
<path d="M176.308 100.849L169.856 95.9554L169.787 104.632L176.24 109.525L176.308 100.849Z" fill="#F4BC51" stroke="black" stroke-width="0.25"/>
<path d="M170.689 100.401L170.71 97.7782L175.44 101.245L175.419 103.868L170.689 100.401Z" fill="black"/>
<path d="M170.659 103.832L170.68 101.209L175.409 104.878L175.388 107.501L170.659 103.832Z" fill="black"/>
<path d="M206.124 123L199.672 118.107L199.603 126.783L206.056 131.677L206.124 123Z" fill="#F4BC51" stroke="black" stroke-width="0.25"/>
<path d="M200.29 122.349L200.311 119.726L205.256 123.397L205.235 126.019L200.29 122.349Z" fill="black"/>
<path d="M200.259 125.981L200.28 123.358L205.225 127.029L205.204 129.652L200.259 125.981Z" fill="black"/>
<path d="M186.247 108.47L179.795 103.576L179.726 112.252L186.178 117.146L186.247 108.47Z" fill="#F4BC51" stroke="black" stroke-width="0.25"/>
<path d="M180.413 107.818L180.434 105.195L185.379 108.866L185.358 111.489L180.413 107.818Z" fill="black"/>
<path d="M180.382 111.45L180.403 108.828L185.347 112.498L185.327 115.121L180.382 111.45Z" fill="black"/>
<path d="M267.889 100.39L274.295 95.503L274.386 104.186L267.981 109.073L267.889 100.39Z" fill="#F4BC51" stroke="black" stroke-width="0.25"/>
<path d="M273.702 99.7488L273.674 97.1224L268.755 100.79L268.783 103.416L273.702 99.7488Z" fill="black"/>
<path d="M273.733 103.381L273.705 100.755L268.786 104.422L268.814 107.048L273.733 103.381Z" fill="black"/>
<path d="M166.009 82.5011L221.727 123.371L221.559 105.2L164.991 65.749L166.009 82.5011Z" fill="#AE4E5C" stroke="black"/>
<path d="M286.604 75.8758L286.881 59.1142L286.868 57.7008L221.6 105.373L221.766 123.343L286.604 75.8758Z" fill="#D96558" stroke="black"/>
<path d="M287.683 57.7083L287.65 54.0714L163.919 62.0926L164.603 65.9269L221.812 106.216L287.683 57.7083Z" fill="#F4BC51" stroke="black"/>
<path d="M221.575 102.384L162.648 61.7125L231.737 12.4031L289.369 53.0837L221.575 102.384Z" fill="#F4BC51" stroke="black"/>
<path d="M201.711 81.1013L224.241 65.1895L244.453 78.9827L221.927 95.2984L201.711 81.1013Z" stroke="black"/>
<path d="M224.272 67.8139L224.249 65.3912L244.669 78.9768L221.936 95.4908L221.063 94.4874L241.436 79.6052L224.272 67.8139Z" fill="black" stroke="black"/>
<path d="M224.266 68.0267L224.24 65.1995L201.494 81.1121L203.883 82.509L224.266 68.0267Z" fill="black" fill-opacity="0.2"/>
<path d="M238.074 99.1789L244.479 94.2923L244.57 102.976L238.165 107.862L238.074 99.1789Z" fill="#F4BC51" stroke="black" stroke-width="0.25"/>
<path d="M243.672 98.7415L243.645 96.1152L238.939 99.579L238.966 102.205L243.672 98.7415Z" fill="black"/>
<path d="M243.701 102.172L243.674 99.5459L238.971 103.212L238.998 105.838L243.701 102.172Z" fill="black"/>
<path d="M257.951 84.6479L264.356 79.7613L264.447 88.4448L258.042 93.3313L257.951 84.6479Z" fill="#F4BC51" stroke="black" stroke-width="0.25"/>
<path d="M263.549 84.2105L263.522 81.5842L258.816 85.048L258.844 87.6743L263.549 84.2105Z" fill="black"/>
<path d="M263.578 87.6411L263.551 85.0149L258.848 88.6805L258.875 91.3067L263.578 87.6411Z" fill="black"/>
<path d="M277.828 69.7624L284.234 64.8758L284.325 73.5593L277.919 78.4458L277.828 69.7624Z" fill="#F4BC51" stroke="black" stroke-width="0.25"/>
<path d="M283.426 69.325L283.399 66.6987L278.693 70.1624L278.721 72.7888L283.426 69.325Z" fill="black"/>
<path d="M283.456 72.7556L283.428 70.1294L278.725 73.795L278.753 76.4212L283.456 72.7556Z" fill="black"/>
<path d="M228.135 106.444L234.54 101.558L234.632 110.241L228.226 115.128L228.135 106.444Z" fill="#F4BC51" stroke="black" stroke-width="0.25"/>
<path d="M233.947 105.803L233.92 103.177L229.001 106.844L229.028 109.471L233.947 105.803Z" fill="black"/>
<path d="M233.979 109.436L233.951 106.81L229.032 110.477L229.059 113.103L233.979 109.436Z" fill="black"/>
<path d="M248.012 91.9135L254.418 87.0269L254.509 95.7104L248.103 100.597L248.012 91.9135Z" fill="#F4BC51" stroke="black" stroke-width="0.25"/>
<path d="M253.825 91.2727L253.797 88.6463L248.878 92.3135L248.905 94.9399L253.825 91.2727Z" fill="black"/>
<path d="M253.856 94.9053L253.828 92.2789L248.909 95.9461L248.937 98.5724L253.856 94.9053Z" fill="black"/>
<path d="M267.89 77.3825L274.295 72.4959L274.386 81.1794L267.981 86.066L267.89 77.3825Z" fill="#F4BC51" stroke="black" stroke-width="0.25"/>
<path d="M273.702 76.7417L273.674 74.1153L268.755 77.7825L268.783 80.4088L273.702 76.7417Z" fill="black"/>
<path d="M273.733 80.3743L273.706 77.7479L268.786 81.4151L268.814 84.0414L273.733 80.3743Z" fill="black"/>
<path d="M216.063 106.451L209.611 101.558L209.542 110.234L215.994 115.128L216.063 106.451Z" fill="#F4BC51" stroke="black" stroke-width="0.25"/>
<path d="M210.444 106.003L210.464 103.38L215.194 106.848L215.174 109.471L210.444 106.003Z" fill="black"/>
<path d="M210.414 109.434L210.435 106.811L215.163 110.48L215.143 113.103L210.414 109.434Z" fill="black"/>
<path d="M196.186 91.9207L189.734 87.027L189.665 95.7032L196.117 100.597L196.186 91.9207Z" fill="#F4BC51" stroke="black" stroke-width="0.25"/>
<path d="M190.566 91.4725L190.587 88.8497L195.317 92.317L195.296 94.9398L190.566 91.4725Z" fill="black"/>
<path d="M190.537 94.9034L190.557 92.2806L195.286 95.9497L195.265 98.5725L190.537 94.9034Z" fill="black"/>
<path d="M176.309 77.035L169.856 72.1412L169.787 80.8175L176.24 85.7113L176.309 77.035Z" fill="#F4BC51" stroke="black" stroke-width="0.25"/>
<path d="M170.689 76.5867L170.71 73.9639L175.44 77.4312L175.419 80.054L170.689 76.5867Z" fill="black"/>
<path d="M170.659 80.0177L170.68 77.3949L175.409 81.0639L175.388 83.6867L170.659 80.0177Z" fill="black"/>
<path d="M206.125 99.1861L199.672 94.2923L199.603 102.969L206.056 107.862L206.125 99.1861Z" fill="#F4BC51" stroke="black" stroke-width="0.25"/>
<path d="M200.291 98.5345L200.311 95.9117L205.256 99.5824L205.235 102.205L200.291 98.5345Z" fill="black"/>
<path d="M200.259 102.167L200.28 99.5443L205.225 103.215L205.204 105.838L200.259 102.167Z" fill="black"/>
<path d="M186.247 84.6553L179.795 79.7616L179.726 88.4379L186.178 93.3316L186.247 84.6553Z" fill="#F4BC51" stroke="black" stroke-width="0.25"/>
<path d="M180.413 84.0037L180.434 81.3809L185.379 85.0517L185.358 87.6745L180.413 84.0037Z" fill="black"/>
<path d="M180.382 87.6363L180.403 85.0135L185.347 88.6843L185.327 91.307L180.382 87.6363Z" fill="black"/>
<path d="M99.2373 155.154L154.955 196.024L154.787 177.852L98.219 138.402L99.2373 155.154Z" fill="#AE4E5C" stroke="black"/>
<path d="M189.359 155.939L199.569 163.433L199.53 146.208L189.164 138.975L189.359 155.939Z" fill="#AE4E5C" stroke="black"/>
<path d="M219.851 148.525L220.129 131.767L220.115 130.353L199.574 145.596L199.74 163.562L219.851 148.525Z" fill="#D96558" stroke="black"/>
<path d="M179.461 178.041L179.739 161.282L179.726 159.869L154.811 178.029L154.976 195.996L179.461 178.041Z" fill="#D96558" stroke="black"/>
<path d="M198.346 152.109L191.894 147.216L191.825 155.892L198.277 160.786L198.346 152.109Z" fill="#F4BC51" stroke="black" stroke-width="0.25"/>
<path d="M192.727 151.661L192.748 149.038L197.478 152.506L197.457 155.128L192.727 151.661Z" fill="black"/>
<path d="M192.697 155.092L192.718 152.469L197.447 156.138L197.426 158.761L192.697 155.092Z" fill="black"/>
<path d="M171.096 172.235L177.501 167.349L177.592 176.032L171.187 180.919L171.096 172.235Z" fill="#F4BC51" stroke="black" stroke-width="0.25"/>
<path d="M176.694 171.798L176.667 169.172L171.961 172.635L171.989 175.262L176.694 171.798Z" fill="black"/>
<path d="M176.723 175.229L176.696 172.602L171.993 176.268L172.02 178.894L176.723 175.229Z" fill="black"/>
<path d="M210.85 142.819L217.256 137.932L217.347 146.616L210.941 151.502L210.85 142.819Z" fill="#F4BC51" stroke="black" stroke-width="0.25"/>
<path d="M216.449 142.381L216.421 139.755L211.716 143.219L211.743 145.845L216.449 142.381Z" fill="black"/>
<path d="M216.478 145.812L216.45 143.186L211.747 146.851L211.775 149.478L216.478 145.812Z" fill="black"/>
<path d="M161.157 179.501L167.563 174.614L167.654 183.298L161.248 188.184L161.157 179.501Z" fill="#F4BC51" stroke="black" stroke-width="0.25"/>
<path d="M166.97 178.86L166.942 176.234L162.023 179.901L162.05 182.527L166.97 178.86Z" fill="black"/>
<path d="M167.001 182.492L166.973 179.866L162.054 183.533L162.082 186.16L167.001 182.492Z" fill="black"/>
<path d="M149.086 179.911L142.633 175.018L142.564 183.694L149.017 188.588L149.086 179.911Z" fill="#F4BC51" stroke="black" stroke-width="0.25"/>
<path d="M143.466 179.463L143.487 176.84L148.217 180.308L148.196 182.93L143.466 179.463Z" fill="black"/>
<path d="M143.436 182.894L143.457 180.271L148.186 183.94L148.165 186.563L143.436 182.894Z" fill="black"/>
<path d="M129.208 165.381L122.756 160.487L122.687 169.163L129.139 174.057L129.208 165.381Z" fill="#F4BC51" stroke="black" stroke-width="0.25"/>
<path d="M123.589 164.932L123.609 162.31L128.339 165.777L128.319 168.4L123.589 164.932Z" fill="black"/>
<path d="M123.559 168.363L123.58 165.741L128.308 169.41L128.288 172.032L123.559 168.363Z" fill="black"/>
<path d="M109.331 150.495L102.879 145.601L102.81 154.277L109.262 159.171L109.331 150.495Z" fill="#F4BC51" stroke="black" stroke-width="0.25"/>
<path d="M103.711 150.047L103.732 147.424L108.462 150.891L108.441 153.514L103.711 150.047Z" fill="black"/>
<path d="M103.682 153.478L103.703 150.855L108.431 154.524L108.41 157.147L103.682 153.478Z" fill="black"/>
<path d="M139.147 172.646L132.694 167.752L132.626 176.429L139.078 181.322L139.147 172.646Z" fill="#F4BC51" stroke="black" stroke-width="0.25"/>
<path d="M133.313 171.994L133.334 169.372L138.278 173.042L138.258 175.665L133.313 171.994Z" fill="black"/>
<path d="M133.282 175.627L133.302 173.004L138.247 176.675L138.226 179.298L133.282 175.627Z" fill="black"/>
<path d="M119.27 158.115L112.817 153.222L112.748 161.898L119.201 166.792L119.27 158.115Z" fill="#F4BC51" stroke="black" stroke-width="0.25"/>
<path d="M113.436 157.464L113.456 154.841L118.401 158.512L118.38 161.134L113.436 157.464Z" fill="black"/>
<path d="M113.404 161.096L113.425 158.473L118.37 162.144L118.349 164.767L113.404 161.096Z" fill="black"/>
<path d="M200.912 150.439L207.317 145.553L207.408 154.236L201.003 159.123L200.912 150.439Z" fill="#F4BC51" stroke="black" stroke-width="0.25"/>
<path d="M206.724 149.798L206.697 147.172L201.777 150.839L201.805 153.465L206.724 149.798Z" fill="black"/>
<path d="M206.755 153.431L206.728 150.805L201.809 154.472L201.836 157.098L206.755 153.431Z" fill="black"/>
<path d="M220.911 130.361L220.878 126.724L97.1472 134.745L97.8306 138.579L155.04 178.868L220.911 130.361Z" fill="#F4BC51" stroke="black"/>
<path d="M154.803 175.036L95.8759 134.365L164.965 85.0557L222.596 125.736L154.803 175.036Z" fill="#F4BC51" stroke="black"/>
<path d="M99.0425 131.605L154.75 172.471L154.571 136.678L98.0137 97.2314L99.0425 131.605Z" fill="#AE4E5C" stroke="black"/>
<path d="M219.627 124.98L219.893 90.5965L219.88 89.1832L154.623 136.851L154.799 172.443L219.627 124.98Z" fill="#D96558" stroke="black"/>
<path d="M220.706 89.1907L220.672 85.5539L96.9419 93.575L97.6253 97.4093L154.834 137.698L220.706 89.1907Z" fill="#F4BC51" stroke="black"/>
<path d="M154.598 133.866L95.6706 93.1949L164.76 43.8855L222.391 84.5662L154.598 133.866Z" fill="#F4BC51" stroke="black"/>
<path d="M186.72 128.049L186.634 119.228L188.001 119.832L188.007 128.653L186.72 128.049Z" fill="#D96558" stroke="black" stroke-width="0.5"/>
<path d="M198.014 121.342L196.722 120.738L191.48 124.654L192.53 125.484L198.014 121.342Z" fill="#D96558" stroke="black" stroke-width="0.5"/>
<path d="M186.72 141.697L186.634 132.876L188.001 133.48L188.007 142.301L186.72 141.697Z" fill="#D96558" stroke="black" stroke-width="0.5"/>
<path fill-rule="evenodd" clip-rule="evenodd" d="M192.802 131.762L192.817 139.259L188.02 142.372L188.005 135.149L182.468 139.058L182.364 132.729L187.991 128.651L187.973 119.853L192.771 116.739L192.788 125.176L197.961 121.428L198.066 128.046L192.802 131.762Z" fill="#F4BC51"/>
<path d="M192.817 139.259L192.953 139.469L193.067 139.395L193.067 139.259L192.817 139.259ZM192.802 131.762L192.657 131.558L192.551 131.633L192.552 131.763L192.802 131.762ZM188.02 142.372L187.77 142.373L187.771 142.832L188.156 142.582L188.02 142.372ZM188.005 135.149L188.255 135.149L188.254 134.667L187.86 134.945L188.005 135.149ZM182.468 139.058L182.218 139.062L182.226 139.535L182.612 139.262L182.468 139.058ZM182.364 132.729L182.217 132.526L182.112 132.603L182.114 132.733L182.364 132.729ZM187.991 128.651L188.138 128.854L188.242 128.779L188.241 128.651L187.991 128.651ZM187.973 119.853L187.837 119.643L187.723 119.717L187.723 119.853L187.973 119.853ZM192.771 116.739L193.021 116.739L193.02 116.28L192.634 116.53L192.771 116.739ZM192.788 125.176L192.538 125.176L192.539 125.665L192.935 125.379L192.788 125.176ZM197.961 121.428L198.211 121.424L198.204 120.943L197.814 121.225L197.961 121.428ZM198.066 128.046L198.21 128.25L198.318 128.174L198.316 128.042L198.066 128.046ZM193.067 139.259L193.052 131.762L192.552 131.763L192.567 139.259L193.067 139.259ZM188.156 142.582L192.953 139.469L192.681 139.049L187.883 142.163L188.156 142.582ZM187.755 135.149L187.77 142.373L188.27 142.372L188.255 135.149L187.755 135.149ZM182.612 139.262L188.149 135.353L187.86 134.945L182.323 138.854L182.612 139.262ZM182.114 132.733L182.218 139.062L182.718 139.054L182.614 132.725L182.114 132.733ZM187.844 128.449L182.217 132.526L182.511 132.931L188.138 128.854L187.844 128.449ZM187.723 119.853L187.741 128.652L188.241 128.651L188.223 119.853L187.723 119.853ZM192.634 116.53L187.837 119.643L188.109 120.062L192.907 116.949L192.634 116.53ZM193.038 125.176L193.021 116.739L192.521 116.74L192.538 125.176L193.038 125.176ZM197.814 121.225L192.641 124.974L192.935 125.379L198.108 121.63L197.814 121.225ZM198.316 128.042L198.211 121.424L197.711 121.431L197.816 128.05L198.316 128.042ZM192.946 131.967L198.21 128.25L197.921 127.842L192.657 131.558L192.946 131.967Z" fill="black"/>
<path d="M181.068 138.606L182.437 139.134L182.352 132.726L180.984 132.122L181.068 138.606Z" fill="#D96558" stroke="black" stroke-width="0.5"/>
<path d="M186.632 128.053L180.986 132.119L182.358 132.722L187.923 128.656L186.632 128.053Z" fill="#D96558" stroke="black" stroke-width="0.5"/>
<path d="M192.767 116.667L191.476 116.139L186.555 119.225L187.928 119.829L192.767 116.667Z" fill="#D96558" stroke="black" stroke-width="0.5"/>
<path d="M149.082 154.077L142.641 149.185L142.567 157.863L149.008 162.755L149.082 154.077Z" fill="#F4BC51" stroke="black" stroke-width="0.25"/>
<path d="M143.468 153.632L143.49 151.008L148.215 154.474L148.192 157.098L143.468 153.632Z" fill="black"/>
<path d="M143.438 157.063L143.461 154.439L148.183 158.107L148.161 160.731L143.438 157.063Z" fill="black"/>
<path d="M149.082 141.968L142.641 137.076L142.567 145.755L149.008 150.646L149.082 141.968Z" fill="#F4BC51" stroke="black" stroke-width="0.25"/>
<path d="M143.468 141.523L143.49 138.899L148.215 142.366L148.192 144.989L143.468 141.523Z" fill="black"/>
<path d="M143.438 144.954L143.461 142.33L148.183 145.998L148.161 148.622L143.438 144.954Z" fill="black"/>
<path d="M129.205 139.546L122.764 134.655L122.69 143.333L129.131 148.225L129.205 139.546Z" fill="#F4BC51" stroke="black" stroke-width="0.25"/>
<path d="M123.591 139.101L123.613 136.477L128.337 139.944L128.315 142.567L123.591 139.101Z" fill="black"/>
<path d="M123.561 142.532L123.584 139.908L128.306 143.576L128.284 146.2L123.561 142.532Z" fill="black"/>
<path d="M129.205 127.438L122.764 122.546L122.69 131.224L129.131 136.116L129.205 127.438Z" fill="#F4BC51" stroke="black" stroke-width="0.25"/>
<path d="M123.591 126.992L123.613 124.368L128.337 127.835L128.315 130.458L123.591 126.992Z" fill="black"/>
<path d="M123.561 130.423L123.584 127.799L128.306 131.467L128.284 134.091L123.561 130.423Z" fill="black"/>
<path d="M109.328 124.661L102.887 119.769L102.813 128.447L109.254 133.339L109.328 124.661Z" fill="#F4BC51" stroke="black" stroke-width="0.25"/>
<path d="M103.714 124.215L103.736 121.592L108.46 125.058L108.438 127.682L103.714 124.215Z" fill="black"/>
<path d="M103.684 127.646L103.706 125.023L108.429 128.691L108.406 131.315L103.684 127.646Z" fill="black"/>
<path d="M109.328 112.552L102.887 107.66L102.813 116.338L109.254 121.23L109.328 112.552Z" fill="#F4BC51" stroke="black" stroke-width="0.25"/>
<path d="M103.714 112.106L103.736 109.483L108.46 112.949L108.438 115.573L103.714 112.106Z" fill="black"/>
<path d="M103.684 115.537L103.706 112.914L108.429 116.582L108.406 119.205L103.684 115.537Z" fill="black"/>
<path d="M139.144 146.812L132.703 141.92L132.628 150.598L139.069 155.49L139.144 146.812Z" fill="#F4BC51" stroke="black" stroke-width="0.25"/>
<path d="M133.315 146.163L133.337 143.539L138.276 147.209L138.253 149.833L133.315 146.163Z" fill="black"/>
<path d="M133.284 149.796L133.306 147.172L138.245 150.842L138.222 153.465L133.284 149.796Z" fill="black"/>
<path d="M139.144 134.703L132.703 129.811L132.628 138.489L139.069 143.381L139.144 134.703Z" fill="#F4BC51" stroke="black" stroke-width="0.25"/>
<path d="M133.315 134.054L133.337 131.43L138.276 135.1L138.253 137.724L133.315 134.054Z" fill="black"/>
<path d="M133.284 137.687L133.306 135.063L138.245 138.733L138.222 141.357L133.284 137.687Z" fill="black"/>
<path d="M119.266 132.281L112.825 127.389L112.751 136.068L119.192 140.959L119.266 132.281Z" fill="#F4BC51" stroke="black" stroke-width="0.25"/>
<path d="M113.438 131.633L113.46 129.009L118.399 132.679L118.376 135.302L113.438 131.633Z" fill="black"/>
<path d="M113.406 135.265L113.429 132.641L118.367 136.311L118.345 138.935L113.406 135.265Z" fill="black"/>
<path d="M119.266 120.172L112.825 115.28L112.751 123.958L119.192 128.85L119.266 120.172Z" fill="#F4BC51" stroke="black" stroke-width="0.25"/>
<path d="M113.438 119.523L113.46 116.9L118.399 120.57L118.376 123.193L113.438 119.523Z" fill="black"/>
<path d="M113.406 123.156L113.429 120.532L118.367 124.202L118.345 126.826L113.406 123.156Z" fill="black"/>
<path d="M34.7893 202.188L90.5069 243.058L90.3392 224.887L33.771 185.436L34.7893 202.188Z" fill="#AE4E5C" stroke="black"/>
<path d="M155.384 195.563L155.661 178.801L155.648 177.388L90.3801 225.06L90.5459 243.03L155.384 195.563Z" fill="#D96558" stroke="black"/>
<path d="M156.463 177.395L156.43 173.758L32.6992 181.78L33.3826 185.614L90.5918 225.903L156.463 177.395Z" fill="#F4BC51" stroke="black"/>
<path d="M90.355 222.071L31.4279 181.4L100.517 132.09L158.148 172.771L90.355 222.071Z" fill="#F4BC51" stroke="black"/>
<path d="M70.4903 200.788L93.0206 184.877L113.233 198.67L90.7067 214.985L70.4903 200.788Z" stroke="black"/>
<path d="M93.0515 187.501L93.0291 185.078L113.449 198.664L90.716 215.178L89.8431 214.174L110.216 199.292L93.0515 187.501Z" fill="black" stroke="black"/>
<path d="M93.0459 187.714L93.0198 184.886L70.2742 200.799L72.6627 202.196L93.0459 187.714Z" fill="black" fill-opacity="0.2"/>
<path d="M106.853 217.749L113.259 212.862L113.35 221.546L106.944 226.432L106.853 217.749Z" fill="#F4BC51" stroke="black" stroke-width="0.25"/>
<path d="M112.452 217.312L112.424 214.685L107.718 218.149L107.746 220.775L112.452 217.312Z" fill="black"/>
<path d="M112.481 220.742L112.453 218.116L107.75 221.782L107.778 224.408L112.481 220.742Z" fill="black"/>
<path d="M126.731 203.218L133.136 198.332L133.227 207.015L126.822 211.902L126.731 203.218Z" fill="#F4BC51" stroke="black" stroke-width="0.25"/>
<path d="M132.329 202.781L132.301 200.155L127.596 203.618L127.623 206.245L132.329 202.781Z" fill="black"/>
<path d="M132.358 206.211L132.33 203.585L127.627 207.251L127.655 209.877L132.358 206.211Z" fill="black"/>
<path d="M146.608 188.333L153.013 183.446L153.104 192.13L146.699 197.016L146.608 188.333Z" fill="#F4BC51" stroke="black" stroke-width="0.25"/>
<path d="M152.206 187.895L152.178 185.269L147.473 188.733L147.5 191.359L152.206 187.895Z" fill="black"/>
<path d="M152.235 191.326L152.208 188.7L147.504 192.365L147.532 194.992L152.235 191.326Z" fill="black"/>
<path d="M96.9149 225.015L103.32 220.128L103.411 228.811L97.0059 233.698L96.9149 225.015Z" fill="#F4BC51" stroke="black" stroke-width="0.25"/>
<path d="M102.727 224.374L102.7 221.747L97.7804 225.415L97.808 228.041L102.727 224.374Z" fill="black"/>
<path d="M102.758 228.006L102.731 225.38L97.8116 229.047L97.8392 231.673L102.758 228.006Z" fill="black"/>
<path d="M116.792 210.484L123.197 205.597L123.288 214.281L116.883 219.167L116.792 210.484Z" fill="#F4BC51" stroke="black" stroke-width="0.25"/>
<path d="M122.604 209.843L122.577 207.217L117.658 210.884L117.685 213.51L122.604 209.843Z" fill="black"/>
<path d="M122.636 213.476L122.608 210.849L117.689 214.516L117.716 217.143L122.636 213.476Z" fill="black"/>
<path d="M84.8429 225.829L78.3905 220.935L78.3216 229.611L84.774 234.505L84.8429 225.829Z" fill="#F4BC51" stroke="black" stroke-width="0.25"/>
<path d="M79.2234 225.381L79.2442 222.758L83.9743 226.225L83.9534 228.848L79.2234 225.381Z" fill="black"/>
<path d="M79.1937 228.812L79.2145 226.189L83.9431 229.858L83.9223 232.481L79.1937 228.812Z" fill="black"/>
<path d="M64.9655 211.298L58.5131 206.404L58.4442 215.081L64.8966 219.974L64.9655 211.298Z" fill="#F4BC51" stroke="black" stroke-width="0.25"/>
<path d="M59.3459 210.85L59.3667 208.227L64.0968 211.694L64.076 214.317L59.3459 210.85Z" fill="black"/>
<path d="M59.3162 214.281L59.337 211.658L64.0657 215.327L64.0449 217.95L59.3162 214.281Z" fill="black"/>
<path d="M45.0883 196.412L38.6359 191.519L38.567 200.195L45.0194 205.089L45.0883 196.412Z" fill="#F4BC51" stroke="black" stroke-width="0.25"/>
<path d="M39.4687 195.964L39.4895 193.341L44.2196 196.809L44.1988 199.431L39.4687 195.964Z" fill="black"/>
<path d="M39.439 199.395L39.4598 196.772L44.1885 200.441L44.1677 203.064L39.439 199.395Z" fill="black"/>
<path d="M74.9042 218.564L68.4518 213.67L68.3829 222.346L74.8353 227.24L74.9042 218.564Z" fill="#F4BC51" stroke="black" stroke-width="0.25"/>
<path d="M69.0701 217.912L69.091 215.289L74.0356 218.96L74.0148 221.583L69.0701 217.912Z" fill="black"/>
<path d="M69.0389 221.544L69.0597 218.922L74.0044 222.592L73.9836 225.215L69.0389 221.544Z" fill="black"/>
<path d="M55.027 204.033L48.5746 199.139L48.5057 207.815L54.9581 212.709L55.027 204.033Z" fill="#F4BC51" stroke="black" stroke-width="0.25"/>
<path d="M49.193 203.381L49.2138 200.758L54.1584 204.429L54.1376 207.052L49.193 203.381Z" fill="black"/>
<path d="M49.1617 207.014L49.1825 204.391L54.1272 208.062L54.1064 210.684L49.1617 207.014Z" fill="black"/>
<path d="M136.669 195.953L143.075 191.066L143.166 199.75L136.76 204.636L136.669 195.953Z" fill="#F4BC51" stroke="black" stroke-width="0.25"/>
<path d="M142.482 195.312L142.454 192.686L137.535 196.353L137.562 198.979L142.482 195.312Z" fill="black"/>
<path d="M142.513 198.945L142.485 196.318L137.566 199.985L137.594 202.612L142.513 198.945Z" fill="black"/>
<path d="M34.7893 178.064L90.5069 218.934L90.3392 200.763L33.771 161.312L34.7893 178.064Z" fill="#AE4E5C" stroke="black"/>
<path d="M155.384 171.439L155.661 154.677L155.648 153.264L90.3801 200.937L90.5459 218.907L155.384 171.439Z" fill="#D96558" stroke="black"/>
<path d="M156.463 153.271L156.43 149.635L32.6992 157.656L33.3826 161.49L90.5918 201.779L156.463 153.271Z" fill="#F4BC51" stroke="black"/>
<path d="M90.355 197.947L31.4279 157.276L100.517 107.966L158.148 148.647L90.355 197.947Z" fill="#F4BC51" stroke="black"/>
<path d="M70.4903 176.665L93.0206 160.753L113.233 174.546L90.7067 190.862L70.4903 176.665Z" stroke="black"/>
<path d="M93.0515 163.377L93.0291 160.954L113.449 174.54L90.716 191.054L89.8431 190.051L110.216 175.168L93.0515 163.377Z" fill="black" stroke="black"/>
<path d="M93.0459 163.59L93.0198 160.763L70.2742 176.675L72.6627 178.072L93.0459 163.59Z" fill="black" fill-opacity="0.2"/>
<path d="M106.854 194.742L113.259 189.856L113.35 198.539L106.945 203.426L106.854 194.742Z" fill="#F4BC51" stroke="black" stroke-width="0.25"/>
<path d="M112.452 194.305L112.424 191.678L107.719 195.142L107.746 197.769L112.452 194.305Z" fill="black"/>
<path d="M112.481 197.735L112.453 195.109L107.75 198.775L107.778 201.401L112.481 197.735Z" fill="black"/>
<path d="M126.731 180.211L133.136 175.325L133.227 184.008L126.822 188.895L126.731 180.211Z" fill="#F4BC51" stroke="black" stroke-width="0.25"/>
<path d="M132.329 179.774L132.301 177.147L127.596 180.611L127.623 183.238L132.329 179.774Z" fill="black"/>
<path d="M132.358 183.204L132.331 180.578L127.628 184.244L127.655 186.87L132.358 183.204Z" fill="black"/>
<path d="M146.608 165.326L153.013 160.439L153.104 169.123L146.699 174.009L146.608 165.326Z" fill="#F4BC51" stroke="black" stroke-width="0.25"/>
<path d="M152.206 164.888L152.179 162.262L147.473 165.726L147.501 168.352L152.206 164.888Z" fill="black"/>
<path d="M152.235 168.319L152.208 165.693L147.505 169.358L147.532 171.984L152.235 168.319Z" fill="black"/>
<path d="M96.9149 202.007L103.32 197.121L103.411 205.804L97.0059 210.691L96.9149 202.007Z" fill="#F4BC51" stroke="black" stroke-width="0.25"/>
<path d="M102.727 201.367L102.7 198.74L97.7804 202.407L97.808 205.034L102.727 201.367Z" fill="black"/>
<path d="M102.758 204.999L102.731 202.373L97.8116 206.04L97.8392 208.666L102.758 204.999Z" fill="black"/>
<path d="M116.792 187.477L123.197 182.59L123.289 191.274L116.883 196.16L116.792 187.477Z" fill="#F4BC51" stroke="black" stroke-width="0.25"/>
<path d="M122.604 186.836L122.577 184.21L117.658 187.877L117.685 190.503L122.604 186.836Z" fill="black"/>
<path d="M122.636 190.469L122.608 187.842L117.689 191.509L117.716 194.136L122.636 190.469Z" fill="black"/>
<path d="M136.669 172.946L143.075 168.059L143.166 176.743L136.761 181.629L136.669 172.946Z" fill="#F4BC51" stroke="black" stroke-width="0.25"/>
<path d="M142.482 172.305L142.454 169.679L137.535 173.346L137.563 175.972L142.482 172.305Z" fill="black"/>
<path d="M142.513 175.937L142.485 173.311L137.566 176.978L137.594 179.605L142.513 175.937Z" fill="black"/>
<path d="M84.8429 202.015L78.3905 197.121L78.3216 205.797L84.774 210.691L84.8429 202.015Z" fill="#F4BC51" stroke="black" stroke-width="0.25"/>
<path d="M79.2234 201.566L79.2442 198.944L83.9743 202.411L83.9534 205.034L79.2234 201.566Z" fill="black"/>
<path d="M79.1937 204.997L79.2145 202.375L83.9431 206.044L83.9223 208.666L79.1937 204.997Z" fill="black"/>
<path d="M64.9657 187.484L58.5133 182.59L58.4445 191.266L64.8968 196.16L64.9657 187.484Z" fill="#F4BC51" stroke="black" stroke-width="0.25"/>
<path d="M59.3462 187.036L59.367 184.413L64.0971 187.88L64.0762 190.503L59.3462 187.036Z" fill="black"/>
<path d="M59.3165 190.467L59.3373 187.844L64.0659 191.513L64.0451 194.136L59.3165 190.467Z" fill="black"/>
<path d="M45.0885 172.598L38.6361 167.704L38.5672 176.381L45.0196 181.274L45.0885 172.598Z" fill="#F4BC51" stroke="black" stroke-width="0.25"/>
<path d="M39.469 172.15L39.4898 169.527L44.2199 172.994L44.199 175.617L39.469 172.15Z" fill="black"/>
<path d="M39.4393 175.581L39.4601 172.958L44.1887 176.627L44.1679 179.25L39.4393 175.581Z" fill="black"/>
<path d="M74.9044 194.749L68.452 189.856L68.3832 198.532L74.8356 203.426L74.9044 194.749Z" fill="#F4BC51" stroke="black" stroke-width="0.25"/>
<path d="M69.0704 194.098L69.0912 191.475L74.0359 195.146L74.0151 197.768L69.0704 194.098Z" fill="black"/>
<path d="M69.0391 197.73L69.06 195.108L74.0046 198.778L73.9838 201.401L69.0391 197.73Z" fill="black"/>
<path d="M55.027 180.219L48.5746 175.325L48.5057 184.001L54.9581 188.895L55.027 180.219Z" fill="#F4BC51" stroke="black" stroke-width="0.25"/>
<path d="M49.193 179.567L49.2138 176.944L54.1584 180.615L54.1376 183.238L49.193 179.567Z" fill="black"/>
<path d="M49.1617 183.2L49.1825 180.577L54.1272 184.247L54.1064 186.87L49.1617 183.2Z" fill="black"/>
<path d="M92.0839 204.636H91.0061V240.452L91.545 240.636L92.0839 240.452V204.636Z" fill="#545454" stroke="black" stroke-width="0.2"/>
<path d="M98.012 201.801L91.5391 206.458V205.038L98.012 200.459V201.801Z" fill="#545454" stroke="black" stroke-width="0.2"/>
<path d="M91.539 206.458L84.988 201.801V200.459L91.539 205.038V206.458Z" fill="#545454" stroke="black" stroke-width="0.2"/>
<path d="M98.012 200.459L91.539 205.116L84.988 200.459L91.539 195.723L98.012 200.459Z" fill="#545454" stroke="black" stroke-width="0.2"/>
<path d="M97.2934 200.909V190.909H85.7964V200.909L91.5449 204.818L97.2934 200.909Z" fill="#D8A543" stroke="black" stroke-width="0.2"/>
<path d="M85.7964 190.909V200.909L91.5449 204.818V190.909H85.7964Z" fill="#F4BC51" stroke="black" stroke-width="0.2"/>
<path d="M91.5449 197.364L84 192V190.455L91.5449 195.727V197.364Z" fill="#545454" stroke="black" stroke-width="0.2"/>
<path d="M99 192L91.5449 197.364V195.727L99 190.455V192Z" fill="#545454" stroke="black" stroke-width="0.2"/>
<path d="M99 190.455L91.5449 195.818L84 190.455L91.5449 185L99 190.455Z" fill="#545454" stroke="black" stroke-width="0.2"/>
<path d="M86.6946 190.636V188.636L91.5449 192.182V194.182L86.6946 190.636Z" fill="#545454" stroke="black" stroke-width="0.2"/>
<path d="M96.485 190.636V188.636L91.5449 192.182V194.091L96.485 190.636Z" fill="#545454" stroke="black" stroke-width="0.2"/>
<path d="M86.6946 188.636L91.5449 192.182L96.485 188.636L91.5449 185.091L86.6946 188.636Z" fill="#545454" stroke="black" stroke-width="0.2"/>
<path d="M9.08395 146.636H8.0061V182.452L8.54503 182.636L9.08395 182.452V146.636Z" fill="#545454" stroke="black" stroke-width="0.2"/>
<path d="M15.012 143.801L8.53906 148.458V147.038L15.012 142.459V143.801Z" fill="#545454" stroke="black" stroke-width="0.2"/>
<path d="M8.53901 148.458L1.98804 143.801V142.459L8.53901 147.038V148.458Z" fill="#545454" stroke="black" stroke-width="0.2"/>
<path d="M15.012 142.459L8.53901 147.116L1.98804 142.459L8.53901 137.723L15.012 142.459Z" fill="#545454" stroke="black" stroke-width="0.2"/>
<path d="M14.2934 142.909V132.909H2.79639V142.909L8.54489 146.818L14.2934 142.909Z" fill="#D8A543" stroke="black" stroke-width="0.2"/>
<path d="M2.79639 132.909V142.909L8.54489 146.818V132.909H2.79639Z" fill="#F4BC51" stroke="black" stroke-width="0.2"/>
<path d="M8.54491 139.364L1 134V132.455L8.54491 137.727V139.364Z" fill="#545454" stroke="black" stroke-width="0.2"/>
<path d="M16 134L8.54492 139.364V137.727L16 132.455V134Z" fill="#545454" stroke="black" stroke-width="0.2"/>
<path d="M16 132.455L8.54491 137.818L1 132.455L8.54491 127L16 132.455Z" fill="#545454" stroke="black" stroke-width="0.2"/>
<path d="M3.69458 132.636V130.636L8.54488 134.182V136.182L3.69458 132.636Z" fill="#545454" stroke="black" stroke-width="0.2"/>
<path d="M13.485 132.636V130.636L8.54492 134.182V136.091L13.485 132.636Z" fill="#545454" stroke="black" stroke-width="0.2"/>
<path d="M3.69458 130.636L8.54488 134.182L13.485 130.636L8.54488 127.091L3.69458 130.636Z" fill="#545454" stroke="black" stroke-width="0.2"/>
</svg>
