<svg width="322" height="165" viewBox="0 0 322 165" fill="none" xmlns="http://www.w3.org/2000/svg">
<path d="M210.522 73L149.261 116.769L88 160.537L101.441 170.139L126.514 188.05L150.812 205.907L163.478 215.455L223.963 172.241L286 126.918L273.076 117.685L248.778 100.328L223.963 82.6018L210.522 73Z" fill="#AE4E5C"/>
<path d="M149.261 116.769L210.522 73L223.963 82.6018M149.261 116.769L88 160.537L101.441 170.139M149.261 116.769L186.612 144.505M223.963 172.241L163.478 215.455L150.812 205.907M223.963 172.241L286 126.918L273.076 117.685M223.963 172.241L186.612 144.505M273.076 117.685L247.744 136.15L223.446 118.672M273.076 117.685L150.812 205.907M273.076 117.685L248.778 100.328L223.963 82.6018M223.963 82.6018L198.632 100.824L223.446 118.672M223.963 82.6018L101.441 170.139M101.441 170.139L126.256 152.204L151.587 169.735M101.441 170.139L126.514 188.05L150.812 205.907M150.812 205.907L176.144 187.212L151.587 169.735M186.612 144.505L223.446 118.672M186.612 144.505L151.587 169.735" stroke="#F9DDA8"/>
<path d="M149.5 111.705V109.08M149.5 111.705V114.33M149.5 111.705L158.812 118.58L168.125 125.455L177.438 132.33L186.75 139.205L196.062 146.08L205.375 152.955L214.688 159.83L224 166.705M224 166.705V164.08M224 166.705V169.33M224 164.08V161.455L221.672 159.737M224 164.08L214.688 157.205L205.375 150.33L196.062 143.455L186.75 136.58L177.438 129.705L168.125 122.83L158.812 115.955L149.5 109.08M149.5 109.08V106.455L151.828 108.174M149.5 114.33V116.955L151.828 118.674M149.5 114.33L158.812 121.205L168.125 128.08L177.438 134.955L186.75 141.83L196.062 148.705L205.375 155.58L214.688 162.455L224 169.33M224 169.33V171.955L221.672 170.237M186.75 133.955V144.455M186.75 133.955L184.422 132.237M186.75 133.955L189.078 135.674M186.75 144.455L184.422 142.737M186.75 144.455L189.078 146.174M205.375 147.705V158.205M205.375 147.705L203.047 145.987M205.375 147.705L207.703 149.424M205.375 158.205L203.047 156.487M205.375 158.205L207.703 159.924M168.125 120.205V130.705M168.125 120.205L165.797 118.487M168.125 120.205L170.453 121.924M168.125 130.705L165.797 128.987M168.125 130.705L170.453 132.424M158.812 113.33V123.83M158.812 113.33L156.484 111.612M158.812 113.33L161.141 115.049M158.812 123.83L156.484 122.112M158.812 123.83L161.141 125.549M177.438 127.08V137.58M177.438 127.08L175.109 125.362M177.438 127.08L179.766 128.799M177.438 137.58L175.109 135.862M177.438 137.58L179.766 139.299M196.062 140.83V151.33M196.062 140.83L193.734 139.112M196.062 140.83L198.391 142.549M196.062 151.33L193.734 149.612M196.062 151.33L198.391 153.049M214.688 165.08V154.58M214.688 165.08L212.359 163.362M214.688 165.08L217.016 166.799M214.688 154.58L212.359 152.862M214.688 154.58L217.016 156.299M154.156 109.893V120.393M154.156 109.893L151.828 108.174M154.156 109.893L156.484 111.612M154.156 120.393L151.828 118.674M154.156 120.393L156.484 122.112M163.469 116.768V127.268M163.469 116.768L161.141 115.049M163.469 116.768L165.797 118.487M163.469 127.268L161.141 125.549M163.469 127.268L165.797 128.987M172.781 123.643V134.143M172.781 123.643L170.453 121.924M172.781 123.643L175.109 125.362M172.781 134.143L170.453 132.424M172.781 134.143L175.109 135.862M182.094 130.518V141.018M182.094 130.518L179.766 128.799M182.094 130.518L184.422 132.237M182.094 141.018L179.766 139.299M182.094 141.018L184.422 142.737M191.406 137.393V147.893M191.406 137.393L189.078 135.674M191.406 137.393L193.734 139.112M191.406 147.893L189.078 146.174M191.406 147.893L193.734 149.612M200.719 144.268V154.768M200.719 144.268L198.391 142.549M200.719 144.268L203.047 145.987M200.719 154.768L198.391 153.049M200.719 154.768L203.047 156.487M210.031 151.143V161.643M210.031 151.143L207.703 149.424M210.031 151.143L212.359 152.862M210.031 161.643L207.703 159.924M210.031 161.643L212.359 163.362M219.344 158.018V168.518M219.344 158.018L217.016 156.299M219.344 158.018L221.672 159.737M219.344 168.518L217.016 166.799M219.344 168.518L221.672 170.237M151.828 108.174V118.674M156.484 111.612V122.112M161.141 115.049V125.549M165.797 118.487V128.987M170.453 132.424V121.924M175.109 125.362V135.862M179.766 128.799V139.299M184.422 132.237V142.737M189.078 135.674V146.174M193.734 139.112V149.612M198.391 142.549V153.049M203.047 145.987V156.487M207.703 149.424V159.924M212.359 152.862V163.362M217.016 156.299V166.799M221.672 159.737V170.237" stroke="#F9DDA8" stroke-width="0.25"/>
<path d="M149.5 117V106.5L224 161.5V172.5L149.5 117Z" stroke="#F9DDA8"/>
<path d="M216.44 20V25.3014M216.44 25.3014V54.927M216.44 25.3014L210.957 21.2766M216.44 25.3014L222.5 29.7499M216.44 54.927V59.6047M216.44 54.927L210.957 50.9022M216.44 54.927L222.5 59.3754M240.679 37.7938V43.0952M240.679 43.0952V72.7208M240.679 43.0952L234.619 38.6468M240.679 43.0952L246.739 47.5437M240.679 72.7208V77.3985M240.679 72.7208L234.619 68.2724M240.679 72.7208L246.739 77.1693M222.5 24.4485V29.7499M222.5 29.7499V59.3754M222.5 29.7499L228.56 34.1983M222.5 59.3754V64.0532M222.5 59.3754L228.56 63.8239M246.739 42.2423V47.5437M246.739 47.5437V77.1693M246.739 47.5437L252.799 51.9922M246.739 77.1693V81.847M246.739 77.1693L252.799 81.6177M228.56 28.8969V34.1983M228.56 34.1983V63.8239M228.56 34.1983L234.619 38.6468M228.56 63.8239V68.5016M228.56 63.8239L234.619 68.2724M258.859 51.1392V56.4406M258.859 56.4406V86.0662M258.859 56.4406L252.799 51.9922M258.859 56.4406L264.919 60.8891M258.859 86.0662V90.7439M258.859 86.0662L252.799 81.6177M258.859 86.0662L264.919 90.5146M234.619 33.3454V38.6468M234.619 38.6468V68.2724M234.619 68.2724V72.9501M270.978 60.0361V65.3375M270.978 65.3375V94.9631M270.978 65.3375L264.919 60.8891M270.978 65.3375L277.038 69.786M270.978 94.9631V99.6408M270.978 94.9631L264.919 90.5146M270.978 94.9631L277.038 99.4116M252.799 46.6908V51.9922M252.799 51.9922V81.6177M252.799 81.6177V86.2954M289.158 73.3815V78.6829M289.158 78.6829V108.308M289.158 78.6829L283.098 74.2345M289.158 78.6829L295.218 83.1314M289.158 108.308V112.986M289.158 108.308L283.098 103.86M289.158 108.308L295.218 112.757M264.919 55.5877V60.8891M264.919 60.8891V90.5146M264.919 90.5146V95.1924M295.218 77.83V83.1314M295.218 83.1314V112.757M295.218 83.1314L301.278 87.5798M295.218 112.757V117.435M295.218 112.757L301.278 117.205M277.038 64.4846V69.786M277.038 69.786V99.4116M277.038 69.786L283.098 74.2345M277.038 99.4116V104.089M277.038 99.4116L283.098 103.86M301.278 82.2784V87.5798M301.278 87.5798V117.205M301.278 87.5798L307.337 92.0283M301.278 117.205V121.883M301.278 117.205L307.337 121.654M283.098 68.933V74.2345M283.098 74.2345V103.86M283.098 103.86V108.538M313.397 91.1753V96.4768M313.397 96.4768V126.102M313.397 96.4768L307.337 92.0283M313.397 126.102V130.78M313.397 126.102L307.337 121.654M307.337 86.7269V92.0283M307.337 92.0283V121.654M307.337 121.654V126.332M307.915 95.323V100.624M307.915 100.624V130.25M307.915 100.624L313.398 96.5997M307.915 100.624L301.855 105.073M307.915 130.25V134.928M307.915 130.25L313.398 126.225M307.915 130.25L301.855 134.698M283.676 113.117V118.418M283.676 118.418V148.044M283.676 118.418L289.735 113.97M283.676 118.418L277.616 122.867M283.676 148.044V152.722M283.676 148.044L289.735 143.595M283.676 148.044L277.616 152.492M301.855 99.7715V105.073M301.855 105.073V134.698M301.855 105.073L295.795 109.521M301.855 134.698V139.376M301.855 134.698L295.795 139.147M277.616 117.565V122.867M277.616 122.867V152.492M277.616 122.867L271.556 127.315M277.616 152.492V157.17M277.616 152.492L271.556 156.941M295.795 104.22V109.521M295.795 109.521V139.147M295.795 109.521L289.735 113.97M295.795 139.147V143.825M295.795 139.147L289.735 143.595M265.496 126.462V131.764M265.496 131.764V161.389M265.496 131.764L271.556 127.315M265.496 131.764L259.436 136.212M265.496 161.389V166.067M265.496 161.389L271.556 156.941M265.496 161.389L259.436 165.838M289.735 108.668V113.97M289.735 113.97V143.595M289.735 143.595V148.273M253.376 135.359V140.661M253.376 140.661V170.286M253.376 140.661L259.436 136.212M253.376 140.661L247.317 145.109M253.376 170.286V174.964M253.376 170.286L259.436 165.838M253.376 170.286L247.317 174.735M271.556 122.014V127.315M271.556 127.315V156.941M271.556 156.941V161.618M235.197 148.705V154.006M235.197 154.006V183.632M235.197 154.006L241.257 149.557M235.197 154.006L229.137 158.454M235.197 183.632V188.309M235.197 183.632L241.257 179.183M235.197 183.632L229.137 188.08M259.436 130.911V136.212M259.436 136.212V165.838M259.436 165.838V170.515M229.137 153.153V158.454M229.137 158.454V188.08M229.137 158.454L223.077 162.903M229.137 188.08V192.758M229.137 188.08L223.077 192.528M247.317 139.808V145.109M247.317 145.109V174.735M247.317 145.109L241.257 149.557M247.317 174.735V179.412M247.317 174.735L241.257 179.183M223.077 157.601V162.903M223.077 162.903V192.528M223.077 162.903L217.017 167.351M223.077 192.528V197.206M223.077 192.528L217.017 196.977M241.257 144.256V149.557M241.257 149.557V179.183M241.257 179.183V183.861M210.958 166.498V171.8M210.958 171.8V201.425M210.958 171.8L217.017 167.351M210.958 171.8L204.898 176.248M210.958 201.425V206.103M210.958 201.425L217.017 196.977M210.958 201.425L204.898 205.874M204.898 170.947V176.248M204.898 176.248V205.874M204.898 205.874V210.552M217.017 162.05V167.351M217.017 167.351V196.977M217.017 196.977V201.655" stroke="black"/>
<path d="M206.475 20V25.3014M206.475 25.3014V54.927M206.475 25.3014L211.958 21.2766M206.475 25.3014L200.415 29.7499M206.475 54.927V59.6047M206.475 54.927L211.958 50.9022M206.475 54.927L200.415 59.3754M182.235 37.7938V43.0952M182.235 43.0952V72.7208M182.235 43.0952L188.295 38.6468M182.235 43.0952L176.176 47.5437M182.235 72.7208V77.3985M182.235 72.7208L188.295 68.2724M182.235 72.7208L176.176 77.1693M200.415 24.4485V29.7499M200.415 29.7499V59.3754M200.415 29.7499L194.355 34.1983M200.415 59.3754V64.0532M200.415 59.3754L194.355 63.8239M176.176 42.2423V47.5437M176.176 47.5437V77.1693M176.176 47.5437L170.116 51.9922M176.176 77.1693V81.847M176.176 77.1693L170.116 81.6177M194.355 28.8969V34.1983M194.355 34.1983V63.8239M194.355 34.1983L188.295 38.6468M194.355 63.8239V68.5016M194.355 63.8239L188.295 68.2724M164.056 51.1392V56.4406M164.056 56.4406V86.0662M164.056 56.4406L170.116 51.9922M164.056 56.4406L157.996 60.8891M164.056 86.0662V90.7439M164.056 86.0662L170.116 81.6177M164.056 86.0662L157.996 90.5146M188.295 33.3454V38.6468M188.295 38.6468V68.2724M188.295 68.2724V72.9501M151.936 60.0361V65.3375M151.936 65.3375V94.9631M151.936 65.3375L157.996 60.8891M151.936 65.3375L145.876 69.786M151.936 94.9631V99.6408M151.936 94.9631L157.996 90.5146M151.936 94.9631L145.876 99.4116M170.116 46.6908V51.9922M170.116 51.9922V81.6177M170.116 81.6177V86.2954M133.757 73.3815V78.6829M133.757 78.6829V108.308M133.757 78.6829L139.817 74.2345M133.757 78.6829L127.697 83.1314M133.757 108.308V112.986M133.757 108.308L139.817 103.86M133.757 108.308L127.697 112.757M157.996 55.5877V60.8891M157.996 60.8891V90.5146M157.996 90.5146V95.1924M127.697 77.83V83.1314M127.697 83.1314V112.757M127.697 83.1314L121.637 87.5798M127.697 112.757V117.435M127.697 112.757L121.637 117.205M145.876 64.4846V69.786M145.876 69.786V99.4116M145.876 69.786L139.817 74.2345M145.876 99.4116V104.089M145.876 99.4116L139.817 103.86M121.637 82.2784V87.5798M121.637 87.5798V117.205M121.637 87.5798L115.577 92.0283M121.637 117.205V121.883M121.637 117.205L115.577 121.654M139.817 68.933V74.2345M139.817 74.2345V103.86M139.817 103.86V108.538M109.517 91.1753V96.4768M109.517 96.4768V126.102M109.517 96.4768L115.577 92.0283M109.517 96.4768L103.458 100.925M109.517 126.102V130.78M109.517 126.102L115.577 121.654M109.517 126.102L103.458 130.551M103.458 95.6238V100.925M103.458 100.925V130.551M103.458 130.551V135.228M115.577 86.7269V92.0283M115.577 92.0283V121.654M115.577 121.654V126.332M97.9748 99.7715V105.073M97.9748 105.073V134.698M97.9748 105.073L103.458 101.048M97.9748 105.073L91.915 109.521M97.9748 134.698V139.376M97.9748 134.698L103.458 130.674M97.9748 134.698L91.915 139.147M73.7355 117.565V122.867M73.7355 122.867V152.492M73.7355 122.867L79.7953 118.418M73.7355 122.867L67.6756 127.315M73.7355 152.492V157.17M73.7355 152.492L79.7953 148.044M73.7355 152.492L67.6756 156.941M91.915 104.22V109.521M91.915 109.521V139.147M91.915 109.521L85.8551 113.97M91.915 139.147V143.825M91.915 139.147L85.8551 143.595M67.6756 122.014V127.315M67.6756 127.315V156.941M67.6756 127.315L61.6158 131.764M67.6756 156.941V161.618M67.6756 156.941L61.6158 161.389M85.8551 108.668V113.97M85.8551 113.97V143.595M85.8551 113.97L79.7953 118.418M85.8551 143.595V148.273M85.8551 143.595L79.7953 148.044M55.5559 130.911V136.212M55.5559 136.212V165.838M55.5559 136.212L61.6158 131.764M55.5559 136.212L49.4961 140.661M55.5559 165.838V170.515M55.5559 165.838L61.6158 161.389M55.5559 165.838L49.4961 170.286M79.7953 113.117V118.418M79.7953 118.418V148.044M79.7953 148.044V152.722M43.4362 139.808V145.109M43.4362 145.109V174.735M43.4362 145.109L49.4961 140.661M43.4362 145.109L37.3764 149.557M43.4362 174.735V179.412M43.4362 174.735L49.4961 170.286M43.4362 174.735L37.3764 179.183M61.6158 126.462V131.764M61.6158 131.764V161.389M61.6158 161.389V166.067M25.2567 153.153V158.454M25.2567 158.454V188.08M25.2567 158.454L31.3166 154.006M25.2567 158.454L19.1969 162.903M25.2567 188.08V192.758M25.2567 188.08L31.3166 183.632M25.2567 188.08L19.1969 192.528M49.4961 135.359V140.661M49.4961 140.661V170.286M49.4961 170.286V174.964M19.1969 157.601V162.903M19.1969 162.903V192.528M19.1969 162.903L13.137 167.351M19.1969 192.528V197.206M19.1969 192.528L13.137 196.977M37.3764 144.256V149.557M37.3764 149.557V179.183M37.3764 149.557L31.3166 154.006M37.3764 179.183V183.861M37.3764 179.183L31.3166 183.632M13.137 162.05V167.351M13.137 167.351V196.977M13.137 167.351L7.07721 171.8M13.137 196.977V201.655M13.137 196.977L7.07721 201.425M31.3166 148.705V154.006M31.3166 154.006V183.632M31.3166 183.632V188.309M1.01736 170.947V176.248M1.01736 176.248V205.874M1.01736 176.248L7.07721 171.8M1.01736 205.874V210.552M1.01736 205.874L7.07721 201.425M7.07721 166.498V171.8M7.07721 171.8V201.425M7.07721 201.425V206.103" stroke="black"/>
<path d="M314.084 93.6365H313.006V129.452L313.545 129.636L314.084 129.452V93.6365Z" fill="#545454" stroke="black" stroke-width="0.2"/>
<path d="M320.012 90.8013L313.539 95.4584V94.0376L320.012 89.4595V90.8013Z" fill="#545454" stroke="black" stroke-width="0.2"/>
<path d="M313.539 95.4584L306.988 90.8013V89.4595L313.539 94.0376V95.4584Z" fill="#545454" stroke="black" stroke-width="0.2"/>
<path d="M320.012 89.4594L313.539 94.1164L306.988 89.4594L313.539 84.7234L320.012 89.4594Z" fill="#545454" stroke="black" stroke-width="0.2"/>
<path d="M319.293 89.9092V79.9092H307.796V89.9092L313.545 93.8183L319.293 89.9092Z" fill="#D8A543" stroke="black" stroke-width="0.2"/>
<path d="M307.796 79.9092V89.9092L313.545 93.8183V79.9092H307.796Z" fill="#F4BC51" stroke="black" stroke-width="0.2"/>
<path d="M313.545 86.3637L306 81V79.4546L313.545 84.7273V86.3637Z" fill="#545454" stroke="black" stroke-width="0.2"/>
<path d="M321 81L313.545 86.3637V84.7273L321 79.4546V81Z" fill="#545454" stroke="black" stroke-width="0.2"/>
<path d="M321 79.4545L313.545 84.8182L306 79.4545L313.545 74L321 79.4545Z" fill="#545454" stroke="black" stroke-width="0.2"/>
<path d="M308.695 79.6365V77.6365L313.545 81.1819V83.1819L308.695 79.6365Z" fill="#545454" stroke="black" stroke-width="0.2"/>
<path d="M318.485 79.6365V77.6365L313.545 81.1819V83.091L318.485 79.6365Z" fill="#545454" stroke="black" stroke-width="0.2"/>
<path d="M308.695 77.6363L313.545 81.1817L318.485 77.6363L313.545 74.0908L308.695 77.6363Z" fill="#545454" stroke="black" stroke-width="0.2"/>
<path d="M212.084 20.6365H211.006V56.4524L211.545 56.6365L212.084 56.4524V20.6365Z" fill="#545454" stroke="black" stroke-width="0.2"/>
<path d="M218.012 17.8013L211.539 22.4584V21.0376L218.012 16.4595V17.8013Z" fill="#545454" stroke="black" stroke-width="0.2"/>
<path d="M211.539 22.4584L204.988 17.8013V16.4595L211.539 21.0376V22.4584Z" fill="#545454" stroke="black" stroke-width="0.2"/>
<path d="M218.012 16.4594L211.539 21.1164L204.988 16.4594L211.539 11.7234L218.012 16.4594Z" fill="#545454" stroke="black" stroke-width="0.2"/>
<path d="M217.293 16.9092V6.90918H205.796V16.9092L211.545 20.8183L217.293 16.9092Z" fill="#D8A543" stroke="black" stroke-width="0.2"/>
<path d="M205.796 6.90918V16.9092L211.545 20.8183V6.90918H205.796Z" fill="#F4BC51" stroke="black" stroke-width="0.2"/>
<path d="M211.545 13.3637L204 8.00004V6.45459L211.545 11.7273V13.3637Z" fill="#545454" stroke="black" stroke-width="0.2"/>
<path d="M219 8.00004L211.545 13.3637V11.7273L219 6.45459V8.00004Z" fill="#545454" stroke="black" stroke-width="0.2"/>
<path d="M219 6.45455L211.545 11.8182L204 6.45455L211.545 1L219 6.45455Z" fill="#545454" stroke="black" stroke-width="0.2"/>
<path d="M206.695 6.63647V4.63647L211.545 8.18193V10.1819L206.695 6.63647Z" fill="#545454" stroke="black" stroke-width="0.2"/>
<path d="M216.485 6.63647V4.63647L211.545 8.18193V10.091L216.485 6.63647Z" fill="#545454" stroke="black" stroke-width="0.2"/>
<path d="M206.695 4.63627L211.545 8.18173L216.485 4.63627L211.545 1.09082L206.695 4.63627Z" fill="#545454" stroke="black" stroke-width="0.2"/>
</svg>
