<svg width="24" height="24" viewBox="0 0 24 24" fill="none" xmlns="http://www.w3.org/2000/svg">
<g clip-path="url(#clip0_879_1818)">
<path d="M8.68947 1.49997C8.97076 1.21876 9.35223 1.06079 9.74997 1.06079C10.1477 1.06079 10.5292 1.21876 10.8105 1.49997L11.781 2.46897C11.9218 2.6098 12.0009 2.80081 12.0009 2.99997C12.0009 3.19913 11.9218 3.39014 11.781 3.53097C11.6401 3.6718 11.4491 3.75092 11.25 3.75092C11.0508 3.75092 10.8598 3.6718 10.719 3.53097L9.74997 2.56047L2.99997 9.31047V18.75C2.99997 18.9489 3.07899 19.1396 3.21964 19.2803C3.36029 19.421 3.55106 19.5 3.74997 19.5C3.94888 19.5 4.13965 19.579 4.2803 19.7196C4.42095 19.8603 4.49997 20.0511 4.49997 20.25C4.49997 20.4489 4.42095 20.6396 4.2803 20.7803C4.13965 20.921 3.94888 21 3.74997 21C3.15323 21 2.58094 20.7629 2.15898 20.341C1.73702 19.919 1.49997 19.3467 1.49997 18.75V10.8105L1.28097 11.031C1.14014 11.1718 0.949134 11.2509 0.749971 11.2509C0.550807 11.2509 0.359801 11.1718 0.218971 11.031C0.0781409 10.8901 -0.00097656 10.6991 -0.000976562 10.5C-0.000976565 10.3008 0.0781409 10.1098 0.218971 9.96897L8.68947 1.49997ZM13.1895 2.99997C13.4708 2.71876 13.8522 2.56079 14.25 2.56079C14.6477 2.56079 15.0292 2.71876 15.3105 2.99997L18 5.68947V3.74997C18 3.55106 18.079 3.36029 18.2196 3.21964C18.3603 3.07899 18.5511 2.99997 18.75 2.99997H20.25C20.4489 2.99997 20.6396 3.07899 20.7803 3.21964C20.921 3.36029 21 3.55106 21 3.74997V8.68947L23.781 11.469C23.9218 11.6098 24.0009 11.8008 24.0009 12C24.0009 12.1991 23.9218 12.3901 23.781 12.531C23.6401 12.6718 23.4491 12.7509 23.25 12.7509C23.0508 12.7509 22.8598 12.6718 22.719 12.531L22.5 12.3105V20.25C22.5 20.8467 22.2629 21.419 21.841 21.841C21.419 22.2629 20.8467 22.5 20.25 22.5H8.24997C7.65323 22.5 7.08094 22.2629 6.65898 21.841C6.23702 21.419 5.99997 20.8467 5.99997 20.25V12.3105L5.78097 12.531C5.71124 12.6007 5.62846 12.656 5.53735 12.6938C5.44624 12.7315 5.34859 12.7509 5.24997 12.7509C5.15135 12.7509 5.0537 12.7315 4.9626 12.6938C4.87149 12.656 4.7887 12.6007 4.71897 12.531C4.64924 12.4612 4.59392 12.3785 4.55619 12.2873C4.51845 12.1962 4.49902 12.0986 4.49902 12C4.49902 11.9014 4.51845 11.8037 4.55619 11.7126C4.59392 11.6215 4.64924 11.5387 4.71897 11.469L13.1895 2.99997ZM14.25 4.06047L7.49997 10.8105V20.25C7.49997 20.4489 7.57899 20.6396 7.71964 20.7803C7.86029 20.921 8.05106 21 8.24997 21H20.25C20.4489 21 20.6396 20.921 20.7803 20.7803C20.921 20.6396 21 20.4489 21 20.25V10.8105L14.25 4.06047Z" fill="white"/>
</g>
<defs>
<clipPath id="clip0_879_1818">
<rect width="24" height="24" fill="white"/>
</clipPath>
</defs>
</svg>
