<svg width="28" height="28" viewBox="0 0 28 28" fill="none" xmlns="http://www.w3.org/2000/svg">
<path fill-rule="evenodd" clip-rule="evenodd" d="M20.5529 5.26249C20.5529 4.97282 20.4378 4.69501 20.233 4.49019C20.0282 4.28536 19.7504 4.17029 19.4607 4.17029C19.171 4.17029 18.8932 4.28536 18.6884 4.49019C18.4836 4.69501 18.3685 4.97282 18.3685 5.26249V6.35469H5.26212C4.97245 6.35469 4.69465 6.46976 4.48982 6.67458C4.28499 6.87941 4.16992 7.15721 4.16992 7.44688C4.16992 7.73655 4.28499 8.01436 4.48982 8.21918C4.69465 8.42401 4.97245 8.53908 5.26212 8.53908H18.3685V9.63128C18.3685 9.92095 18.4836 10.1988 18.6884 10.4036C18.8932 10.6084 19.171 10.7235 19.4607 10.7235C19.7504 10.7235 20.0282 10.6084 20.233 10.4036C20.4378 10.1988 20.5529 9.92095 20.5529 9.63128V8.53908H22.7373C23.027 8.53908 23.3048 8.42401 23.5096 8.21918C23.7144 8.01436 23.8295 7.73655 23.8295 7.44688C23.8295 7.15721 23.7144 6.87941 23.5096 6.67458C23.3048 6.46976 23.027 6.35469 22.7373 6.35469H20.5529V5.26249ZM5.26212 12.9079C4.97245 12.9079 4.69465 13.0229 4.48982 13.2278C4.28499 13.4326 4.16992 13.7104 4.16992 14.0001C4.16992 14.2897 4.28499 14.5675 4.48982 14.7724C4.69465 14.9772 4.97245 15.0923 5.26212 15.0923H7.44652V16.1845C7.44652 16.4741 7.56159 16.7519 7.76642 16.9568C7.97124 17.1616 8.24905 17.2767 8.53872 17.2767C8.82838 17.2767 9.10619 17.1616 9.31102 16.9568C9.51584 16.7519 9.63091 16.4741 9.63091 16.1845V15.0923H22.7373C23.027 15.0923 23.3048 14.9772 23.5096 14.7724C23.7144 14.5675 23.8295 14.2897 23.8295 14.0001C23.8295 13.7104 23.7144 13.4326 23.5096 13.2278C23.3048 13.0229 23.027 12.9079 22.7373 12.9079H9.63091V11.8157C9.63091 11.526 9.51584 11.2482 9.31102 11.0434C9.10619 10.8385 8.82838 10.7235 8.53872 10.7235C8.24905 10.7235 7.97124 10.8385 7.76642 11.0434C7.56159 11.2482 7.44652 11.526 7.44652 11.8157V12.9079H5.26212ZM4.16992 20.5533C4.16992 20.2636 4.28499 19.9858 4.48982 19.781C4.69465 19.5761 4.97245 19.4611 5.26212 19.4611H18.3685V18.3689C18.3685 18.0792 18.4836 17.8014 18.6884 17.5966C18.8932 17.3917 19.171 17.2767 19.4607 17.2767C19.7504 17.2767 20.0282 17.3917 20.233 17.5966C20.4378 17.8014 20.5529 18.0792 20.5529 18.3689V19.4611H22.7373C23.027 19.4611 23.3048 19.5761 23.5096 19.781C23.7144 19.9858 23.8295 20.2636 23.8295 20.5533C23.8295 20.8429 23.7144 21.1207 23.5096 21.3256C23.3048 21.5304 23.027 21.6455 22.7373 21.6455H20.5529V22.7377C20.5529 23.0273 20.4378 23.3051 20.233 23.51C20.0282 23.7148 19.7504 23.8299 19.4607 23.8299C19.171 23.8299 18.8932 23.7148 18.6884 23.51C18.4836 23.3051 18.3685 23.0273 18.3685 22.7377V21.6455H5.26212C4.97245 21.6455 4.69465 21.5304 4.48982 21.3256C4.28499 21.1207 4.16992 20.8429 4.16992 20.5533Z" fill="white"/>
</svg>
