<svg width="28" height="28" viewBox="0 0 28 28" fill="none" xmlns="http://www.w3.org/2000/svg">
<g clip-path="url(#clip0_393_19605)">
<path d="M14 19.8334V24.5" stroke="white" stroke-width="1.5" stroke-linecap="round" stroke-linejoin="round"/>
<path d="M11.6665 23.3333L16.3332 21" stroke="white" stroke-width="1.5" stroke-linecap="round" stroke-linejoin="round"/>
<path d="M11.6665 21L16.3332 23.3333" stroke="white" stroke-width="1.5" stroke-linecap="round" stroke-linejoin="round"/>
<path d="M5.8335 19.8334V24.5" stroke="white" stroke-width="1.5" stroke-linecap="round" stroke-linejoin="round"/>
<path d="M3.5 23.3333L8.16667 21" stroke="white" stroke-width="1.5" stroke-linecap="round" stroke-linejoin="round"/>
<path d="M3.5 21L8.16667 23.3333" stroke="white" stroke-width="1.5" stroke-linecap="round" stroke-linejoin="round"/>
<path d="M22.1665 19.8334V24.5" stroke="white" stroke-width="1.5" stroke-linecap="round" stroke-linejoin="round"/>
<path d="M19.8335 23.3333L24.5002 21" stroke="white" stroke-width="1.5" stroke-linecap="round" stroke-linejoin="round"/>
<path d="M19.8335 21L24.5002 23.3333" stroke="white" stroke-width="1.5" stroke-linecap="round" stroke-linejoin="round"/>
<path d="M10.5 7C10.5 7.92826 10.8687 8.8185 11.5251 9.47487C12.1815 10.1313 13.0717 10.5 14 10.5C14.9283 10.5 15.8185 10.1313 16.4749 9.47487C17.1313 8.8185 17.5 7.92826 17.5 7C17.5 6.07174 17.1313 5.1815 16.4749 4.52513C15.8185 3.86875 14.9283 3.5 14 3.5C13.0717 3.5 12.1815 3.86875 11.5251 4.52513C10.8687 5.1815 10.5 6.07174 10.5 7Z" stroke="white" stroke-width="1.5" stroke-linecap="round" stroke-linejoin="round"/>
<path d="M8.1665 16.3333C8.1665 15.7145 8.41234 15.121 8.84992 14.6834C9.28751 14.2458 9.881 14 10.4998 14H17.4998C18.1187 14 18.7122 14.2458 19.1498 14.6834C19.5873 15.121 19.8332 15.7145 19.8332 16.3333" stroke="white" stroke-width="1.5" stroke-linecap="round" stroke-linejoin="round"/>
</g>
<defs>
<clipPath id="clip0_393_19605">
<rect width="28" height="28" fill="white"/>
</clipPath>
</defs>
</svg>
