<svg width="30" height="30" viewBox="0 0 30 30" fill="none" xmlns="http://www.w3.org/2000/svg">
<path d="M13.75 10L11.6723 8.96115C11.3946 8.82229 11.0884 8.75 10.7779 8.75H9.57843C9.04799 8.75 8.53929 8.96071 8.16421 9.33579L6.83579 10.6642C6.46071 11.0393 6.25 11.548 6.25 12.0784L6.25 18.9296C6.25 19.5983 6.5842 20.2228 7.1406 20.5937L12.5075 24.1716C13.2444 24.663 14.2168 24.611 14.8972 24.044L21.25 18.75" stroke="white" stroke-width="1.5"/>
<path fill-rule="evenodd" clip-rule="evenodd" d="M17.8046 15.7892C17.2012 14.9812 16.0907 14.7489 15.2139 15.2471L12.5112 16.7832C11.7662 17.2066 10.8301 17.0801 10.2242 16.4742V16.4742C9.43256 15.6826 9.49155 14.382 10.3516 13.6653L15.6937 9.21356C16.0532 8.91403 16.5062 8.75 16.9741 8.75H18.2779C18.5884 8.75 18.8946 8.82229 19.1723 8.96115L22.6444 10.6972C23.322 11.036 23.75 11.7285 23.75 12.4861L23.75 17.7296C23.75 19.6537 21.2989 20.468 20.1476 18.9264L17.8046 15.7892Z" stroke="white" stroke-width="1.5"/>
<path d="M1.25 21.25V10" stroke="white" stroke-width="1.5" stroke-linecap="round"/>
<path d="M1.25 21.25V10" stroke="white" stroke-width="1.5" stroke-linecap="round"/>
<path d="M28.75 21.25V10" stroke="white" stroke-width="1.5" stroke-linecap="round"/>
</svg>
